<?xml version="1.0" encoding="UTF-8" standalone="no"?>
<svg
   xmlns:dc="http://purl.org/dc/elements/1.1/"
   xmlns:cc="http://creativecommons.org/ns#"
   xmlns:rdf="http://www.w3.org/1999/02/22-rdf-syntax-ns#"
   xmlns:svg="http://www.w3.org/2000/svg"
   xmlns="http://www.w3.org/2000/svg"
   xmlns:sodipodi="http://sodipodi.sourceforge.net/DTD/sodipodi-0.dtd"
   xmlns:inkscape="http://www.inkscape.org/namespaces/inkscape"
   height="48"
   id="Layer_1"
   version="1.1"
   viewBox="0 0 48 48"
   width="48"
   xml:space="preserve"
   inkscape:version="0.91 r13725"
   sodipodi:docname="facebook.svg"><metadata
     id="metadata9"><rdf:RDF><cc:Work
         rdf:about=""><dc:format>image/svg+xml</dc:format><dc:type
           rdf:resource="http://purl.org/dc/dcmitype/StillImage" /><dc:title></dc:title></cc:Work></rdf:RDF></metadata><defs
     id="defs7" /><sodipodi:namedview
     pagecolor="#ffffff"
     bordercolor="#666666"
     borderopacity="1"
     objecttolerance="10"
     gridtolerance="10"
     guidetolerance="10"
     inkscape:pageopacity="0"
     inkscape:pageshadow="2"
     inkscape:window-width="640"
     inkscape:window-height="480"
     id="namedview5"
     showgrid="false"
     inkscape:zoom="4.981409"
     inkscape:cx="31.787956"
     inkscape:cy="32.901643"
     inkscape:window-x="10"
     inkscape:window-y="34"
     inkscape:window-maximized="0"
     inkscape:current-layer="Layer_1" /><g
     id="g3334"
     transform="matrix(0.67824859,0,0,0.67824859,1.2870056,14.478814)"><rect
       y="2.1140938"
       x="26.792061"
       height="26.475197"
       width="15.119268"
       id="rect3337"
       style="opacity:1;fill:#ffffff;fill-opacity:1;stroke:#ffffff;stroke-width:13.49268055;stroke-miterlimit:4;stroke-dasharray:none" /><path
       inkscape:connector-curvature="0"
       id="path3"
       style="clip-rule:evenodd;fill:#3a589b;fill-rule:evenodd"
       d="m 29.765,31.32 6.744,0 0,-16.322 4.499,0 0.596,-5.624 -5.095,0 0.007,-2.816 c 0,-1.466 0.14,-2.253 2.244,-2.253 l 2.812,0 0,-5.625 -4.5,0 c -5.405,0 -7.307,2.729 -7.307,7.317 l 0,3.377 -3.369,0 0,5.625 3.369,0 0,16.321 z M 34,45 C 17.432,45 4,31.568 4,15 4,-1.569 17.432,-15 34,-15 50.568,-15 64,-1.569 64,15 64,31.568 50.568,45 34,45 Z" /></g></svg>