<?xml version="1.0" encoding="UTF-8" standalone="no"?>
<!-- Created with Inkscape (http://www.inkscape.org/) -->

<svg
   xmlns:dc="http://purl.org/dc/elements/1.1/"
   xmlns:cc="http://creativecommons.org/ns#"
   xmlns:rdf="http://www.w3.org/1999/02/22-rdf-syntax-ns#"
   xmlns:svg="http://www.w3.org/2000/svg"
   xmlns="http://www.w3.org/2000/svg"
   xmlns:sodipodi="http://sodipodi.sourceforge.net/DTD/sodipodi-0.dtd"
   xmlns:inkscape="http://www.inkscape.org/namespaces/inkscape"
   width="297mm"
   height="210mm"
   viewBox="0 0 1052.3622 744.09448"
   id="svg7113"
   version="1.1"
   inkscape:version="0.91 r13725"
   sodipodi:docname="farm.svg">
  <defs
     id="defs7115" />
  <sodipodi:namedview
     id="base"
     pagecolor="#ffffff"
     bordercolor="#666666"
     borderopacity="1.0"
     inkscape:pageopacity="0.0"
     inkscape:pageshadow="2"
     inkscape:zoom="0.35"
     inkscape:cx="375"
     inkscape:cy="520"
     inkscape:document-units="px"
     inkscape:current-layer="layer1"
     showgrid="false"
     inkscape:window-width="1366"
     inkscape:window-height="744"
     inkscape:window-x="0"
     inkscape:window-y="24"
     inkscape:window-maximized="1" />
  <metadata
     id="metadata7118">
    <rdf:RDF>
      <cc:Work
         rdf:about="">
        <dc:format>image/svg+xml</dc:format>
        <dc:type
           rdf:resource="http://purl.org/dc/dcmitype/StillImage" />
        <dc:title></dc:title>
      </cc:Work>
    </rdf:RDF>
  </metadata>
  <g
     inkscape:label="Layer 1"
     inkscape:groupmode="layer"
     id="layer1"
     transform="translate(0,-308.26772)">
    <g
       id="g4239"
       transform="matrix(0.88156748,0,0,-0.94428785,-690.17719,981.73339)">
      <g
         transform="matrix(3.5369236,0,0,1.0865529,1580.9711,155.83483)"
         id="g4235">
        <path
           inkscape:connector-curvature="0"
           id="path4237"
           style="fill:#6e9360;fill-opacity:1;fill-rule:nonzero;stroke:none"
           d="m 0,0 c -0.462,-20.493 -65.327,-34.3 -124.942,-32.954 -59.616,1.345 -91.409,17.333 -90.946,37.826 0.462,20.492 49.165,36.015 108.781,34.67 C -47.491,38.196 0.462,20.492 0,0" />
      </g>
      <g
         transform="matrix(0.45134807,0,0,0.37523519,559.23843,-817.43309)"
         id="g3664">
        <path
           inkscape:connector-curvature="0"
           id="path86"
           style="fill:#ffffff;fill-opacity:1;fill-rule:nonzero;stroke:none"
           d="m 845.82573,3568.9882 -40.26589,-224.5435 c 82.60404,-12.8494 374.66976,-72.3587 449.29156,-282.2703 l 163.9811,0.017 0.3885,213.9913 -47.8903,292.8054 -525.50497,0" />
        <path
           inkscape:connector-curvature="0"
           id="path88"
           style="fill:#40302f;fill-opacity:1;fill-rule:nonzero;stroke:none"
           d="m 1080.4511,3143.8514 173.3505,0 c 9.5808,0 17.3382,18.5038 17.3382,41.3225 0,22.8187 -7.7574,41.319 -17.3382,41.319 l -173.3505,0 c -9.5808,0 -17.3416,-18.5003 -17.3416,-41.319 0,-22.8187 7.7608,-41.3225 17.3416,-41.3225" />
        <path
           inkscape:connector-curvature="0"
           id="path90"
           style="fill:#e79d14;fill-opacity:1;fill-rule:nonzero;stroke:none"
           d="m 2134.7228,2969.7544 7.2189,-16.8507 -19.7376,-197.9518 -433.3918,8.5821 c 0,0 -2.2495,238.971 178.0098,276.5307 180.2592,37.5596 248.6403,-41.4111 267.9007,-70.3103" />
        <path
           inkscape:connector-curvature="0"
           id="path92-3"
           style="fill:#e79d14;fill-opacity:1;fill-rule:nonzero;stroke:none"
           d="m 1221.7225,2768.3841 -564.35982,3.1083 4.81595,315.7502 c 0,0 198.3915,175.2933 413.16337,56.8304 214.7582,-118.4596 159.8707,-322.8089 146.3805,-375.6889" />
        <path
           inkscape:connector-curvature="0"
           id="path94"
           style="fill:#e79d14;fill-opacity:1;fill-rule:nonzero;stroke:none"
           d="m 1635.8539,3264.373 26.959,0 0,79.6095 -26.959,0 0,-79.6095 z" />
        <path
           inkscape:connector-curvature="0"
           id="path96"
           style="fill:#e79d14;fill-opacity:1;fill-rule:nonzero;stroke:none"
           d="m 1627.2308,3344.9355 c -0.4874,-0.5215 -0.2999,-0.9509 0.4226,-0.9509 l 42.6586,0 c 0.7089,0 0.8895,0.4294 0.3987,0.9509 l -13.6094,14.3183 c -0.501,0.5215 -1.4894,0.9407 -2.1983,0.9407 l -12.0928,0 c -0.7089,0 -1.6973,-0.4192 -2.1881,-0.9407 l -13.3913,-14.3183" />
        <path
           inkscape:connector-curvature="0"
           id="path98"
           style="fill:#40302f;fill-opacity:1;fill-rule:nonzero;stroke:none"
           d="m 1001.603,3232.8426 c 0,0 1.3872,3.2414 2.5665,8.7628 1.1622,5.5079 1.9904,13.2891 1.5098,22.4472 -0.2488,4.5808 -0.8691,9.4922 -1.6973,14.6728 -0.7907,5.1875 -1.6326,10.6476 -2.4915,16.3089 -1.75185,11.2985 -3.91954,23.3197 -6.08383,35.3511 -2.02113,12.0381 -4.70007,23.9979 -6.87799,35.2488 -2.51534,11.21 -4.72734,21.6905 -7.0075,30.6306 -2.12679,8.9604 -4.1786,16.3838 -5.59306,21.5985 -1.51329,5.1806 -2.379,8.1459 -2.379,8.1459 -2.71303,9.3388 -13.89572,14.8603 -24.97958,12.3722 -9.45468,-2.1473 -15.77371,-9.4411 -15.74303,-17.3143 0,0 0.017,-3.0675 0.0375,-8.4526 0.11929,-5.3511 0.25562,-13.0096 0.76006,-22.1609 0.35105,-9.1684 1.20654,-19.8194 1.97682,-31.2407 1.11111,-11.3906 1.94274,-23.5685 3.42536,-35.6783 1.34288,-12.12 2.68235,-24.2399 4.21269,-35.5794 0.78391,-5.6612 1.53374,-11.1418 2.24949,-16.3327 0.67825,-5.1977 1.48943,-10.0886 2.55283,-14.5671 2.14724,-8.9503 5.17042,-16.2611 7.8664,-21.3123 2.71302,-5.0511 4.97615,-7.8391 4.97615,-7.8391 7.09612,-8.7901 21.39743,-10.8998 31.93937,-4.7103 4.20245,2.471 7.17451,5.8793 8.77982,9.6489" />
        <path
           inkscape:connector-curvature="0"
           id="path100-6"
           style="fill:#776461;fill-opacity:1;fill-rule:nonzero;stroke:none"
           d="m 1470.9525,3238.463 c 1.6599,0.4294 3.1595,1.4417 4.1786,2.972 2.212,3.2993 1.3224,7.7608 -1.9802,9.9591 l -150.4296,100.4296 c -3.3197,2.2018 -7.7778,1.2986 -9.9694,-1.9802 -2.2086,-3.2993 -1.3224,-7.7608 1.9803,-9.9592 l 150.4398,-100.4295 c 1.7689,-1.1793 3.8685,-1.4826 5.7805,-0.9918" />
        <path
           inkscape:connector-curvature="0"
           id="path102"
           style="fill:#2d2020;fill-opacity:1;fill-rule:nonzero;stroke:none"
           d="m 611.88206,2850.8518 c 0,3.9195 0.0852,6.4519 0.0852,6.4519 0.0954,2.9005 -2.1745,5.5897 -5.04431,5.9884 l -11.80301,1.619 c -2.87322,0.3919 -4.90117,3.0709 -4.5058,5.9407 l 5.78733,42.1507 c 0.39536,2.8698 3.06748,4.9012 5.9407,4.5024 l 11.65645,-1.6019 c 2.87322,-0.3886 5.93048,1.5508 6.79619,4.3115 l 26.47242,67.1882 c 1.26108,2.6108 0.35788,6.1111 -2.0109,7.7812 l -9.82278,6.9393 c -2.36878,1.6701 -2.94138,4.9694 -1.2679,7.3416 l 24.53309,34.758 c 1.67008,2.3722 4.97615,2.9414 7.34493,1.2713 l 9.90799,-6.9905 c 2.36878,-1.6803 5.97819,-1.3599 8.01977,0.6988 l 54.34226,47.2495 c 2.32106,1.7416 3.12543,5.2727 1.78936,7.8425 l -5.74983,11.0975 c -1.33265,2.5699 -0.31697,5.7703 2.25631,7.1098 l 37.77441,19.5706 c 2.57328,1.3292 5.77028,0.3203 7.10294,-2.2495 l 5.80437,-11.1998 c 1.33265,-2.5801 4.68303,-3.9604 7.44377,-3.0709 l 69.76831,16.711 c 2.85958,0.4704 5.19768,3.2311 5.19768,6.1316 l 0,13.18 c 0,2.897 2.3722,5.2692 5.27268,5.2692 l 42.54605,0 c 2.89708,0 5.26927,-2.3722 5.26927,-5.2692 l 0,-13.3504 c 0,-2.8903 2.33129,-5.709 5.17723,-6.2509 l 86.93606,-24.5399 c 2.6994,-1.0395 6.1486,0.1295 7.6482,2.6108 l 7.2189,11.878 c 1.503,2.471 4.7614,3.272 7.2426,1.7723 l 36.36,-22.0927 c 2.4778,-1.5099 3.2788,-4.7683 1.7689,-7.2393 l -7.3006,-12.028 c -1.5099,-2.4812 -0.9509,-6.06 1.2406,-7.9618 l 50.2012,-50.3272 c 1.8984,-2.1916 5.4703,-2.7608 7.9482,-1.2509 l 12.3619,7.529 c 2.4779,1.5099 5.7397,0.7089 7.2393,-1.7587 l 22.1302,-36.3395 c 1.5099,-2.4813 0.709,-5.743 -1.7587,-7.2529 l -12.3722,-7.529 c -2.4778,-1.5099 -3.6196,-4.9387 -2.5392,-7.6312 l 21.4588,-67.5972 c 0.6817,-2.8119 3.5992,-4.9626 6.4895,-4.7615 l 14.7205,1.0089 c 2.8903,0.2011 5.4192,-2.0007 5.6203,-4.8909 l 2.921,-42.4473 c 0.201,-2.8902 -2.0007,-5.4192 -4.9012,-5.6203 l -14.6694,-1.0123 c -2.8903,-0.1976 -5.4908,-2.7198 -5.7703,-5.61 l -11.7587,-69.8979 c -0.6919,-2.8118 0.9202,-6.06 3.5787,-7.2086 l 13.4697,-5.8521 c 2.6619,-1.1486 3.8923,-4.2706 2.7301,-6.9291 l -16.9292,-39.0321 c -1.1486,-2.6584 -4.2706,-3.8888 -6.9291,-2.7402 l -13.2992,5.7702 c -2.6619,1.1521 -6.1214,0.1023 -7.6926,-2.3278 l -42.6483,-56.7724 c -1.9019,-2.1882 -1.9598,-5.818 -0.1329,-8.0573 l 9.0934,-11.1725 c 1.8268,-2.2495 1.4894,-5.5896 -0.7601,-7.4199 l -32.9925,-26.8575 c -2.2495,-1.8337 -5.5897,-1.4929 -7.42,0.76 l -8.8786,10.9066 c -1.8303,2.2529 -5.3818,2.9005 -7.8903,1.452 l -64.13776,-31.0498 c -2.69257,-1.0804 -4.41036,-4.2809 -3.82072,-7.12 l 2.80164,-13.4594 c 0.59304,-2.8392 -1.24745,-5.6408 -4.08658,-6.2305 l -41.65308,-8.6707 c -2.83572,-0.5897 -5.64418,1.2406 -6.23381,4.0797 l -2.74029,13.1698 c -0.58964,2.8391 -3.43559,4.9523 -6.32244,4.6898 0,0 -16.87118,-1.4996 -28.1868,-1.4996 -16.57466,0 -43.3811,3.4901 -43.3811,3.4901 -2.87662,0.3715 -5.86572,-1.6087 -6.64963,-4.4001 l -3.53102,-12.6211 c -0.78051,-2.788 -3.70485,-4.4274 -6.49626,-3.6469 l -40.97142,11.469 c -2.788,0.7805 -4.43422,3.6981 -3.65371,6.4895 l 3.42877,12.2495 c 0.77709,2.7914 -0.73279,6.0702 -3.36061,7.2904 l -62.85964,34.8603 c -2.42332,1.5883 -6.02591,1.1486 -8.00274,-0.9714 l -8.53102,-9.1275 c -1.98024,-2.1234 -5.33403,-2.2427 -7.45059,-0.2624 l -31.10092,29.0321 c -2.11998,1.9802 -2.23245,5.3272 -0.25563,7.4505 l 8.32994,8.9298 c 1.98023,2.1098 2.14383,5.7192 0.3681,8.0096 l -39.88076,60.0887 c -1.42808,2.5187 -4.82618,3.79 -7.55965,2.8187 l -11.30881,-4.0185 c -2.73006,-0.9713 -5.76006,0.4704 -6.73143,3.2005 l -14.25359,40.0886 c -0.97137,2.7301 0.46694,5.7601 3.20041,6.7314 l 11.10772,3.9503 c 2.73006,0.9714 4.51943,4.09 3.9741,6.9393 0,0 -7.86981,41.0294 -7.86981,65.3989" />
        <path
           inkscape:connector-curvature="0"
           id="path104"
           style="fill:#666a71;fill-opacity:1;fill-rule:nonzero;stroke:none"
           d="m 723.93398,2848.2444 c 0,-95.5113 77.43022,-172.9416 172.94498,-172.9416 95.51476,0 172.94154,77.4303 172.94154,172.9416 0,95.5182 -77.42678,172.9484 -172.94154,172.9484 -95.51476,0 -172.94498,-77.4302 -172.94498,-172.9484" />
        <path
           inkscape:connector-curvature="0"
           id="path106"
           style="fill:#a4a6a9;fill-opacity:1;fill-rule:nonzero;stroke:none"
           d="m 751.36414,2848.2444 c 0,-80.3614 65.15004,-145.5114 145.51482,-145.5114 80.36478,0 145.51144,65.15 145.51144,145.5114 0,80.3682 -65.14666,145.5182 -145.51144,145.5182 -80.36478,0 -145.51482,-65.15 -145.51482,-145.5182" />
        <path
           inkscape:connector-curvature="0"
           id="path108-7"
           style="fill:#34231c;fill-opacity:1;fill-rule:nonzero;stroke:none"
           d="m 845.31789,2848.2444 c 0,-28.4799 23.08455,-51.5611 51.56107,-51.5611 28.47992,0 51.56447,23.0812 51.56447,51.5611 0,28.4799 -23.08455,51.5679 -51.56447,51.5679 -28.47652,0 -51.56107,-23.088 -51.56107,-51.5679" />
        <path
           inkscape:connector-curvature="0"
           id="path110"
           style="fill:#a4a6a9;fill-opacity:1;fill-rule:nonzero;stroke:none"
           d="m 876.59945,2848.2444 c 0,-11.1997 9.07977,-20.2829 20.27951,-20.2829 11.19974,0 20.28291,9.0832 20.28291,20.2829 0,11.1997 -9.08317,20.2795 -20.28291,20.2795 -11.19974,0 -20.27951,-9.0798 -20.27951,-20.2795" />
        <path
           inkscape:connector-curvature="0"
           id="path112"
           style="fill:#2d2020;fill-opacity:1;fill-rule:nonzero;stroke:none"
           d="m 1744.961,2797.3446 c 0,2.9073 0.072,4.7784 0.072,4.7784 0.072,2.1507 -1.6224,4.1411 -3.739,4.4308 l -8.7525,1.1998 c -2.1302,0.2999 -3.6299,2.2801 -3.3402,4.4001 l 4.2911,31.2304 c 0.2897,2.1302 2.2699,3.6299 4.4001,3.3402 l 8.6401,-1.1895 c 2.1302,-0.2931 4.39,1.1486 5.0409,3.2004 l 19.6081,49.7785 c 0.9305,1.9291 0.2624,4.5297 -1.4894,5.7601 l -7.2802,5.1397 c -1.7485,1.2407 -2.1779,3.6912 -0.9407,5.4397 l 18.18,25.7601 c 1.2406,1.7519 3.681,2.1813 5.4397,0.9407 l 7.3415,-5.1807 c 1.7587,-1.2406 4.4308,-1.0088 5.9407,0.5079 l 40.2591,35.0136 c 1.7212,1.2884 2.321,3.9094 1.3292,5.8181 l -4.257,8.2208 c -0.9918,1.8985 -0.242,4.2706 1.6667,5.2591 l 27.9891,14.5024 c 1.9121,0.9884 4.274,0.2385 5.2624,-1.6701 l 4.3013,-8.2925 c 0.9885,-1.9086 3.4697,-2.9277 5.5181,-2.2801 l 51.6906,12.3824 c 2.12,0.3476 3.848,2.3995 3.848,4.5399 l 0,9.7682 c 0,2.1507 1.7621,3.9026 3.9025,3.9026 l 31.5304,0 c 2.1506,0 3.8991,-1.7519 3.8991,-3.9026 l 0,-9.8909 c 0,-2.1473 1.7314,-4.2297 3.8412,-4.6285 l 64.407,-18.18 c 2.0007,-0.7805 4.5535,0.089 5.6715,1.9291 l 5.3408,8.8003 c 1.1179,1.8405 3.5276,2.4301 5.3681,1.3122 l 26.9428,-16.3599 c 1.837,-1.1214 2.4199,-3.5311 1.3088,-5.3715 l -5.409,-8.9094 c -1.1214,-1.8303 -0.7022,-4.4922 0.9168,-5.8998 l 37.1916,-37.2802 c 1.411,-1.6292 4.0593,-2.0518 5.8896,-0.9305 l 9.1615,5.5794 c 1.8405,1.1112 4.2502,0.5317 5.3715,-1.3087 l 16.3872,-26.9224 c 1.1214,-1.8405 0.5317,-4.2501 -1.3088,-5.3681 l -9.1615,-5.5828 c -1.8405,-1.1179 -2.679,-3.6571 -1.878,-5.6476 l 15.8896,-50.0887 c 0.5078,-2.0927 2.6687,-3.6707 4.8193,-3.531 l 10.8999,0.7601 c 2.1404,0.1397 4.0218,-1.4895 4.1683,-3.6299 l 2.1609,-31.452 c 0.15,-2.1404 -1.4894,-4.0184 -3.6299,-4.1581 l -10.8691,-0.7498 c -2.1404,-0.15 -4.0593,-2.0212 -4.2706,-4.1616 l -8.7185,-51.7894 c -0.5112,-2.0791 0.6783,-4.4888 2.6483,-5.3409 l 9.9795,-4.3285 c 1.97,-0.8623 2.8903,-3.1698 2.0314,-5.1398 l -12.5495,-28.9196 c -0.8486,-1.97 -3.1595,-2.8834 -5.1295,-2.0313 l -9.85,4.2808 c -1.97,0.8487 -4.5399,0.068 -5.7021,-1.7314 l -31.5986,-42.0587 c -1.411,-1.6223 -1.4519,-4.3115 -0.099,-5.9713 l 6.7382,-8.2789 c 1.36,-1.6598 1.1009,-4.1411 -0.5589,-5.4908 l -24.4513,-19.9011 c -1.6599,-1.36 -4.1377,-1.1077 -5.4908,0.5623 l -6.5781,8.0777 c -1.3599,1.6701 -3.9911,2.1507 -5.8487,1.0703 l -47.5222,-22.9994 c -1.9904,-0.7907 -3.2685,-3.1697 -2.8289,-5.2692 l 2.0791,-9.9796 c 0.4295,-2.0995 -0.9305,-4.182 -3.03,-4.6217 l -30.8589,-6.4213 c -2.1098,-0.4362 -4.182,0.9339 -4.6217,3.0334 l -2.0279,9.7478 c -0.4397,2.1098 -2.5529,3.6708 -4.6933,3.4799 0,0 -12.4983,-1.1077 -20.8794,-1.1077 -12.2801,0 -32.1404,2.5767 -32.1404,2.5767 -2.1302,0.2829 -4.349,-1.1895 -4.9285,-3.2583 l -2.6107,-9.3388 c -0.5794,-2.0689 -2.7505,-3.2925 -4.8194,-2.7096 l -30.3511,8.4901 c -2.0688,0.5794 -3.289,2.7471 -2.7096,4.8193 l 2.5392,9.0696 c 0.5828,2.0688 -0.5385,4.499 -2.4881,5.409 l -46.5713,25.8214 c -1.7996,1.1793 -4.4615,0.8589 -5.9304,-0.7123 l -6.3191,-6.7792 c -1.469,-1.561 -3.9502,-1.6496 -5.5214,-0.1772 l -23.0369,21.5065 c -1.5712,1.4622 -1.6598,3.9502 -0.1908,5.5215 l 6.169,6.6087 c 1.4588,1.5712 1.5917,4.24 0.2693,5.9407 l -29.5502,44.5093 c -1.0497,1.8711 -3.5685,2.8118 -5.5998,2.0927 l -8.3709,-2.9721 c -2.0279,-0.7191 -4.2672,0.3408 -4.9897,2.3722 l -10.559,29.7001 c -0.7192,2.0177 0.3408,4.2604 2.3722,4.9796 l 8.2277,2.9277 c 2.0211,0.7226 3.3503,3.03 2.9413,5.1398 0,0 -5.8316,30.4022 -5.8316,48.4629" />
        <path
           inkscape:connector-curvature="0"
           id="path114"
           style="fill:#666a71;fill-opacity:1;fill-rule:nonzero;stroke:none"
           d="m 1827.9809,2795.412 c 0,-70.7703 57.3722,-128.1392 128.1426,-128.1392 70.7601,0 128.1289,57.3689 128.1289,128.1392 0,70.7602 -57.3688,128.1324 -128.1289,128.1324 -70.7704,0 -128.1426,-57.3722 -128.1426,-128.1324" />
        <path
           inkscape:connector-curvature="0"
           id="path116-5"
           style="fill:#a4a6a9;fill-opacity:1;fill-rule:nonzero;stroke:none"
           d="m 1847.381,2795.412 c 0,-60.058 48.681,-108.739 108.7425,-108.739 60.0477,0 108.7288,48.681 108.7288,108.739 0,60.0512 -48.6811,108.7425 -108.7288,108.7425 -60.0615,0 -108.7425,-48.6913 -108.7425,-108.7425" />
        <path
           inkscape:connector-curvature="0"
           id="path118"
           style="fill:#34231c;fill-opacity:1;fill-rule:nonzero;stroke:none"
           d="m 1917.9128,2795.412 c 0,-21.1009 17.1098,-38.2072 38.2107,-38.2072 21.0872,0 38.2004,17.1063 38.2004,38.2072 0,21.1009 -17.1132,38.2005 -38.2004,38.2005 -21.1009,0 -38.2107,-17.0996 -38.2107,-38.2005" />
        <path
           inkscape:connector-curvature="0"
           id="path120"
           style="fill:#a4a6a9;fill-opacity:1;fill-rule:nonzero;stroke:none"
           d="m 1941.0928,2795.412 c 0,-8.2992 6.728,-15.0272 15.0307,-15.0272 8.289,0 15.017,6.728 15.017,15.0272 0,8.3027 -6.728,15.0205 -15.017,15.0205 -8.3027,0 -15.0307,-6.7178 -15.0307,-15.0205" />
        <path
           inkscape:connector-curvature="0"
           id="path122"
           style="fill:#f1c91a;fill-opacity:1;fill-rule:nonzero;stroke:none"
           d="m 1212.1997,2763.2545 c 7.4199,26.9599 11.4519,55.3 11.4519,84.5877 0,177.202 -144.8808,320.8593 -323.59268,320.8593 -99.32526,0 -188.1529,-44.4173 -247.5122,-114.2571 l 0,47.4813 c 0.58623,30.4976 0.96797,35.2386 4.08658,37.2768 68.43566,44.7001 141.33962,62.3518 141.33962,62.3518 30.81803,8.5992 126.47935,18.0095 180.09222,7.6414 232.10656,-44.8807 281.21706,-260.6922 281.21706,-260.6922 l 162.7609,0 c 0,0 21.8576,146.3499 24.4684,177.4508 2.7914,33.33 -0.2693,36.8099 -0.2693,36.8099 l -5.8998,116.1385 490.2084,0 c 48.7901,0.092 55.7704,-50.2796 54.891,-68.7492 -1.9189,-40.3784 0,-134.9695 0,-134.9695 125.2013,-30.2318 155.0616,-89.4411 155.0616,-89.4411 l 1.4383,-30.0785 c -1.6394,1.0907 -1.4383,0.5999 -4.908,3.2209 -43.8208,49.1071 -107.8222,80.0989 -179.1515,80.0989 -132.1099,0 -239.2096,-106.1896 -239.2096,-237.1816 0,-13.1288 1.118,-25.9986 3.1902,-38.5481 l -509.6631,0" />
        <path
           inkscape:connector-curvature="0"
           id="path124-3"
           style="fill:#e79d14;fill-opacity:1;fill-rule:nonzero;stroke:none"
           d="m 1723.2125,2844.3419 c -2.9789,-14.2979 -4.5399,-29.0798 -4.5399,-44.2196 0,-12.5596 1.118,-24.8705 3.1902,-36.8678 l -509.6631,0 c 7.4199,25.7874 11.4519,52.9006 11.4519,80.9204 l 499.5609,0.167" />
        <path
           inkscape:connector-curvature="0"
           id="path126"
           style="fill:#fbed81;fill-opacity:1;fill-rule:nonzero;stroke:none"
           d="m 1967.9503,3151.1827 c 27.1541,7.9891 45.8726,25.9101 44.9899,45.8896 -0.9067,20.4704 -22.1098,36.9803 -50.8863,42.1405 l 5.8964,-88.0301" />
        <path
           inkscape:connector-curvature="0"
           id="path128"
           style="fill:#2d2020;fill-opacity:1;fill-rule:nonzero;stroke:none"
           d="m 1960.0226,3143.6537 c 0.3101,-4.2399 3.3504,-7.4812 6.8098,-7.229 l 7.0484,0.5078 c 3.4629,0.2522 6.0123,3.8923 5.7021,8.1425 l -7.3415,101.8201 c -0.3101,4.24 -3.3572,7.4779 -6.8098,7.2291 l -7.0586,-0.5113 c -3.4527,-0.2488 -6.0021,-3.8888 -5.6919,-8.1288 l 7.3415,-101.8304" />
        <path
           inkscape:connector-curvature="0"
           id="path130"
           style="fill:#e79d14;fill-opacity:1;fill-rule:nonzero;stroke:none"
           d="m 1745.3632,3278.9027 0,177.8495 c 0,4.2604 -7.0109,8.2822 -8.5106,11.5542 -3.7014,8.0437 -1.0395,35.4806 -1.0395,35.4806 l -27.2121,0 c 0,0 2.103,-27.4369 -1.5985,-35.4806 -1.4996,-3.272 -8.5105,-7.2938 -8.5105,-11.5542 l 0,-177.8495 46.8712,0" />
        <path
           inkscape:connector-curvature="0"
           id="path132-5"
           style="fill:#40302f;fill-opacity:1;fill-rule:nonzero;stroke:none"
           d="m 1273.9005,3290.675 c 3.8514,0.9782 7.3415,3.3777 9.6319,6.9905 l 62.0383,97.9176 c 4.7716,7.5392 2.5289,17.5085 -5.0001,22.2802 -7.5392,4.7716 -17.5289,2.5222 -22.2904,-4.9762 l -62.0382,-97.9346 c -4.7717,-7.529 -2.529,-17.5086 5,-22.2768 3.9196,-2.4915 8.5003,-3.0709 12.6585,-2.0007" />
        <path
           inkscape:connector-curvature="0"
           id="path134"
           style="fill:#e79d14;fill-opacity:1;fill-rule:nonzero;stroke:none"
           d="m 1527.8612,2969.7646 -17.4574,0 37.0689,191.5579 17.4711,0 -37.0826,-191.5579" />
        <path
           inkscape:connector-curvature="0"
           id="path136"
           style="fill:#e79d14;fill-opacity:1;fill-rule:nonzero;stroke:none"
           d="m 1561.7127,2969.7646 -17.4608,0 37.0688,191.5579 17.4711,0 -37.0791,-191.5579" />
        <path
           inkscape:connector-curvature="0"
           id="path138"
           style="fill:#e79d14;fill-opacity:1;fill-rule:nonzero;stroke:none"
           d="m 1595.5641,2969.7646 -17.4642,0 37.0825,191.5579 17.4608,0 -37.0791,-191.5579" />
        <path
           inkscape:connector-curvature="0"
           id="path140-6"
           style="fill:#e79d14;fill-opacity:1;fill-rule:nonzero;stroke:none"
           d="m 1629.4224,2969.7646 -17.4711,0 37.0791,191.5579 17.4608,0 -37.0688,-191.5579" />
        <path
           inkscape:connector-curvature="0"
           id="path142"
           style="fill:#e79d14;fill-opacity:1;fill-rule:nonzero;stroke:none"
           d="m 1663.2738,2969.7646 -17.4608,0 37.0689,191.5579 17.471,0 -37.0791,-191.5579" />
        <path
           inkscape:connector-curvature="0"
           id="path144"
           style="fill:#e79d14;fill-opacity:1;fill-rule:nonzero;stroke:none"
           d="m 1697.1218,2969.7646 -17.4608,0 37.0791,191.5579 17.4608,0 -37.0791,-191.5579" />
        <path
           inkscape:connector-curvature="0"
           id="path146"
           style="fill:#e79d14;fill-opacity:1;fill-rule:nonzero;stroke:none"
           d="m 1730.9733,2969.7646 -17.4609,0 37.0791,191.5579 17.4609,0 -37.0791,-191.5579" />
        <path
           inkscape:connector-curvature="0"
           id="path148-2"
           style="fill:#2d2020;fill-opacity:1;fill-rule:nonzero;stroke:none"
           d="m 1418.8325,3062.2733 -163.9811,0.061 c -74.6218,209.9082 -366.68752,269.5709 -449.29156,282.4202 l 40.26589,224.881 525.50497,0 47.8903,-293.1019 -0.3885,-214.2606 z m 19.7273,226.8305 -48.3879,302.2771 -562.72383,0 -0.62031,-3.2039 -0.007,0 -43.41177,-240.4433 c -0.0614,0.01 -0.0988,0.031 -0.0988,0.031 l -27.3245,-159.2095 c 404.65621,121.6702 503.29641,-239.5606 503.29641,-239.5606 l 190.7194,0 0,317.6793 c 0,0 -11.36,21.9189 -11.4418,22.4302" />
      </g>
    </g>
    <g
       id="g4348"
       transform="matrix(1.004675,0,0,-1.004675,432.90791,1091.6193)">
      <g
         transform="translate(525.31481,91.847725)"
         id="g226">
        <path
           inkscape:connector-curvature="0"
           id="path228"
           style="fill:#6e9360;fill-opacity:1;fill-rule:nonzero;stroke:none"
           d="m 0,0 c -0.462,-20.493 -65.327,-34.3 -124.942,-32.954 -59.616,1.345 -91.409,17.333 -90.946,37.826 0.462,20.492 49.165,36.015 108.781,34.67 C -47.491,38.196 0.462,20.492 0,0" />
      </g>
      <g
         transform="translate(335.06531,110.46103)"
         id="g230">
        <path
           inkscape:connector-curvature="0"
           id="path232"
           style="fill:#6e9360;fill-opacity:1;fill-rule:nonzero;stroke:none"
           d="m 0,0 c 0,-8.257 -25.997,-14.406 -50.018,-14.406 -24.022,0 -36.97,6.149 -36.97,14.406 0,8.258 19.472,14.952 43.494,14.952 C -19.472,14.952 0,8.258 0,0" />
      </g>
      <g
         transform="translate(351.80021,376.05872)"
         id="g234">
        <path
           inkscape:connector-curvature="0"
           id="path236"
           style="fill:#1c3047;fill-opacity:1;fill-rule:nonzero;stroke:none"
           d="m 0,0 c 0,0 -4.553,11.952 -5.692,15.936 -1.139,3.985 -3.985,6.262 13.66,9.106 17.645,2.848 0,0 0,0 L 0,0 Z" />
      </g>
      <g
         transform="translate(480.43591,364.67292)"
         id="g238">
        <path
           inkscape:connector-curvature="0"
           id="path240"
           style="fill:#1c3047;fill-opacity:1;fill-rule:nonzero;stroke:none"
           d="M 0,0 C 0,0 6.83,16.509 7.969,18.783 9.107,21.061 1.708,25.615 -8.538,25.046 -18.783,24.476 0,0 0,0" />
      </g>
      <g
         transform="translate(430.76991,222.97182)"
         id="g242">
        <path
           inkscape:connector-curvature="0"
           id="path244"
           style="fill:#261912;fill-opacity:1;fill-rule:nonzero;stroke:none"
           d="m 0,0 c 0,0 1.536,-51.372 1.544,-58.591 0.009,-7.22 3.56,-44.103 2.967,-48.254 -1.091,-8.583 4.725,-9.715 10.293,-12.283 5.567,-2.564 5.683,-4.902 12.474,-13.232 6.791,-8.329 28.476,-12.577 34.91,-5.693 0,0 5.448,12.606 -3.296,19.896 -8.744,7.291 -28.563,20.847 -27.483,34.471 1.08,13.623 10.642,59.107 10.373,83.437 L 0,0 Z" />
      </g>
      <g
         transform="translate(430.76991,222.97182)"
         id="g246">
        <path
           inkscape:connector-curvature="0"
           id="path248"
           style="fill:#493227;fill-opacity:1;fill-rule:nonzero;stroke:none"
           d="m 0,0 c 0,0 1.536,-51.372 1.544,-58.591 0.009,-7.22 3.56,-44.103 2.967,-48.254 -0.594,-4.149 6.352,-6.939 11.919,-9.506 5.568,-2.566 6.227,-4.5 13.017,-12.831 6.791,-8.328 27.535,-11.293 33.97,-4.407 0,0 4.219,8.142 -4.525,15.432 -8.744,7.291 -28.563,20.847 -27.483,34.471 1.08,13.623 10.642,59.107 10.373,83.437 L 0,0 Z" />
      </g>
      <g
         transform="translate(459.94521,105.69443)"
         id="g250">
        <path
           inkscape:connector-curvature="0"
           id="path252"
           style="fill:#5b4035;fill-opacity:1;fill-rule:nonzero;stroke:none"
           d="m 0,0 c 1.375,2.942 10.834,1.565 15.771,-0.741 4.936,-2.306 7.824,-6.561 6.448,-9.505 -1.374,-2.942 -6.492,-3.459 -11.428,-1.153 C 5.854,-9.092 -1.375,-2.944 0,0" />
      </g>
      <g
         transform="translate(440.27671,141.23932)"
         id="g254">
        <path
           inkscape:connector-curvature="0"
           id="path256"
           style="fill:#5b4035;fill-opacity:1;fill-rule:nonzero;stroke:none"
           d="M 0,0 C 1.883,0.167 4.411,-10.006 4.966,-16.148 5.521,-22.286 4.443,-27.405 2.56,-27.572 0.676,-27.74 -1.3,-22.897 -1.854,-16.755 -2.409,-10.613 -1.884,-0.168 0,0" />
      </g>
      <g
         transform="translate(395.59611,222.97182)"
         id="g258">
        <path
           inkscape:connector-curvature="0"
           id="path260"
           style="fill:#261912;fill-opacity:1;fill-rule:nonzero;stroke:none"
           d="m 0,0 c 0,0 -1.535,-51.372 -1.544,-58.591 -0.009,-7.22 -3.56,-44.103 -2.966,-48.254 1.091,-8.583 -4.726,-9.715 -10.293,-12.283 -5.568,-2.564 -6.739,-5.473 -13.53,-13.802 -6.791,-8.328 -27.433,-11.534 -33.867,-4.648 0,0 -5.436,12.131 3.308,19.423 8.744,7.289 28.563,20.845 27.483,34.469 -1.08,13.623 -10.641,59.107 -10.373,83.437 L 0,0 Z" />
      </g>
      <g
         transform="translate(395.59611,222.97182)"
         id="g262">
        <path
           inkscape:connector-curvature="0"
           id="path264"
           style="fill:#493227;fill-opacity:1;fill-rule:nonzero;stroke:none"
           d="m 0,0 c 0,0 -1.535,-51.372 -1.544,-58.591 -0.009,-7.22 -3.56,-44.103 -2.966,-48.254 0.593,-4.149 -6.352,-6.939 -11.92,-9.506 -5.567,-2.566 -6.226,-4.5 -13.017,-12.831 -6.791,-8.328 -27.535,-11.293 -33.97,-4.407 0,0 -4.219,8.142 4.525,15.434 8.744,7.289 28.563,20.845 27.483,34.469 -1.08,13.623 -10.641,59.107 -10.373,83.437 L 0,0 Z" />
      </g>
      <g
         transform="translate(353.72501,111.56363)"
         id="g266">
        <path
           inkscape:connector-curvature="0"
           id="path268"
           style="fill:#5b4035;fill-opacity:1;fill-rule:nonzero;stroke:none"
           d="m 0,0 c -1.592,2.831 -8.729,-4.336 -13.477,-7.007 -4.749,-2.673 -7.307,-7.133 -5.714,-9.966 1.592,-2.83 6.733,-2.959 11.483,-0.288 C -2.96,-14.59 1.593,-2.832 0,0" />
      </g>
      <g
         transform="translate(361.15131,207.25202)"
         id="g270">
        <path
           inkscape:connector-curvature="0"
           id="path272"
           style="fill:#5b4035;fill-opacity:1;fill-rule:nonzero;stroke:none"
           d="m 0,0 c -1.869,-0.282 -1.923,-10.765 -1.01,-16.862 0.91,-6.1 3.167,-10.818 5.037,-10.535 1.869,0.283 2.645,5.456 1.732,11.553 C 4.848,-9.744 1.869,0.283 0,0" />
      </g>
      <g
         transform="translate(361.28651,407.17492)"
         id="g274">
        <path
           inkscape:connector-curvature="0"
           id="path276"
           style="fill:#d6a494;fill-opacity:1;fill-rule:nonzero;stroke:none"
           d="m 0,0 c 0,0 -18.76,-13.141 -80.99,6.592 l -5.905,15.416 8.348,2.656 c 0,0 11.001,-5.854 29.218,-5.55 8.537,0.142 19.874,4.981 27.463,4.981 7.589,0 22.246,-3.986 22.246,-3.986 L 0,0 Z" />
      </g>
      <g
         transform="translate(506.03901,430.29312)"
         id="g278">
        <path
           inkscape:connector-curvature="0"
           id="path280"
           style="fill:#e5b5a1;fill-opacity:1;fill-rule:nonzero;stroke:none"
           d="m 0,0 c 0,0 11.405,-54.783 10.627,-90.704 0,0 -0.402,-4.006 3.26,-9.834 3.661,-5.829 8.01,-21.315 2.775,-25.521 0,0 -1.588,-2.914 -6.67,-3.979 0,0 -1.327,-2.336 -4.466,-2.183 0,0 -3.34,-8.684 -8.756,-1.791 0,0 -2.003,13.874 -2.904,14.976 0,0 -1.87,-9.762 -5.247,-10.757 -3.377,-0.997 -5.688,-0.239 -3.769,8.387 1.919,8.626 2.012,13.186 3.268,17.226 1.255,4.041 6.349,11.66 5.495,18.462 -0.854,6.799 -6.854,48.137 -17.342,67.351 L -24.738,-1.034 0,0 Z" />
      </g>
      <g
         transform="translate(456.53021,533.43862)"
         id="g282">
        <path
           inkscape:connector-curvature="0"
           id="path284"
           style="fill:#820915;fill-opacity:1;fill-rule:nonzero;stroke:none"
           d="m 0,0 c 0,0 36.144,0.854 46.104,-28.175 9.961,-29.029 17.645,-83.67 17.645,-83.67 0,0 -16.223,-13.092 -39.274,-10.816 l -3.7,-35.573 -116.683,23.906 c 0,0 -2.846,19.352 -1.138,28.174 0,0 -29.598,3.416 -38.42,0.285 0,0 9.508,58.542 15.937,70.864 6.83,13.09 8.254,27.036 48.666,37.281 L 0,0 Z" />
      </g>
      <g
         transform="translate(272.30311,490.29012)"
         id="g742">
        <path
           inkscape:connector-curvature="0"
           id="path744"
           style="fill:#664834;fill-opacity:1;fill-rule:nonzero;stroke:none"
           d="m 0,0 11.36,-379.127 c 10.244,-10.814 17.536,1.049 17.536,1.049 0,11.952 -16.563,381.968 -16.563,381.968 0,0 -1.422,45.535 -11.099,49.804 0,0 27.32,-5.408 27.036,13.66 -0.285,19.068 23.621,99.039 24.475,101.884 0.854,2.846 -1.139,4.838 -3.984,-0.854 -2.846,-5.692 -14.04,-36.522 -26.183,-96.855 -0.903,-4.486 -2.941,-14.23 -17.455,-10.246 0,0 -4.128,51.162 18.593,113.647 0.305,0.839 0.894,2.208 1.067,3.415 0.475,3.298 -0.996,4.767 -4.482,-2.845 C 14.789,163.463 -0.569,135.277 -2.465,63.18 l -11.384,1.328 c 0,0 -10.436,45.156 13.091,114.976 0.341,1.011 0.618,2.32 0.783,4.198 0.311,3.576 -0.289,6.859 -4.767,-1.352 -6.83,-12.522 -25.898,-83.528 -16.791,-117.68 0,0 -15.795,0 -19.21,14.23 -4.161,17.335 -1.138,75.986 9.818,106.864 0.138,0.389 0.923,2.272 1.139,3.914 0.384,2.937 -2.04,3.771 -5.123,-1.637 C -41.4,176.638 -61.472,74.184 -40.412,62.8 -19.352,51.417 -7.019,60.523 -3.035,39.464 0.95,18.404 0,0 0,0" />
      </g>
      <g
         transform="translate(453.68451,478.79602)"
         id="g286">
        <path
           inkscape:connector-curvature="0"
           id="path288"
           style="fill:#2b4164;fill-opacity:1;fill-rule:nonzero;stroke:none"
           d="m 0,0 c 0,0 -64.104,-2.703 -75.204,2.989 0,0 -8.846,-38.942 -14.918,-53.74 -6.07,-14.8 -9.485,-27.324 -10.623,-39.846 0,0 -5.692,-14.798 -2.657,-28.838 0,0 -1.897,-63.558 4.363,-78.358 0,0 0.57,-1.706 -0.569,-5.691 -1.138,-3.984 0.569,-9.676 2.277,-13.09 1.708,-3.417 -18.214,-4.555 -12.522,-18.215 l 5.692,-13.661 c 0,0 -5.123,-10.815 0.569,-12.523 5.692,-1.707 33.582,-8.538 42.12,0 8.538,8.539 15.937,7.4 13.66,23.907 -2.276,16.506 7.969,62.042 7.969,62.042 0,0 5.123,2.846 6.83,-16.508 1.708,-19.351 -19.352,-43.826 9.107,-52.364 0,0 -6.83,-17.077 2.277,-20.492 9.107,-3.414 43.827,-5.691 44.396,5.693 0,0 13.091,14.23 1.708,27.889 -11.384,13.662 -3.415,25.615 -3.415,25.615 0,0 11.383,67.164 8.538,84.807 0,0 1.707,11.386 -5.123,19.353 -6.83,7.968 0.569,16.507 -8.537,43.259 C 6.83,-31.02 7.399,-14.514 0,0" />
      </g>
      <g
         transform="translate(380.40171,475.23892)"
         id="g290">
        <path
           inkscape:connector-curvature="0"
           id="path292"
           style="fill:#d6b778;fill-opacity:1;fill-rule:nonzero;stroke:none"
           d="m 0,0 c 0,-1.493 1.402,-3.558 3.13,-3.558 1.729,0 3.984,1.353 3.984,2.847 0,1.493 -2.255,3.415 -3.984,3.415 C 1.402,2.704 0,1.493 0,0" />
      </g>
      <g
         transform="translate(461.24701,486.20662)"
         id="g294">
        <path
           inkscape:connector-curvature="0"
           id="path296"
           style="fill:#d6b778;fill-opacity:1;fill-rule:nonzero;stroke:none"
           d="m 0,0 c -2.365,1.425 -4.808,2.663 -7.311,3.828 -1.221,0.57 -2.45,1.127 -3.722,1.576 -3.563,1.26 -0.893,-3.407 -0.525,-3.966 0.934,-1.418 1.377,-2.347 1.066,-3.984 -0.69,-3.632 -5.456,-0.943 -4.481,-7.161 0.557,-3.56 8.817,-5.84 8.959,-1.068 0.043,1.421 -0.392,2.917 -0.065,4.327 0.786,3.389 7.435,2.978 5.883,6.703 -0.211,0.508 0.615,0.728 0.824,0.227 0.754,-1.813 0.242,-3.102 -1.249,-4.399 -1.703,-1.484 -4.384,-0.251 -4.685,-3.316 -0.137,-1.383 0.168,-2.807 0.126,-4.198 -0.156,-5.232 -7.657,-2.361 -9.698,-0.235 -1.623,1.692 -1.147,4.095 -0.086,5.884 1.269,2.139 4.727,3.618 2.669,6.788 -0.729,1.124 -1.321,2.171 -1.629,3.481 C -15.185,9.833 -0.375,1.223 0.432,0.737 0.902,0.454 0.473,-0.285 0,0" />
      </g>
      <g
         transform="translate(372.74841,489.97912)"
         id="g298">
        <path
           inkscape:connector-curvature="0"
           id="path300"
           style="fill:#d6b778;fill-opacity:1;fill-rule:nonzero;stroke:none"
           d="m 0,0 c 1.296,0.61 16.463,7.354 14.717,2.323 -0.384,-1.106 -0.934,-2.04 -1.68,-2.953 -3.551,-4.348 0.434,-4.785 1.63,-7.37 1.074,-2.322 0.877,-4.347 -0.989,-6.179 -2.8,-2.749 -9.621,-2.887 -9.257,2.131 0.103,1.411 0.505,2.756 0.512,4.185 0.012,2.792 -3.068,1.8 -4.294,3.113 -1.4,1.498 -1.759,2.813 -0.792,4.597 0.262,0.484 1,0.053 0.737,-0.432 -2.166,-3.995 4.721,-3.461 5.122,-6.637 0.183,-1.453 -0.107,-2.826 -0.351,-4.256 -0.975,-5.711 6.783,-3.649 8.706,-0.953 2.21,3.099 -2.312,5.72 -3.439,7.923 -0.546,1.068 0.179,2.258 0.716,3.124 0.371,0.6 1.05,1.299 1.476,1.857 1.397,1.831 -0.523,3.167 -2.26,2.653 C 7.099,2.107 3.687,0.794 0.431,-0.738 -0.064,-0.97 -0.498,-0.235 0,0" />
      </g>
      <g
         transform="translate(445.52581,474.10072)"
         id="g302">
        <path
           inkscape:connector-curvature="0"
           id="path304"
           style="fill:#c1a77c;fill-opacity:1;fill-rule:nonzero;stroke:none"
           d="m 0,0 c 0,-1.493 1.402,-3.558 3.131,-3.558 1.728,0 4.459,1.922 4.459,3.415 0,1.494 -2.731,2.846 -4.459,2.846 C 1.402,2.703 0,1.493 0,0" />
      </g>
      <g
         transform="translate(414.17621,442.60902)"
         id="g306">
        <path
           inkscape:connector-curvature="0"
           id="path308"
           style="fill:#e2c48f;fill-opacity:1;fill-rule:nonzero;stroke:none"
           d="M 0,0 C -0.811,-0.933 -1.056,-2.983 0.023,-3.921 1.103,-4.86 3.851,-5.142 4.661,-4.208 5.472,-3.277 4.502,-0.951 3.423,-0.01 2.344,0.928 0.811,0.932 0,0" />
      </g>
      <g
         transform="translate(460.23041,486.48062)"
         id="g310">
        <path
           inkscape:connector-curvature="0"
           id="path312"
           style="fill:#2b4164;fill-opacity:1;fill-rule:nonzero;stroke:none"
           d="m 0,0 -11.1,4.837 c 0,0 10.056,35.48 7.21,43.164 L 8.822,46.104 C 8.822,46.104 6.83,18.214 0,0" />
      </g>
      <g
         transform="translate(385.09751,492.13682)"
         id="g314">
        <path
           inkscape:connector-curvature="0"
           id="path316"
           style="fill:#2b4164;fill-opacity:1;fill-rule:nonzero;stroke:none"
           d="m 0,0 c 0,0 -9.748,-3.807 -11.456,-3.807 0,0 -4.576,32.491 -2.869,43.874 l 11.384,2.468 C -2.941,42.535 -4.839,25.898 0,0" />
      </g>
      <g
         transform="translate(439.83491,549.84922)"
         id="g318">
        <path
           inkscape:connector-curvature="0"
           id="path320"
           style="fill:#aa0811;fill-opacity:1;fill-rule:nonzero;stroke:none"
           d="m 0,0 c 0,0 16.127,-3.795 22.198,-24.285 0,0 0.569,-1.898 -1.518,-1.708 -2.086,0.19 -10.246,4.174 -15.368,0 L -4.173,-20.301 0,0 Z" />
      </g>
      <g
         transform="translate(402.45741,554.21352)"
         id="g322">
        <path
           inkscape:connector-curvature="0"
           id="path324"
           style="fill:#aa0811;fill-opacity:1;fill-rule:nonzero;stroke:none"
           d="m 0,0 c 0,0 -21.06,-11.1 -27.036,-33.013 0,0 -0.664,-1.162 2.276,0.284 3.797,1.868 9.392,1.993 16.507,-0.284 L 4.554,-19.921 0,0 Z" />
      </g>
      <path
         style="fill:#a05a2c;stroke:none;stroke-width:0.80000001;stroke-miterlimit:4;stroke-dasharray:none"
         d="m 420.23678,681.8127 100.63447,-37.31805 c -60.05689,-37.42792 -148.51991,-25.8164 -204.81756,-0.0743 z"
         id="path5673"
         inkscape:connector-curvature="0"
         sodipodi:nodetypes="cccc" />
      <g
         transform="translate(452.53991,601.60852)"
         id="g530">
        <path
           inkscape:connector-curvature="0"
           id="path532"
           style="fill:#f4cab5;fill-opacity:1;fill-rule:nonzero;stroke:none"
           d="M 0,0 C 0,0 2.91,-9.715 8.58,-0.317 11.54,4.586 15.125,4.072 18.639,12.971 24.261,27.205 5.351,40.656 1.48,17.399 -1.255,0.949 0,0 0,0" />
      </g>
      <g
         transform="translate(456.45641,607.74962)"
         id="g534">
        <path
           inkscape:connector-curvature="0"
           id="path536"
           style="fill:#e5af98;fill-opacity:1;fill-rule:nonzero;stroke:none"
           d="M 0,0 C 0,0 1.513,-5.049 4.459,-0.165 5.998,2.385 7.862,2.119 9.687,6.743 12.608,14.141 2.78,21.131 0.769,9.044 -0.655,0.492 0,0 0,0" />
      </g>
      <g
         transform="translate(456.45641,607.74962)"
         id="g538">
        <path
           inkscape:connector-curvature="0"
           id="path540"
           style="fill:#cc9785;fill-opacity:1;fill-rule:nonzero;stroke:none"
           d="M 0,0 C 0,0 0.83,-2.803 3.777,2.083 5.315,4.631 3.287,21.153 0.812,9.141 -0.938,0.648 0,0 0,0" />
      </g>
      <g
         transform="translate(387.93641,602.50352)"
         id="g542">
        <path
           inkscape:connector-curvature="0"
           id="path544"
           style="fill:#f4cab5;fill-opacity:1;fill-rule:nonzero;stroke:none"
           d="m 0,0 c 0,0 -2.911,-9.715 -8.58,-0.316 -2.961,4.902 -6.545,4.388 -10.06,13.287 -5.622,14.235 13.289,27.685 17.161,4.427 C 1.255,0.949 0,0 0,0" />
      </g>
      <g
         transform="translate(384.01991,608.64512)"
         id="g546">
        <path
           inkscape:connector-curvature="0"
           id="path548"
           style="fill:#e5af98;fill-opacity:1;fill-rule:nonzero;stroke:none"
           d="m 0,0 c 0,0 -1.512,-5.049 -4.46,-0.166 -1.536,2.55 -3.402,2.285 -5.227,6.908 -2.921,7.399 6.907,14.389 8.917,2.302 C 0.654,0.492 0,0 0,0" />
      </g>
      <g
         transform="translate(384.01991,608.64512)"
         id="g550">
        <path
           inkscape:connector-curvature="0"
           id="path552"
           style="fill:#cc9785;fill-opacity:1;fill-rule:nonzero;stroke:none"
           d="M 0,0 C 0,0 -0.83,-2.802 -3.777,2.083 -5.315,4.631 -3.358,20.946 -0.832,9.345 1.011,0.874 0,0 0,0" />
      </g>
      <g
         transform="translate(449.51411,611.56162)"
         id="g554">
        <path
           inkscape:connector-curvature="0"
           id="path556"
           style="fill:#e5af98;fill-opacity:1;fill-rule:nonzero;stroke:none"
           d="M 0,0 C -0.509,0.068 -1.139,0.492 -1.076,0.845 -1.014,1.197 -0.55,1.426 -0.041,1.359 0.467,1.291 0.829,0.949 0.766,0.598 0.703,0.245 0.509,-0.069 0,0" />
      </g>
      <g
         transform="translate(443.33391,608.14072)"
         id="g558">
        <path
           inkscape:connector-curvature="0"
           id="path560"
           style="fill:#e5af98;fill-opacity:1;fill-rule:nonzero;stroke:none"
           d="M 0,0 C -0.51,0.068 -1.14,0.492 -1.076,0.845 -1.014,1.197 -0.55,1.426 -0.041,1.358 0.467,1.29 0.829,0.948 0.766,0.597 0.703,0.245 0.508,-0.069 0,0" />
      </g>
      <g
         transform="translate(392.92231,588.86142)"
         id="g562">
        <path
           inkscape:connector-curvature="0"
           id="path564"
           style="fill:#e5b5a1;fill-opacity:1;fill-rule:nonzero;stroke:none"
           d="m 0,0 c 0,0 9.663,-49.217 11.154,-57.273 1.691,-9.129 20.518,-37.682 33.866,-0.238 0,0 6.597,51.542 7.791,56.317 L 0,0 Z" />
      </g>
      <g
         transform="translate(427.79771,571.57632)"
         id="g566">
        <path
           inkscape:connector-curvature="0"
           id="path568"
           style="fill:#d6a494;fill-opacity:1;fill-rule:nonzero;stroke:none"
           d="m 0,0 c 0,0 10.595,-15.996 0.45,-44.294 0,0 -6.7,-12.777 -11.487,-8.089 0,0 -11.487,48.782 1.959,53.208 L 0,0 Z" />
      </g>
      <g
         transform="translate(382.03071,652.86242)"
         id="g570">
        <path
           inkscape:connector-curvature="0"
           id="path572"
           style="fill:#e5b5a1;fill-opacity:1;fill-rule:nonzero;stroke:none"
           d="m 0,0 c -4.684,-7.406 2.313,-24.838 3.208,-34.909 0.895,-10.07 2.463,-13.875 2.463,-13.875 0,0 4.026,-28.643 15.439,-29.762 l 7.384,-2.909 c 0,0 8.506,-4.252 23.051,0.447 0,0 1.79,0.896 5.37,5.148 l 4.7,4.252 c 0,0 6.594,7.201 9.622,27.972 l 4.997,19.915 -0.745,16.561 c 0,0 -2.657,9.572 -4.778,12.957 C 67.019,11.69 55.533,17.655 38.457,17.465 22.597,17.288 22.216,15.337 16.259,12.721 8.48,9.307 2.006,3.171 0,0" />
      </g>
      <g
         transform="translate(396.44521,627.15832)"
         id="g574">
        <path
           inkscape:connector-curvature="0"
           id="path576"
           style="fill:#d9dadb;fill-opacity:1;fill-rule:nonzero;stroke:none"
           d="M 0,0 C 0,0 8.376,10.219 15.108,2.732 15.616,2.165 16.073,0.803 16.073,0.803 16.073,0.803 7.07,-1.929 0,0" />
      </g>
      <g
         transform="translate(404.76241,631.22372)"
         id="g578">
        <path
           inkscape:connector-curvature="0"
           id="path580"
           style="fill:#4c3e22;fill-opacity:1;fill-rule:nonzero;stroke:none"
           d="M 0,0 C 0.556,2.353 3.377,2.529 4.971,2.042 6.564,1.553 7.631,0.532 7.074,-1.692 6.67,-3.327 4.252,-4.444 2.659,-3.958 1.066,-3.469 -0.391,-1.646 0,0" />
      </g>
      <g
         transform="translate(409.64671,629.45812)"
         id="g582">
        <path
           inkscape:connector-curvature="0"
           id="path584"
           style="fill:#1a171b;fill-opacity:1;fill-rule:nonzero;stroke:none"
           d="M 0,0 C -0.357,-0.755 -1.381,-0.752 -2.122,-0.361 -2.854,0.037 -2.831,0.89 -2.584,1.417 -2.337,1.943 -1.338,2.155 -0.83,1.879 -0.313,1.603 0.347,0.757 0,0" />
      </g>
      <g
         transform="translate(409.97871,630.56452)"
         id="g586">
        <path
           inkscape:connector-curvature="0"
           id="path588"
           style="fill:#ffffff;fill-opacity:1;fill-rule:nonzero;stroke:none"
           d="M 0,0 C -0.19,-0.408 -0.882,-0.4 -1.282,-0.189 -1.678,0.026 -1.792,0.513 -1.6,0.926 -1.411,1.332 -0.836,1.47 -0.441,1.256 -0.041,1.043 0.187,0.407 0,0" />
      </g>
      <g
         transform="translate(396.44521,627.18372)"
         id="g590">
        <path
           inkscape:connector-curvature="0"
           id="path592"
           style="fill:#cc9785;fill-opacity:1;fill-rule:nonzero;stroke:none"
           d="M 0,0 C 8.357,-20.41 16.073,0.804 16.073,0.804 16.073,0.804 7.07,-1.929 0,0" />
      </g>
      <g
         transform="translate(409.35581,638.53962)"
         id="g594">
        <path
           inkscape:connector-curvature="0"
           id="path596"
           style="fill:#d6a494;fill-opacity:1;fill-rule:nonzero;stroke:none"
           d="m 0,0 c -10.986,2.044 -12.911,-11.381 -12.911,-11.381 0,0 8.376,10.218 15.109,2.732 0.507,-0.568 0.965,-1.929 0.965,-1.929 0,0 3.066,9.42 -3.163,10.578" />
      </g>
      <g
         transform="translate(431.13861,627.73302)"
         id="g598">
        <path
           inkscape:connector-curvature="0"
           id="path600"
           style="fill:#d9dadb;fill-opacity:1;fill-rule:nonzero;stroke:none"
           d="M 0,0 C 0,0 2.782,3.896 4.791,3.652 9.273,3.114 13.453,2.347 15.244,-1.452 15.244,-1.452 6.389,-2.032 0,0" />
      </g>
      <g
         transform="translate(439.10801,629.07932)"
         id="g602">
        <path
           inkscape:connector-curvature="0"
           id="path604"
           style="fill:#4c3e22;fill-opacity:1;fill-rule:nonzero;stroke:none"
           d="M 0,0 C 0.504,2.125 3.053,2.285 4.493,1.845 5.931,1.403 6.896,0.482 6.392,-1.527 6.026,-3.005 3.841,-4.014 2.403,-3.576 0.965,-3.134 -0.35,-1.487 0,0" />
      </g>
      <g
         transform="translate(443.52061,627.48462)"
         id="g606">
        <path
           inkscape:connector-curvature="0"
           id="path608"
           style="fill:#1a171b;fill-opacity:1;fill-rule:nonzero;stroke:none"
           d="m 0,0 c -0.322,-0.681 -1.477,-0.672 -2.147,-0.319 -0.663,0.36 -0.85,1.179 -0.532,1.862 0.321,0.684 1.282,0.92 1.943,0.562 C -0.065,1.746 0.314,0.684 0,0" />
      </g>
      <g
         transform="translate(444.16371,628.32732)"
         id="g610">
        <path
           inkscape:connector-curvature="0"
           id="path612"
           style="fill:#ffffff;fill-opacity:1;fill-rule:nonzero;stroke:none"
           d="m 0,0 c -0.172,-0.37 -0.797,-0.363 -1.158,-0.172 -0.357,0.193 -0.461,0.635 -0.287,1.007 0.17,0.367 0.69,0.491 1.047,0.299 C -0.038,0.941 0.17,0.368 0,0" />
      </g>
      <g
         transform="translate(436.14051,631.67002)"
         id="g614">
        <path
           inkscape:connector-curvature="0"
           id="path616"
           style="fill:#d6a494;fill-opacity:1;fill-rule:nonzero;stroke:none"
           d="m 0,0 c 5.153,0.073 9.226,-3.357 10.242,-5.389 -0.251,1.91 1.442,9.05 -8.898,10.527 -10.555,1.538 -6.346,-9.075 -6.346,-9.075 0,0 2.782,3.904 5.002,3.937" />
      </g>
      <g
         transform="translate(431.13171,627.73302)"
         id="g618">
        <path
           inkscape:connector-curvature="0"
           id="path620"
           style="fill:#cc9785;fill-opacity:1;fill-rule:nonzero;stroke:none"
           d="M 0,0 C 6.968,-20.761 15.243,-1.452 15.243,-1.452 15.243,-1.452 6.388,-2.032 0,0" />
      </g>
      <g
         transform="translate(440.67271,646.61392)"
         id="g622">
        <path
           inkscape:connector-curvature="0"
           id="path624"
           style="fill:#f6f6f6;fill-opacity:1;fill-rule:nonzero;stroke:none"
           d="m 0,0 c -4.93,2.413 -9.054,0.427 -10.115,0.021 -1.044,-0.401 -1.187,-0.66 -1.011,-1.607 0.174,-0.946 1.154,-1.943 1.715,-2.047 0.332,-0.058 6.495,1.835 9.16,0.469 C 2.926,-4.792 7.166,-6.863 7.558,-6.662 8.266,-6.298 2.322,-1.133 0,0" />
      </g>
      <g
         transform="translate(401.85981,645.79112)"
         id="g626">
        <path
           inkscape:connector-curvature="0"
           id="path628"
           style="fill:#f6f6f6;fill-opacity:1;fill-rule:nonzero;stroke:none"
           d="M 0,0 C 4.242,2.825 9.042,1.851 10.163,1.513 11.264,1.176 11.094,0.159 11.137,-0.824 11.177,-1.804 10.45,-2.895 9.93,-3.042 9.621,-3.125 3.227,-1.632 0.947,-3.221 -1.767,-5.117 -5.285,-7.811 -5.71,-7.634 -6.478,-7.313 -1.996,-1.328 0,0" />
      </g>
      <g
         transform="translate(434.47601,660.02792)"
         id="g630">
        <path
           inkscape:connector-curvature="0"
           id="path632"
           style="fill:#cc9785;fill-opacity:1;fill-rule:nonzero;stroke:none"
           d="m 0,0 c -0.653,0.088 -1.459,0.631 -1.379,1.083 0.08,0.451 0.674,0.746 1.326,0.658 C 0.598,1.653 1.062,1.216 0.981,0.766 0.9,0.314 0.652,-0.087 0,0" />
      </g>
      <g
         transform="translate(423.20591,665.11922)"
         id="g634">
        <path
           inkscape:connector-curvature="0"
           id="path636"
           style="fill:#cc9785;fill-opacity:1;fill-rule:nonzero;stroke:none"
           d="m 0,0 c -0.522,0.066 -1.166,0.474 -1.103,0.812 0.064,0.338 0.54,0.56 1.061,0.494 C 0.478,1.24 0.849,0.913 0.784,0.575 0.719,0.236 0.521,-0.065 0,0" />
      </g>
      <g
         transform="translate(439.98671,611.74572)"
         id="g638">
        <path
           inkscape:connector-curvature="0"
           id="path640"
           style="fill:#cc9785;fill-opacity:1;fill-rule:nonzero;stroke:none"
           d="M 0,0 C -0.509,0.068 -1.139,0.493 -1.076,0.845 -1.014,1.197 -0.55,1.427 -0.041,1.358 0.467,1.291 0.83,0.949 0.766,0.597 0.703,0.245 0.509,-0.068 0,0" />
      </g>
      <g
         transform="translate(395.97651,613.29742)"
         id="g642">
        <path
           inkscape:connector-curvature="0"
           id="path644"
           style="fill:#cc9785;fill-opacity:1;fill-rule:nonzero;stroke:none"
           d="M 0,0 C -0.509,0.068 -1.138,0.493 -1.076,0.845 -1.014,1.197 -0.55,1.427 -0.041,1.358 0.467,1.291 0.83,0.949 0.766,0.598 0.703,0.245 0.509,-0.069 0,0" />
      </g>
      <g
         transform="translate(419.91441,641.74372)"
         id="g646">
        <path
           inkscape:connector-curvature="0"
           id="path648"
           style="fill:#cc9785;fill-opacity:1;fill-rule:nonzero;stroke:none"
           d="m 0,0 c -0.409,0.055 -0.909,0.461 -0.848,0.814 0.059,0.353 0.441,0.594 0.85,0.539 C 0.411,1.298 0.695,0.967 0.636,0.615 0.574,0.262 0.41,-0.055 0,0" />
      </g>
      <g
         transform="translate(414.14341,659.21492)"
         id="g650">
        <path
           inkscape:connector-curvature="0"
           id="path652"
           style="fill:#cc9785;fill-opacity:1;fill-rule:nonzero;stroke:none"
           d="M 0,0 C -0.412,0.054 -0.91,0.461 -0.849,0.814 -0.79,1.166 -0.408,1.408 0.002,1.352 0.411,1.298 0.695,0.966 0.633,0.614 0.574,0.262 0.409,-0.056 0,0" />
      </g>
      <g
         transform="translate(401.90031,608.80622)"
         id="g654">
        <path
           inkscape:connector-curvature="0"
           id="path656"
           style="fill:#cc9785;fill-opacity:1;fill-rule:nonzero;stroke:none"
           d="m 0,0 c -0.411,0.055 -0.91,0.461 -0.849,0.814 0.06,0.352 0.441,0.594 0.85,0.538 C 0.411,1.298 0.694,0.967 0.634,0.614 0.574,0.262 0.409,-0.056 0,0" />
      </g>
      <g
         transform="translate(448.75721,662.92782)"
         id="g658">
        <path
           inkscape:connector-curvature="0"
           id="path660"
           style="fill:#eceded;fill-opacity:1;fill-rule:nonzero;stroke:none"
           d="m 0,0 c 0,0 6.261,-10.814 6.187,-27.498 0,0 -3.19,-14.602 2.736,-12.611 5.929,1.992 4.785,13.131 12.113,4.558 0.722,-0.845 2.064,-4.411 2.064,-4.411 0,0 9.344,8.087 -2.777,11.8 0,0 10.603,16.209 -5.714,17.348 0,0 8.348,20.3 -14.609,10.814" />
      </g>
      <g
         transform="translate(438.35191,599.10802)"
         id="g662">
        <path
           inkscape:connector-curvature="0"
           id="path664"
           style="fill:#ce9282;fill-opacity:1;fill-rule:nonzero;stroke:none"
           d="m 0,0 c 0,0 -14.392,0.176 -24.874,-3.361 0,0 15.541,-14.188 24.874,3.361" />
      </g>
      <g
         transform="translate(392.21861,661.97912)"
         id="g666">
        <path
           inkscape:connector-curvature="0"
           id="path668"
           style="fill:#eceded;fill-opacity:1;fill-rule:nonzero;stroke:none"
           d="m 0,0 c 0,0 -8.349,-10.815 -8.717,-20.588 0,0 3.696,-16.219 -1.483,-12.691 -5.609,3.82 -8.438,0.403 -9.865,-0.071 -4.518,-1.5 -2.454,2.688 -2.454,2.688 0,0 -8.963,5.589 0.444,9.464 0,0 -12.512,13.246 2.586,18.872 0,0 3.741,13.899 19.489,2.326" />
      </g>
      <g
         transform="translate(457.67131,623.08552)"
         id="g670">
        <path
           inkscape:connector-curvature="0"
           id="path672"
           style="fill:#eceded;fill-opacity:1;fill-rule:nonzero;stroke:none"
           d="m 0,0 c 0,0 -0.184,-26.753 -0.945,-36.428 -0.849,-10.795 1.273,-22.387 -25.045,-30.452 -24.776,-7.592 -40.212,7.858 -44.776,19.446 -3.243,8.241 -3.316,15.727 -3.201,21.049 0.185,8.624 1.098,27.654 -1.921,34.448 l 2.276,0.996 c 0,0 8.73,-31.352 10.053,-34.293 3.416,-7.589 11.826,-9.873 23.147,-11.194 11.323,-1.32 20.859,4.071 24.854,7.21 3.962,3.113 14.23,31.115 14.23,31.115 L 0,0 Z" />
      </g>
      <g
         transform="translate(433.10491,598.75202)"
         id="g674">
        <path
           inkscape:connector-curvature="0"
           id="path676"
           style="fill:#c1a26b;fill-opacity:1;fill-rule:nonzero;stroke:none"
           d="m 0,0 c 0,0 33.866,-20.775 46.673,-52.08 0,0 -0.142,-0.569 -3.273,4.553 -5.168,8.456 -9.059,20.207 -45.392,46.958 L 0,0 Z" />
      </g>
      <g
         transform="translate(389.27721,601.74032)"
         id="g678">
        <path
           inkscape:connector-curvature="0"
           id="path680"
           style="fill:#f6f6f6;fill-opacity:1;fill-rule:nonzero;stroke:none"
           d="m 0,0 c 0.133,-1.507 4.547,-4.278 12.547,-3.153 2.75,-2.75 5.428,-2.82 9.261,-3.251 4.03,-0.454 7.183,0.889 9.864,1.126 2.335,0.206 6.005,-0.984 9.255,-0.548 3.823,0.512 6.62,1.423 9.814,3.027 6.431,-1.604 11.438,1.522 11.301,3.083 C 61.739,3.71 39.394,6.735 30.053,5.912 20.711,5.088 -0.3,3.425 0,0" />
      </g>
      <g
         transform="translate(411.75671,611.35212)"
         id="g682">
        <path
           inkscape:connector-curvature="0"
           id="path684"
           style="fill:#d6a494;fill-opacity:1;fill-rule:nonzero;stroke:none"
           d="m 0,0 c 0,0 -3.133,-6.825 4.7,-4.363 0,0 4.7,-6.826 9.957,0.447 0,0 9.064,0.224 0.806,7.189 0,0 -0.08,11.901 -2.179,17.186 -0.631,1.591 -2.59,3.269 -3.288,3.261 C 9.34,23.711 8.02,24.014 7.161,22.49 5.491,19.526 3.789,12.179 2.239,2.574 L 0,0 Z" />
      </g>
      <g
         transform="translate(477.35881,550.94052)"
         id="g686">
        <path
           inkscape:connector-curvature="0"
           id="path688"
           style="fill:#c1a26b;fill-opacity:1;fill-rule:nonzero;stroke:none"
           d="m 0,0 c 0,0 -3.557,-2.419 -0.711,-7.542 0,0 3.415,3.131 0.711,7.542" />
      </g>
      <g
         transform="translate(475.00531,555.68322)"
         id="g690">
        <path
           inkscape:connector-curvature="0"
           id="path692"
           style="fill:#c1a26b;fill-opacity:1;fill-rule:nonzero;stroke:none"
           d="m 0,0 c 0,0 -4.532,-1.963 -2.425,-8.359 0,0 4.525,2.797 2.425,8.359" />
      </g>
      <g
         transform="translate(471.49551,560.99622)"
         id="g694">
        <path
           inkscape:connector-curvature="0"
           id="path696"
           style="fill:#c1a26b;fill-opacity:1;fill-rule:nonzero;stroke:none"
           d="m 0,0 c 0,0 -4.532,-1.964 -2.426,-8.36 0,0 4.526,2.797 2.426,8.36" />
      </g>
      <g
         transform="translate(468.06091,566.12612)"
         id="g698">
        <path
           inkscape:connector-curvature="0"
           id="path700"
           style="fill:#c1a26b;fill-opacity:1;fill-rule:nonzero;stroke:none"
           d="m 0,0 c 0,0 -4.972,-2.154 -2.661,-9.17 0,0 4.964,3.067 2.661,9.17" />
      </g>
      <g
         transform="translate(474.62931,555.23402)"
         id="g702">
        <path
           inkscape:connector-curvature="0"
           id="path704"
           style="fill:#c1a26b;fill-opacity:1;fill-rule:nonzero;stroke:none"
           d="M 0,0 C 0,0 2.907,-3.995 8.688,-0.541 8.688,-0.541 4.968,3.265 0,0" />
      </g>
      <g
         transform="translate(471.49891,560.92592)"
         id="g706">
        <path
           inkscape:connector-curvature="0"
           id="path708"
           style="fill:#c1a26b;fill-opacity:1;fill-rule:nonzero;stroke:none"
           d="M 0,0 C 0,0 2.908,-3.996 8.687,-0.541 8.687,-0.541 4.968,3.266 0,0" />
      </g>
      <g
         transform="translate(467.97251,566.04212)"
         id="g710">
        <path
           inkscape:connector-curvature="0"
           id="path712"
           style="fill:#c1a26b;fill-opacity:1;fill-rule:nonzero;stroke:none"
           d="M 0,0 C 0,0 3.127,-4.296 9.341,-0.583 9.341,-0.583 5.343,3.51 0,0" />
      </g>
      <g
         transform="translate(477.32461,550.93862)"
         id="g714">
        <path
           inkscape:connector-curvature="0"
           id="path716"
           style="fill:#c1a26b;fill-opacity:1;fill-rule:nonzero;stroke:none"
           d="M 0,0 C 0,0 1.137,-4.149 6.905,-3.116 6.905,-3.116 5.049,1.128 0,0" />
      </g>
      <g
         transform="translate(478.22251,549.23792)"
         id="g718">
        <path
           inkscape:connector-curvature="0"
           id="path720"
           style="fill:#c1a26b;fill-opacity:1;fill-rule:nonzero;stroke:none"
           d="m 0,0 c 0,0 -1.121,-4.154 4.376,-6.184 0,0 0.55,4.601 -4.376,6.184" />
      </g>
      <g
         transform="translate(438.03941,532.12262)"
         id="g722">
        <path
           inkscape:connector-curvature="0"
           id="path724"
           style="fill:#f6f6f6;fill-opacity:1;fill-rule:nonzero;stroke:none"
           d="m 0,0 c 0,0 -23.818,-15.286 -34.063,-0.866 l -1.139,-12.333 16.318,-21.25 L -3.896,-12.25 0,0 Z" />
      </g>
      <g
         transform="translate(418.96421,503.27162)"
         id="g726">
        <path
           inkscape:connector-curvature="0"
           id="path728"
           style="fill:#aa0811;fill-opacity:1;fill-rule:nonzero;stroke:none"
           d="m 0,0 c 0,0 -13.298,22.957 -15.29,30.356 l -9.47,-12.427 c 0,0 11.384,-5.408 22.483,-23.337 L 0,0 Z" />
      </g>
      <g
         transform="translate(409.57221,478.29792)"
         id="g730">
        <path
           inkscape:connector-curvature="0"
           id="path732"
           style="fill:#aa0811;fill-opacity:1;fill-rule:nonzero;stroke:none"
           d="m 0,0 c 0,0 11.883,39.455 28.769,55.581 l 8.25,-9.041 c 0,0 -20.37,-12.27 -32.893,-46.611 L 0,0 Z" />
      </g>
      <g
         transform="translate(481.00481,410.77792)"
         id="g734">
        <path
           inkscape:connector-curvature="0"
           id="path736"
           style="fill:#660816;fill-opacity:1;fill-rule:nonzero;stroke:none"
           d="m 0,0 c 0,0 -0.189,38.515 -3.604,49.519 0,0 15.272,15.748 10.339,-2.845 0,0 5.503,-3.984 1.708,-10.435 C 4.648,29.787 3.795,26.278 3.604,22.198 3.447,18.808 9.677,19.921 5.503,12.711 1.328,5.502 1.672,-0.177 1.672,-0.177 L 0,0 Z" />
      </g>
      <g
         transform="translate(359.48431,427.28432)"
         id="g738">
        <path
           inkscape:connector-curvature="0"
           id="path740"
           style="fill:#660816;fill-opacity:1;fill-rule:nonzero;stroke:none"
           d="m 0,0 c 0,0 2.75,32.065 4.458,36.809 0,0 -4.554,9.675 -4.554,-4.175 0,-13.85 -7.398,3.984 -6.07,-8.537 1.328,-12.523 -7.78,-5.882 0.948,-14.42 0,0 -5.965,1.719 -0.379,-3.985 3.676,-3.753 1.932,-5.317 1.932,-5.317 L 0,0 Z" />
      </g>
      <g
         transform="translate(294.21771,426.05232)"
         id="g746">
        <path
           inkscape:connector-curvature="0"
           id="path748"
           style="fill:#d6a494;fill-opacity:1;fill-rule:nonzero;stroke:none"
           d="M 0,0 C 0,0 3.414,18.213 -9.867,12.901 -23.148,7.588 -17.834,3.794 -9.107,3.416 -0.379,3.035 0,0 0,0" />
      </g>
      <g
         transform="translate(280.36811,432.69152)"
         id="g750">
        <path
           inkscape:connector-curvature="0"
           id="path752"
           style="fill:#e5b5a1;fill-opacity:1;fill-rule:nonzero;stroke:none"
           d="m 0,0 c 0,0 -12.144,16.886 -16.317,5.691 0,0 -5.881,-6.165 14.894,-9.864 0,0 4.553,-0.191 1.423,4.173" />
      </g>
      <g
         transform="translate(280.84121,419.88532)"
         id="g754">
        <path
           inkscape:connector-curvature="0"
           id="path756"
           style="fill:#e5b5a1;fill-opacity:1;fill-rule:nonzero;stroke:none"
           d="m 0,0 c 0,0 -19.447,3.225 -16.683,-5.814 0,0 4.005,-3.875 17.865,0.024 0,0 3.84,3.888 -1.182,5.79" />
      </g>
      <g
         transform="translate(278.87391,429.06362)"
         id="g758">
        <path
           inkscape:connector-curvature="0"
           id="path760"
           style="fill:#e5b9aa;fill-opacity:1;fill-rule:nonzero;stroke:none"
           d="m 0,0 c 0,0 -18.214,10.103 -18.237,-0.725 -0.008,-4.465 2.749,-4.848 17.145,-5.018 0,0 5.373,2.5 1.092,5.743" />
      </g>
      <g
         transform="translate(277.71131,425.57722)"
         id="g762">
        <path
           inkscape:connector-curvature="0"
           id="path764"
           style="fill:#e5b9aa;fill-opacity:1;fill-rule:nonzero;stroke:none"
           d="m 0,0 c 0,0 -18.75,3.339 -15.924,-5.814 0.84,-2.724 4.004,-3.875 17.865,0.025 0,0 3.081,3.887 -1.941,5.789" />
      </g>
      <g
         transform="translate(380.41151,437.90932)"
         id="g766">
        <path
           inkscape:connector-curvature="0"
           id="path768"
           style="fill:#263b59;fill-opacity:1;fill-rule:nonzero;stroke:none"
           d="m 0,0 c -4.822,-29.646 4.592,-31.115 35.548,-31.115 26.875,0 40.936,0.242 35.89,31.115 C 68.15,20.111 65.021,15.711 36.987,15.985 7.817,16.27 3.643,22.388 0,0" />
      </g>
      <g
         transform="translate(416.40321,433.54602)"
         id="g770">
        <path
           inkscape:connector-curvature="0"
           id="path772"
           style="fill:#364e72;fill-opacity:1;fill-rule:nonzero;stroke:none"
           d="m 0,0 c 7.007,0 14.592,2.505 18.498,5.123 12.26,8.216 14.206,10.653 12.691,12.369 -4.002,4.539 -11.649,2.675 -30.193,2.856 -19.087,0.187 -27.473,2.871 -32.009,-1.567 -1.847,-1.807 0.86,-6.493 13.083,-12.236 C -13.772,4.592 -7.102,0 0,0" />
      </g>
      <g
         transform="translate(414.17621,442.60902)"
         id="g774">
        <path
           inkscape:connector-curvature="0"
           id="path776"
           style="fill:#c1a77c;fill-opacity:1;fill-rule:nonzero;stroke:none"
           d="m 0,0 c -0.811,-0.933 -1.056,-2.983 0.023,-3.921 1.08,-0.939 3.195,-0.573 4.006,0.36 0.81,0.932 1.079,3.045 0,3.984 C 2.95,1.361 0.811,0.932 0,0" />
      </g>
      <g
         transform="translate(473.37251,371.65052)"
         id="g778">
        <path
           inkscape:connector-curvature="0"
           id="path780"
           style="fill:#c1a77c;fill-opacity:1;fill-rule:nonzero;stroke:none"
           d="M 0,0 C -0.812,-0.933 -1.057,-2.984 0.023,-3.921 1.102,-4.859 3.851,-5.143 4.661,-4.21 5.471,-3.277 4.501,-0.952 3.422,-0.012 2.343,0.927 0.81,0.933 0,0" />
      </g>
      <g
         transform="translate(516.66641,339.58902)"
         id="g798">
        <path
           inkscape:connector-curvature="0"
           id="path800"
           style="fill:#e5b5a1;fill-opacity:1;fill-rule:nonzero;stroke:none"
           d="m 0,0 c 0,0 -0.403,-4.006 3.259,-9.834 3.661,-5.829 8.011,-21.314 2.775,-25.52 0,0 -1.587,-2.915 -6.669,-3.98 0,0 -1.327,-2.336 -4.467,-2.183 0,0 -3.339,-8.684 -8.755,-1.791 0,0 -2.003,13.874 -2.904,14.976 0,0 -1.871,-9.762 -5.247,-10.757 -3.377,-0.997 -5.688,-0.239 -3.769,8.387 1.918,8.626 2.012,13.186 3.268,17.226 1.255,4.041 6.348,11.661 5.495,18.462 C -17.869,11.785 0.777,35.921 0,0" />
      </g>
      <g
         transform="translate(394.69961,54.046025)"
         id="g1126">
        <path
           inkscape:connector-curvature="0"
           id="path1128"
           style="fill:#d4c094;fill-opacity:1;fill-rule:nonzero;stroke:none"
           d="m 0,0 c 0,-0.69 -1.455,-1.25 -3.25,-1.25 -1.795,0 -3.25,0.56 -3.25,1.25 0,0.69 0.289,1.416 2.084,1.416 C -2.621,1.416 0,0.69 0,0" />
      </g>
      <g
         transform="translate(469.36611,69.379025)"
         id="g1130">
        <path
           inkscape:connector-curvature="0"
           id="path1132"
           style="fill:#d4c094;fill-opacity:1;fill-rule:nonzero;stroke:none"
           d="m 0,0 c 0,-0.69 -1.455,-1.25 -3.25,-1.25 -1.795,0 -3.25,0.56 -3.25,1.25 0,0.69 0.289,1.416 2.084,1.416 C -2.621,1.416 0,0.69 0,0" />
      </g>
      <path
         sodipodi:nodetypes="cccc"
         inkscape:connector-curvature="0"
         id="rect5647"
         d="m 419.90998,716.45321 102.10506,-72.12197 c -60.53689,15.85155 -150.87017,17.41574 -206.77834,-0.0743 z"
         style="fill:#d38d5f;stroke:none;stroke-width:0.80000001;stroke-miterlimit:4;stroke-dasharray:none" />
    </g>
  </g>
</svg>
