<?xml version="1.0" encoding="UTF-8" standalone="no"?>
<svg
   xmlns:dc="http://purl.org/dc/elements/1.1/"
   xmlns:cc="http://creativecommons.org/ns#"
   xmlns:rdf="http://www.w3.org/1999/02/22-rdf-syntax-ns#"
   xmlns:svg="http://www.w3.org/2000/svg"
   xmlns="http://www.w3.org/2000/svg"
   xmlns:sodipodi="http://sodipodi.sourceforge.net/DTD/sodipodi-0.dtd"
   xmlns:inkscape="http://www.inkscape.org/namespaces/inkscape"
   style="enable-background:new 0 0 48 48;"
   version="1.1"
   viewBox="0 0 48 48"
   xml:space="preserve"
   id="svg2"
   inkscape:version="0.91 r13725"
   sodipodi:docname="instagram.svg"><metadata
     id="metadata39"><rdf:RDF><cc:Work
         rdf:about=""><dc:format>image/svg+xml</dc:format><dc:type
           rdf:resource="http://purl.org/dc/dcmitype/StillImage" /><dc:title></dc:title></cc:Work></rdf:RDF></metadata><defs
     id="defs37" /><sodipodi:namedview
     pagecolor="#ffffff"
     bordercolor="#666666"
     borderopacity="1"
     objecttolerance="10"
     gridtolerance="10"
     guidetolerance="10"
     inkscape:pageopacity="0"
     inkscape:pageshadow="2"
     inkscape:window-width="640"
     inkscape:window-height="480"
     id="namedview35"
     showgrid="false"
     inkscape:zoom="4.9166667"
     inkscape:cx="24"
     inkscape:cy="24"
     inkscape:window-x="10"
     inkscape:window-y="34"
     inkscape:window-maximized="0"
     inkscape:current-layer="svg2" /><g
     id="g3367"
     transform="matrix(1.2452274,0,0,1.2452274,-5.580376,-5.5803714)"><g
       id="Icons"><g
         id="Icons_8_"><g
           id="g6"><linearGradient
             y2="43.880219"
             y1="8.7171402"
             x2="24"
             x1="24"
             id="SVGID_1_"
             gradientUnits="userSpaceOnUse"
             gradientTransform="matrix(1,0,0,-1,0,50)"><stop
               id="stop9"
               style="stop-color:#FFD879"
               offset="0.09694" /><stop
               id="stop11"
               style="stop-color:#FCCB76"
               offset="0.15387" /><stop
               id="stop13"
               style="stop-color:#F5AA6C"
               offset="0.25828" /><stop
               id="stop15"
               style="stop-color:#E9755E"
               offset="0.39756" /><stop
               id="stop17"
               style="stop-color:#E45F58"
               offset="0.44898" /><stop
               id="stop19"
               style="stop-color:#D22A9C"
               offset="0.67857" /><stop
               id="stop21"
               style="stop-color:#6968DF"
               offset="1" /></linearGradient><circle
             id="circle23"
             style="fill:url(#SVGID_1_)"
             r="15.34377"
             cy="24"
             cx="24.000019" /><g
             id="g25"><path
               id="path27"
               style="fill:#ffffff"
               d="m 23.99985,27.7154 c -2.0488,0 -3.7153,-1.667 -3.7153,-3.7158 0,-2.0488 1.6665,-3.7148 3.7153,-3.7148 2.0489,0 3.7159,1.666 3.7159,3.7148 0,2.0488 -1.667,3.7158 -3.7159,3.7158 z m 0,-6.4306 c -1.497,0 -2.7153,1.2177 -2.7153,2.7148 0,1.4971 1.2183,2.7158 2.7153,2.7158 1.4976,0 2.7159,-1.2187 2.7159,-2.7158 0,-1.4971 -1.2183,-2.7148 -2.7159,-2.7148 z"
               inkscape:connector-curvature="0" /></g><circle
             id="circle29"
             style="fill:#ffffff"
             r="0.4621"
             cy="19.8909"
             cx="28.24785" /><g
             id="g31"><path
               id="path33"
               style="fill:#ffffff"
               d="m 27.19765,31.2643 -6.3955,0 c -2.2427,0 -4.0669,-1.8243 -4.0669,-4.0665 l 0,-6.3955 c 0,-2.2431 1.8242,-4.0673 4.0669,-4.0673 l 6.3955,0 c 2.2427,0 4.0669,1.8242 4.0669,4.0673 l 0,6.3955 c 0,2.2422 -1.8242,4.0665 -4.0669,4.0665 z M 20.80215,17.735 c -1.6909,0 -3.0669,1.3759 -3.0669,3.0673 l 0,6.3955 c 0,1.6905 1.376,3.0665 3.0669,3.0665 l 6.3955,0 c 1.6909,0 3.0669,-1.376 3.0669,-3.0665 l 0,-6.3955 c 0,-1.6914 -1.376,-3.0673 -3.0669,-3.0673 l -6.3955,0 z"
               inkscape:connector-curvature="0" /></g></g></g></g></g></svg>