<?xml version="1.0" encoding="UTF-8" standalone="no"?>
<svg
   xmlns:dc="http://purl.org/dc/elements/1.1/"
   xmlns:cc="http://creativecommons.org/ns#"
   xmlns:rdf="http://www.w3.org/1999/02/22-rdf-syntax-ns#"
   xmlns:svg="http://www.w3.org/2000/svg"
   xmlns="http://www.w3.org/2000/svg"
   xmlns:sodipodi="http://sodipodi.sourceforge.net/DTD/sodipodi-0.dtd"
   xmlns:inkscape="http://www.inkscape.org/namespaces/inkscape"
   style="enable-background:new 0 0 48 48;"
   version="1.1"
   viewBox="0 0 48 48"
   xml:space="preserve"
   id="svg2"
   inkscape:version="0.91 r13725"
   sodipodi:docname="linkedin.svg"><metadata
     id="metadata14"><rdf:RDF><cc:Work
         rdf:about=""><dc:format>image/svg+xml</dc:format><dc:type
           rdf:resource="http://purl.org/dc/dcmitype/StillImage" /></cc:Work></rdf:RDF></metadata><defs
     id="defs12" /><sodipodi:namedview
     pagecolor="#ffffff"
     bordercolor="#666666"
     borderopacity="1"
     objecttolerance="10"
     gridtolerance="10"
     guidetolerance="10"
     inkscape:pageopacity="0"
     inkscape:pageshadow="2"
     inkscape:window-width="674"
     inkscape:window-height="480"
     id="namedview10"
     showgrid="false"
     inkscape:zoom="4.9166667"
     inkscape:cx="54.101695"
     inkscape:cy="24"
     inkscape:window-x="10"
     inkscape:window-y="34"
     inkscape:window-maximized="0"
     inkscape:current-layer="svg2" /><g
     id="g3352"
     transform="matrix(1.2849711,0,0,1.2849711,-7.5511562,-6.3308316)"><g
       id="g3344"><g
         id="g3337"><ellipse
           ry="8.2960815"
           rx="8.7028618"
           cy="24.101696"
           cx="23.694916"
           id="path3342"
           style="opacity:1;fill:#ffffff;fill-opacity:1;stroke:#ffffff;stroke-width:10.57732773;stroke-miterlimit:4;stroke-dasharray:none" /><g
           id="Icons"><g
             id="Icons_23_"><g
               id="g6"><path
                 id="path8"
                 style="fill:#0097d3"
                 d="m 23.99505,8.655 c -8.4701,0 -15.3401,6.87 -15.3401,15.3399 0,8.4801 6.87,15.3501 15.3401,15.3501 8.48,0 15.35,-6.87 15.35,-15.3501 0,-8.4699 -6.87,-15.3399 -15.35,-15.3399 z m -4.3501,23.0299 c 0,0.18 -0.0499,0.23 -0.2299,0.23 l -2.87,0 c -0.18,0 -0.24,-0.05 -0.23,-0.23 l 0,-10.1499 c -0.01,-0.1801 0.06,-0.2401 0.23,-0.2301 l 2.87,0 c 0.19,-0.01 0.2299,0.05 0.2299,0.2301 l 0,10.1499 z m -1.6599,-11.75 c -1.06,0.01 -1.93,-0.87 -1.93,-1.93 0,-1 0.7799,-1.9199 1.92,-1.9299 1.08,0 1.94,0.81 1.94,1.9299 0,1.1 -0.84,1.92 -1.93,1.93 z m 13.6599,11.98 -2.81,0 c -0.2299,0 -0.2399,-0.0099 -0.2399,-0.25 l 0,-5.1299 c 0,-0.4901 -0.0101,-0.9701 -0.15,-1.44 -0.22,-0.7301 -0.7,-1.08 -1.46,-1.1001 -0.54,-0.01 -1.05,0.0901 -1.44,0.51 -0.3,0.3301 -0.44,0.74 -0.49,1.17 -0.04,0.39 -0.07,0.7901 -0.07,1.19 -0.01,1.6101 -0.01,3.2201 0,4.83 0,0.17 -0.05,0.22 -0.22,0.22 l -2.89,0 c -0.17,0 -0.23,-0.05 -0.23,-0.22 0.01,-3.39 0.01,-6.78 0,-10.1699 0,-0.18 0.06,-0.2201 0.23,-0.2201 l 2.76,0 c 0.18,0 0.23,0.06 0.23,0.2301 -0.01,0.37 0,0.75 0,1.12 0.52,-0.76 1.22,-1.26 2.1,-1.4701 1.02,-0.25 2.03,-0.1799 2.99,0.24 0.93,0.4001 1.43,1.1601 1.69,2.1001 0.18,0.61 0.26,1.24 0.27,1.88 0.01,2.07 0.02,4.1499 0.03,6.2199 0,0.29 0,0.29 -0.3001,0.29 z"
                 inkscape:connector-curvature="0" /></g></g></g></g></g></g></svg>