<?xml version="1.0" encoding="UTF-8" standalone="no"?>
<svg
   xmlns:dc="http://purl.org/dc/elements/1.1/"
   xmlns:cc="http://creativecommons.org/ns#"
   xmlns:rdf="http://www.w3.org/1999/02/22-rdf-syntax-ns#"
   xmlns:svg="http://www.w3.org/2000/svg"
   xmlns="http://www.w3.org/2000/svg"
   xmlns:sodipodi="http://sodipodi.sourceforge.net/DTD/sodipodi-0.dtd"
   xmlns:inkscape="http://www.inkscape.org/namespaces/inkscape"
   style="enable-background:new 0 0 48 48;"
   version="1.1"
   viewBox="0 0 48 48"
   xml:space="preserve"
   id="svg2"
   inkscape:version="0.91 r13725"
   sodipodi:docname="twitter.svg"><metadata
     id="metadata14"><rdf:RDF><cc:Work
         rdf:about=""><dc:format>image/svg+xml</dc:format><dc:type
           rdf:resource="http://purl.org/dc/dcmitype/StillImage" /><dc:title></dc:title></cc:Work></rdf:RDF></metadata><defs
     id="defs12" /><sodipodi:namedview
     pagecolor="#ffffff"
     bordercolor="#666666"
     borderopacity="1"
     objecttolerance="10"
     gridtolerance="10"
     guidetolerance="10"
     inkscape:pageopacity="0"
     inkscape:pageshadow="2"
     inkscape:window-width="674"
     inkscape:window-height="480"
     id="namedview10"
     showgrid="false"
     inkscape:zoom="4.9166667"
     inkscape:cx="54.101695"
     inkscape:cy="24"
     inkscape:window-x="10"
     inkscape:window-y="34"
     inkscape:window-maximized="0"
     inkscape:current-layer="svg2" /><g
     id="g3337"
     transform="matrix(1.2717167,0,0,1.2717167,-7.031032,-5.8093345)"><ellipse
       ry="8.0835228"
       rx="9.4055567"
       cy="24.305084"
       cx="23.796612"
       id="path3342"
       style="opacity:1;fill:#ffffff;fill-opacity:1;stroke:#ffffff;stroke-width:9.37532616;stroke-miterlimit:4;stroke-dasharray:none" /><g
       id="Icons"><g
         id="Icons_13_"><g
           id="g6"><path
             id="path8"
             style="fill:#4aa0ec"
             d="m 24,8.655 c -8.47,0 -15.34,6.87 -15.34,15.35 0,8.47 6.87,15.34 15.34,15.34 8.4699,0 15.34,-6.87 15.34,-15.34 0,-8.48 -6.87,-15.35 -15.34,-15.35 z m 8.18,11.16 c 0,0 -0.03,1.88 -0.31,3.06 -0.28,1.17 -1.22,4.44 -4.02,6.74 -2.8,2.3 -6.22,2.8 -8.16,2.67 -1.93,-0.13 -4.31,-0.87 -5.84,-1.82 0,0 3.51,0.38 6.1,-1.76 0,0 -2.62,0.12 -3.86,-2.89 0,0 0.89,0.16 1.86,-0.11 0,0 -3.3,-0.6 -3.34,-4.15 0,0 1.08,0.53 1.88,0.48 0,0 -3.15,-2.41 -1.23,-5.52 0,0 3.1499,4.18 8.63,4.34 -1.33,-3.67 4.63,-7.1499 7.0799,-3.81 0,0 0.9501,-0.03 2.69,-0.97 0,0 -0.4199,1.32 -1.75,2.2 0,0 1,-0.01 2.2301,-0.54 -0.09,0.14 -0.84,1.29 -1.96,2.08 z"
             inkscape:connector-curvature="0" /></g></g></g></g></svg>