<?xml version="1.0" encoding="UTF-8" standalone="no"?>
<!-- Created with Inkscape (http://www.inkscape.org/) -->

<svg
   xmlns:dc="http://purl.org/dc/elements/1.1/"
   xmlns:cc="http://creativecommons.org/ns#"
   xmlns:rdf="http://www.w3.org/1999/02/22-rdf-syntax-ns#"
   xmlns:svg="http://www.w3.org/2000/svg"
   xmlns="http://www.w3.org/2000/svg"
   xmlns:sodipodi="http://sodipodi.sourceforge.net/DTD/sodipodi-0.dtd"
   xmlns:inkscape="http://www.inkscape.org/namespaces/inkscape"
   id="svg2"
   version="1.1"
   inkscape:version="0.91 r13725"
   xml:space="preserve"
   width="500"
   height="350"
   viewBox="0 0 500 350"
   sodipodi:docname="work.svg"><metadata
     id="metadata8"><rdf:RDF><cc:Work
         rdf:about=""><dc:format>image/svg+xml</dc:format><dc:type
           rdf:resource="http://purl.org/dc/dcmitype/StillImage" /><dc:title></dc:title></cc:Work></rdf:RDF></metadata><defs
     id="defs6"><clipPath
       clipPathUnits="userSpaceOnUse"
       id="clipPath340"><path
         d="m 4997.82,4844.7 -14.52,0 c 4.58,4.73 9.42,9.75 14.52,15.03 l 0,-15.03"
         id="path342"
         inkscape:connector-curvature="0" /></clipPath></defs><sodipodi:namedview
     pagecolor="#ffffff"
     bordercolor="#666666"
     borderopacity="1"
     objecttolerance="10"
     gridtolerance="10"
     guidetolerance="10"
     inkscape:pageopacity="0"
     inkscape:pageshadow="2"
     inkscape:window-width="1366"
     inkscape:window-height="744"
     id="namedview4"
     showgrid="false"
     inkscape:zoom="0.83911111"
     inkscape:cx="291.04546"
     inkscape:cy="171.49891"
     inkscape:window-x="0"
     inkscape:window-y="24"
     inkscape:window-maximized="1"
     inkscape:current-layer="g10" /><g
     id="g10"
     inkscape:groupmode="layer"
     inkscape:label="ink_ext_XXXXXX"
     transform="matrix(1.25,0,0,-1.25,0,350)"><g
       id="g4172"
       transform="matrix(0.49083265,0,0,0.49083265,-20.969415,-86.43408)"><path
         d="m 63.6734,194.661 779.9276,0"
         style="fill:none;stroke:#6b6881;stroke-width:7;stroke-linecap:butt;stroke-linejoin:miter;stroke-miterlimit:10;stroke-dasharray:none;stroke-opacity:1"
         id="path14"
         inkscape:connector-curvature="0" /><path
         d="m 176.558,455.535 66.1184,0 0,142.217 -66.1184,0 0,-142.217 z"
         style="fill:#1c254a;fill-opacity:1;fill-rule:nonzero;stroke:none"
         id="path16"
         inkscape:connector-curvature="0" /><path
         d="m 103.118,505.441 212.022,0 0,136.901 c 0,4.79 -3.883,8.672 -8.672,8.672 l -194.678,0 c -4.79,0 -8.672,-3.882 -8.672,-8.672 l 0,-136.901"
         style="fill:#6d6b81;fill-opacity:1;fill-rule:nonzero;stroke:none"
         id="path18"
         inkscape:connector-curvature="0" /><path
         d="m 123.453,484.175 175.352,0 c 10.111,0 18.308,8.197 18.308,18.308 l 0,7.014 -211.969,0 0,-7.014 c 0,-10.111 8.197,-18.308 18.309,-18.308"
         style="fill:#6d6b81;fill-opacity:1;fill-rule:nonzero;stroke:none"
         id="path20"
         inkscape:connector-curvature="0" /><path
         d="m 322.56,642.35 0,-136.91 -52.03,0.83 -54.46,0.87 -17.2,0.28 -55.04,0.88 -33.3,0.53 0,133.52 c 0,4.78 3.88,8.66 8.67,8.66 l 194.68,0 c 4.8,0 8.68,-3.88 8.68,-8.66"
         style="fill:#292935;fill-opacity:1;fill-rule:nonzero;stroke:none"
         id="path22"
         inkscape:connector-curvature="0" /><path
         d="m 118.449,638.47 0,-120.786 c 0,-0.443 0.359,-0.802 0.801,-0.802 l 194.592,0 c 0.443,0 0.801,0.359 0.801,0.802 l 0,120.786 c 0,0.443 -0.358,0.802 -0.801,0.802 l -194.592,0 c -0.442,0 -0.801,-0.359 -0.801,-0.802"
         style="fill:#ffffff;fill-opacity:1;fill-rule:nonzero;stroke:none"
         id="path24"
         inkscape:connector-curvature="0" /><path
         d="m 128.865,484.175 175.352,0 c 10.111,0 18.308,8.197 18.308,18.308 l 0,7.014 -211.968,0 0,-7.014 c 0,-10.111 8.196,-18.308 18.308,-18.308"
         style="fill:#9f9aaf;fill-opacity:1;fill-rule:nonzero;stroke:none"
         id="path26"
         inkscape:connector-curvature="0" /><path
         d="m 174.89,454.984 88.627,0 c 2.72,0 4.924,2.204 4.924,4.924 0,2.719 -2.204,4.924 -4.924,4.924 l -88.627,0 c -2.719,0 -4.924,-2.205 -4.924,-4.924 0,-2.72 2.205,-4.924 4.924,-4.924"
         style="fill:#9f9aaf;fill-opacity:1;fill-rule:nonzero;stroke:none"
         id="path28"
         inkscape:connector-curvature="0" /><path
         d="m 305.336,618.027 -174.297,0 c -1.451,0 -2.627,1.176 -2.627,2.628 l 0,10.167 c 0,1.452 1.176,2.629 2.627,2.629 l 174.297,0 c 1.451,0 2.628,-1.177 2.628,-2.629 l 0,-10.167 c 0,-1.452 -1.177,-2.628 -2.628,-2.628"
         style="fill:#6f84ca;fill-opacity:1;fill-rule:nonzero;stroke:none"
         id="path30"
         inkscape:connector-curvature="0" /><path
         d="m 142.011,625.98 c 0,-1.861 -1.472,-3.37 -3.289,-3.37 -1.816,0 -3.289,1.509 -3.289,3.37 0,1.861 1.473,3.37 3.289,3.37 1.817,0 3.289,-1.509 3.289,-3.37"
         style="fill:#eb3d3c;fill-opacity:1;fill-rule:nonzero;stroke:none"
         id="path32"
         inkscape:connector-curvature="0" /><path
         d="m 154.004,625.98 c 0,-1.861 -1.472,-3.37 -3.289,-3.37 -1.816,0 -3.288,1.509 -3.288,3.37 0,1.861 1.472,3.37 3.288,3.37 1.817,0 3.289,-1.509 3.289,-3.37"
         style="fill:#fbc02c;fill-opacity:1;fill-rule:nonzero;stroke:none"
         id="path34"
         inkscape:connector-curvature="0" /><path
         d="m 165.998,625.98 c 0,-1.861 -1.473,-3.37 -3.289,-3.37 -1.816,0 -3.289,1.509 -3.289,3.37 0,1.861 1.473,3.37 3.289,3.37 1.816,0 3.289,-1.509 3.289,-3.37"
         style="fill:#94d122;fill-opacity:1;fill-rule:nonzero;stroke:none"
         id="path36"
         inkscape:connector-curvature="0" /><path
         d="m 187.784,590.966 -58.248,0 c -0.874,0 -1.583,0.709 -1.583,1.583 l 0,17.768 c 0,0.874 0.709,1.582 1.583,1.582 l 58.248,0 c 0.874,0 1.582,-0.708 1.582,-1.582 l 0,-17.768 c 0,-0.874 -0.708,-1.583 -1.582,-1.583"
         style="fill:#2f396e;fill-opacity:1;fill-rule:nonzero;stroke:none"
         id="path38"
         inkscape:connector-curvature="0" /><path
         d="m 259.28,564.525 -58.248,0 c -0.874,0 -1.583,0.709 -1.583,1.583 l 0,17.767 c 0,0.874 0.709,1.583 1.583,1.583 l 58.248,0 c 0.874,0 1.582,-0.709 1.582,-1.583 l 0,-17.767 c 0,-0.874 -0.708,-1.583 -1.582,-1.583"
         style="fill:#5f8c66;fill-opacity:1;fill-rule:nonzero;stroke:none"
         id="path40"
         inkscape:connector-curvature="0" /><path
         d="m 306.381,590.967 -35.229,0 c -0.874,0 -1.582,0.708 -1.582,1.582 l 0,17.768 c 0,0.874 0.708,1.582 1.582,1.582 l 35.229,0 c 0.874,0 1.583,-0.708 1.583,-1.582 l 0,-17.768 c 0,-0.874 -0.709,-1.582 -1.583,-1.582"
         style="fill:#5f8c66;fill-opacity:1;fill-rule:nonzero;stroke:none"
         id="path42"
         inkscape:connector-curvature="0" /><path
         d="m 306.381,564.112 -35.229,0 c -0.874,0 -1.582,0.709 -1.582,1.583 l 0,17.767 c 0,0.874 0.708,1.583 1.582,1.583 l 35.229,0 c 0.874,0 1.583,-0.709 1.583,-1.583 l 0,-17.767 c 0,-0.874 -0.709,-1.583 -1.583,-1.583"
         style="fill:#eb3d3c;fill-opacity:1;fill-rule:nonzero;stroke:none"
         id="path44"
         inkscape:connector-curvature="0" /><path
         d="m 199.907,593.637 61.4129,0 0,1.50078 -61.4129,0 0,-1.50078 z"
         style="fill:#1c254a;fill-opacity:1;fill-rule:nonzero;stroke:none"
         id="path46"
         inkscape:connector-curvature="0" /><path
         d="m 199.907,598.979 61.4129,0 0,1.50117 -61.4129,0 0,-1.50117 z"
         style="fill:#1c254a;fill-opacity:1;fill-rule:nonzero;stroke:none"
         id="path48"
         inkscape:connector-curvature="0" /><path
         d="m 199.907,604.32 61.4129,0 0,1.50117 -61.4129,0 0,-1.50117 z"
         style="fill:#1c254a;fill-opacity:1;fill-rule:nonzero;stroke:none"
         id="path50"
         inkscape:connector-curvature="0" /><path
         d="m 199.907,609.661 61.4129,0 0,1.50117 -61.4129,0 0,-1.50117 z"
         style="fill:#1c254a;fill-opacity:1;fill-rule:nonzero;stroke:none"
         id="path52"
         inkscape:connector-curvature="0" /><path
         d="m 187.784,538.497 -58.248,0 c -0.874,0 -1.583,0.709 -1.583,1.583 l 0,17.767 c 0,0.874 0.709,1.583 1.583,1.583 l 58.248,0 c 0.874,0 1.582,-0.709 1.582,-1.583 l 0,-17.767 c 0,-0.874 -0.708,-1.583 -1.582,-1.583"
         style="fill:#eb3d3c;fill-opacity:1;fill-rule:nonzero;stroke:none"
         id="path54"
         inkscape:connector-curvature="0" /><path
         d="m 199.907,541.168 61.4129,0 0,1.50117 -61.4129,0 0,-1.50117 z"
         style="fill:#1c254a;fill-opacity:1;fill-rule:nonzero;stroke:none"
         id="path56"
         inkscape:connector-curvature="0" /><path
         d="m 199.907,546.509 61.4129,0 0,1.50117 -61.4129,0 0,-1.50117 z"
         style="fill:#1c254a;fill-opacity:1;fill-rule:nonzero;stroke:none"
         id="path58"
         inkscape:connector-curvature="0" /><path
         d="m 199.907,551.85 61.4129,0 0,1.50195 -61.4129,0 0,-1.50195 z"
         style="fill:#1c254a;fill-opacity:1;fill-rule:nonzero;stroke:none"
         id="path60"
         inkscape:connector-curvature="0" /><path
         d="m 199.907,557.192 61.4129,0 0,1.50078 -61.4129,0 0,-1.50078 z"
         style="fill:#1c254a;fill-opacity:1;fill-rule:nonzero;stroke:none"
         id="path62"
         inkscape:connector-curvature="0" /><path
         d="m 127.724,568.022 61.4133,0 0,1.50117 -61.4133,0 0,-1.50117 z"
         style="fill:#1c254a;fill-opacity:1;fill-rule:nonzero;stroke:none"
         id="path64"
         inkscape:connector-curvature="0" /><path
         d="m 127.724,573.364 61.4133,0 0,1.50078 -61.4133,0 0,-1.50078 z"
         style="fill:#1c254a;fill-opacity:1;fill-rule:nonzero;stroke:none"
         id="path66"
         inkscape:connector-curvature="0" /><path
         d="m 127.724,578.705 61.4133,0 0,1.50078 -61.4133,0 0,-1.50078 z"
         style="fill:#1c254a;fill-opacity:1;fill-rule:nonzero;stroke:none"
         id="path68"
         inkscape:connector-curvature="0" /><path
         d="m 127.724,584.046 61.4133,0 0,1.50078 -61.4133,0 0,-1.50078 z"
         style="fill:#1c254a;fill-opacity:1;fill-rule:nonzero;stroke:none"
         id="path70"
         inkscape:connector-curvature="0" /><path
         d="m 216.161,509.497 -72.24,0 3.396,7.385 72.268,0 -3.424,-7.385 m 42.592,129.775 -55.151,0 5.398,11.738 43.499,0 c 1.795,-4.484 3.974,-8.39 6.254,-11.738"
         style="fill:#353551;fill-opacity:1;fill-rule:nonzero;stroke:none"
         id="path72"
         inkscape:connector-curvature="0" /><path
         d="m 219.585,516.882 -72.268,0 9.94,21.615 30.527,0 c 0.874,0 1.582,0.709 1.582,1.583 l 0,17.767 c 0,0.874 -0.708,1.583 -1.582,1.583 l -20.9,0 3.951,8.592 18.302,0 0,1.501 -17.611,0 1.766,3.841 15.845,0 0,1.501 -15.155,0 1.766,3.84 13.389,0 0,1.501 -12.698,0 1.766,3.84 10.932,0 0,1.501 -10.242,0 2.492,5.419 6.397,0 c 0.874,0 1.582,0.709 1.582,1.583 l 0,15.768 4.465,9.71 72.639,0 -5.658,-12.206 -60.905,0 0,-1.501 60.209,0 -1.78,-3.84 -58.429,0 0,-1.501 57.733,0 -1.78,-3.841 -55.953,0 0,-1.501 55.257,0 -3.791,-8.179 -50.341,0 c -0.874,0 -1.583,-0.709 -1.583,-1.583 l 0,-17.767 c 0,-0.874 0.709,-1.583 1.583,-1.583 l 40.637,0 -2.703,-5.832 -39.059,0 0,-1.501 38.363,0 -1.78,-3.84 -36.583,0 0,-1.502 35.887,0 -1.78,-3.84 -34.107,0 0,-1.501 33.411,0 -1.78,-3.84 -31.631,0 0,-1.501 30.935,0 -11.257,-24.286 m -19.678,94.28 0,-1.501 61.413,0 0,1.501 -61.413,0 m 63.335,22.289 -62.317,0 2.677,5.821 55.151,0 c 1.479,-2.173 3.001,-4.111 4.489,-5.821"
         style="fill:#ffffff;fill-opacity:1;fill-rule:nonzero;stroke:none"
         id="path74"
         inkscape:connector-curvature="0" /><path
         d="m 216.07,509.3 -72.24,0 0.091,0.197 72.24,0 -0.091,-0.197"
         style="fill:#c0bbd8;fill-opacity:1;fill-rule:nonzero;stroke:none"
         id="path76"
         inkscape:connector-curvature="0" /><path
         d="m 266.47,618.027 -72.639,0 7.094,15.424 62.317,0 c 2.631,-3.024 5.154,-5.335 7.147,-6.97 l -3.919,-8.454"
         style="fill:#94aee0;fill-opacity:1;fill-rule:nonzero;stroke:none"
         id="path78"
         inkscape:connector-curvature="0" /><path
         d="m 187.784,590.966 -6.397,0 7.979,17.351 0,-15.768 c 0,-0.874 -0.708,-1.583 -1.582,-1.583"
         style="fill:#3f4aa6;fill-opacity:1;fill-rule:nonzero;stroke:none"
         id="path80"
         inkscape:connector-curvature="0" /><path
         d="m 241.669,564.525 -40.637,0 c -0.874,0 -1.583,0.709 -1.583,1.583 l 0,17.767 c 0,0.874 0.709,1.583 1.583,1.583 l 50.341,0 -9.704,-20.933"
         style="fill:#82b69b;fill-opacity:1;fill-rule:nonzero;stroke:none"
         id="path82"
         inkscape:connector-curvature="0" /><path
         d="m 255.164,593.637 -55.257,0 0,1.501 55.953,0 -0.696,-1.501"
         style="fill:#273370;fill-opacity:1;fill-rule:nonzero;stroke:none"
         id="path84"
         inkscape:connector-curvature="0" /><path
         d="m 257.64,598.979 -57.733,0 0,1.501 58.429,0 -0.696,-1.501"
         style="fill:#273370;fill-opacity:1;fill-rule:nonzero;stroke:none"
         id="path86"
         inkscape:connector-curvature="0" /><path
         d="m 260.116,604.32 -60.209,0 0,1.501 60.905,0 -0.696,-1.501"
         style="fill:#273370;fill-opacity:1;fill-rule:nonzero;stroke:none"
         id="path88"
         inkscape:connector-curvature="0" /><path
         d="m 199.907,609.661 61.4129,0 0,1.50117 -61.4129,0 0,-1.50117 z"
         style="fill:#273370;fill-opacity:1;fill-rule:nonzero;stroke:none"
         id="path90"
         inkscape:connector-curvature="0" /><path
         d="m 187.784,538.497 -30.527,0 9.627,20.933 20.9,0 c 0.874,0 1.582,-0.709 1.582,-1.583 l 0,-17.767 c 0,-0.874 -0.708,-1.583 -1.582,-1.583"
         style="fill:#f15359;fill-opacity:1;fill-rule:nonzero;stroke:none"
         id="path92"
         inkscape:connector-curvature="0" /><path
         d="m 230.842,541.168 -30.935,0 0,1.501 31.631,0 -0.696,-1.501"
         style="fill:#273370;fill-opacity:1;fill-rule:nonzero;stroke:none"
         id="path94"
         inkscape:connector-curvature="0" /><path
         d="m 233.318,546.509 -33.411,0 0,1.501 34.107,0 -0.696,-1.501"
         style="fill:#273370;fill-opacity:1;fill-rule:nonzero;stroke:none"
         id="path96"
         inkscape:connector-curvature="0" /><path
         d="m 235.794,551.85 -35.887,0 0,1.502 36.583,0 -0.696,-1.502"
         style="fill:#273370;fill-opacity:1;fill-rule:nonzero;stroke:none"
         id="path98"
         inkscape:connector-curvature="0" /><path
         d="m 238.27,557.192 -38.363,0 0,1.501 39.059,0 -0.696,-1.501"
         style="fill:#273370;fill-opacity:1;fill-rule:nonzero;stroke:none"
         id="path100"
         inkscape:connector-curvature="0" /><path
         d="m 189.137,568.022 -18.302,0 0.691,1.501 17.611,0 0,-1.501"
         style="fill:#273370;fill-opacity:1;fill-rule:nonzero;stroke:none"
         id="path102"
         inkscape:connector-curvature="0" /><path
         d="m 189.137,573.364 -15.845,0 0.69,1.501 15.155,0 0,-1.501"
         style="fill:#273370;fill-opacity:1;fill-rule:nonzero;stroke:none"
         id="path104"
         inkscape:connector-curvature="0" /><path
         d="m 189.137,578.705 -13.389,0 0.691,1.501 12.698,0 0,-1.501"
         style="fill:#273370;fill-opacity:1;fill-rule:nonzero;stroke:none"
         id="path106"
         inkscape:connector-curvature="0" /><path
         d="m 189.137,584.046 -10.932,0 0.69,1.501 10.242,0 0,-1.501"
         style="fill:#273370;fill-opacity:1;fill-rule:nonzero;stroke:none"
         id="path108"
         inkscape:connector-curvature="0" /><path
         d="m 329.36,721.55 13.574,-8.399 c 9.835,-6.086 13.347,-18.7 8.095,-29.004 -1.045,-2.049 -1.697,-3.369 -1.566,-3.218 0.514,0.591 -20.79,40.449 -20.79,40.449"
         style="fill:#774032;fill-opacity:1;fill-rule:nonzero;stroke:none"
         id="path110"
         inkscape:connector-curvature="0" /><path
         d="m 294.034,591.723 -7.022,0 c -6.444,0 -11.716,5.272 -11.716,11.715 l 0,33.012 c 0,6.443 5.272,11.715 11.716,11.715 l 7.022,0 c 6.443,0 11.715,-5.272 11.715,-11.715 l 0,-33.012 c 0,-6.443 -5.272,-11.715 -11.715,-11.715"
         style="fill:#f9ae9a;fill-opacity:1;fill-rule:nonzero;stroke:none"
         id="path112"
         inkscape:connector-curvature="0" /><path
         d="m 349.224,680.929 c 0.315,-2.659 -12.144,-7.154 -12.29,-9.959 l 2.026,-5.631 c -15.297,5.546 -1.801,-2.906 -1.801,-2.927 -4.543,-13.48 -2.964,-20.939 -15.942,-26.067 -6.467,-2.555 -13.564,-3.726 -20.952,-3.203 -3.643,0.253 -7.136,-0.004 -10.454,-0.261 -5.721,-0.443 -10.924,-0.886 -15.481,1.286 -1.486,0.691 -2.888,1.675 -4.228,2.994 -2.533,2.532 -4.793,5.316 -6.699,8.331 -0.732,1.193 -1.444,2.386 -2.093,3.641 -3.914,7.557 -11.92,29.745 -11.271,38.85 1.8,25.704 26.426,42.91 54.768,40.964 0.732,-0.05 1.444,-0.063 2.177,-0.105 15.301,-1.067 28.384,-9.189 36.379,-20.973 0.419,-0.629 0.837,-1.277 1.235,-1.926 l 0,-0.021 c 2.302,-3.747 3.538,-19.781 3.538,-19.781 0.524,-1.695 0.879,-3.433 1.088,-5.212"
         style="fill:#774032;fill-opacity:1;fill-rule:nonzero;stroke:none"
         id="path114"
         inkscape:connector-curvature="0" /><path
         d="m 348.082,672.703 -0.356,-7.054 -0.607,-11.701 -0.952,-4.148 c -0.084,-1.842 -1.016,-11.53 -1.351,-13.288 -3.224,-16.557 -14.095,-20.074 -30.967,-22.167 -0.501,-0.084 -1.025,-0.126 -1.528,-0.146 -1.8,-0.189 -3.621,-0.21 -5.484,-0.126 -1.8,0.084 -3.558,0.314 -5.296,0.649 -3.369,0.607 -6.614,1.675 -9.607,3.098 l -0.042,0.02 c -7.452,3.517 -13.585,9.273 -17.562,16.327 -3.034,5.338 -4.835,11.408 -5.023,17.835 -0.022,0.439 -0.022,0.878 -0.022,1.339 -0.02,0.502 0,1.046 0.042,1.591 l 0,0.272 0.042,1.277 0.189,3.328 0.565,11.492 0.02,0.104 0,0.021 0.106,2.135 0.083,1.654 0.084,1.527 0.021,0.399 c 0.168,2.658 0.691,5.212 1.486,7.661 0.502,1.737 1.151,3.411 1.884,5.023 0.105,0.251 0.188,0.481 0.314,0.733 0.586,1.318 1.277,2.637 2.03,3.872 l 0,0.021 c 2.847,4.751 6.657,8.854 11.178,12.015 0.9,0.649 1.841,1.256 2.784,1.821 6.573,3.851 14.317,5.924 22.46,5.505 6.782,-0.356 11.794,-2.386 17.257,-5.672 3.306,-1.989 6.3,-4.438 8.875,-7.264 3.663,-3.977 6.049,-8.666 7.807,-13.836 0.105,-0.293 0.189,-0.586 0.273,-0.879 0.523,-1.695 0.879,-3.433 1.087,-5.212 0.315,-2.659 0.357,-5.421 0.21,-8.226"
         style="fill:#fabca8;fill-opacity:1;fill-rule:nonzero;stroke:none"
         id="path116"
         inkscape:connector-curvature="0" /><path
         d="m 333.837,707.68 c 8.276,-22.803 -13.513,-20.945 -14.527,-31.417 -0.114,-1.178 -0.533,-2.911 -0.844,-11.487 l -1.665,-5.365 c -0.482,-1.674 -2.031,-2.825 -3.768,-2.825 -2.177,0 -3.935,1.758 -3.935,3.934 l 0,0.105 0.189,8.54 -4.25,-11.261 c -3.056,-8.121 -7.703,-15.468 -13.564,-21.664 -4.877,-5.128 -10.591,-9.482 -16.933,-12.79 0,0 -26.584,15.804 -26.584,51.89 0,2.868 0.168,5.861 0.523,8.98 0.335,2.805 0.795,5.422 1.424,7.87 11.009,44.836 66.103,29.535 71.398,27.547 5.568,-2.094 12.536,-12.057 12.536,-12.057"
         style="fill:#774032;fill-opacity:1;fill-rule:nonzero;stroke:none"
         id="path118"
         inkscape:connector-curvature="0" /><path
         d="m 352.77,648.537 -0.009,-0.591 c -0.072,-2.467 -2.209,-4.426 -7.499,-4.274 l 0.74,19.256 c 4.296,-6.551 6.379,-10.359 6.768,-14.391"
         style="fill:#fabca8;fill-opacity:1;fill-rule:nonzero;stroke:none"
         id="path120"
         inkscape:connector-curvature="0" /><path
         d="m 349.892,671.843 -11.774,0 c -1.367,0 -2.486,1.118 -2.486,2.486 0,1.367 1.119,2.485 2.486,2.485 l 11.774,0 c 1.367,0 2.486,-1.118 2.486,-2.485 0,-1.368 -1.119,-2.486 -2.486,-2.486"
         style="fill:#774032;fill-opacity:1;fill-rule:nonzero;stroke:none"
         id="path122"
         inkscape:connector-curvature="0" /><path
         d="m 343.276,662.978 0,0 c -0.977,0 -1.776,0.799 -1.776,1.776 l 0,2.615 c 0,0.976 0.799,1.776 1.776,1.776 0.976,0 1.776,-0.8 1.776,-1.776 l 0,-2.615 c 0,-0.977 -0.8,-1.776 -1.776,-1.776"
         style="fill:#181d3d;fill-opacity:1;fill-rule:nonzero;stroke:none"
         id="path124"
         inkscape:connector-curvature="0" /><path
         d="m 274.54,623.45 c 0,0 -1.661,0.987 -4.151,3.031 -1.993,1.635 -4.516,3.946 -7.147,6.97 -7.239,8.321 -15.286,22.036 -15.286,41.889 0,2.868 0.168,5.861 0.523,8.98 0.335,2.805 0.795,5.422 1.424,7.87 1.172,-6.865 4.27,-17.268 12.182,-30.12 12.036,-19.551 25.098,-24.637 29.388,-25.83 -3.462,-3.641 -7.347,-6.891 -11.578,-9.654 -1.491,-0.974 -3.024,-1.886 -4.599,-2.734 -0.251,-0.136 -0.503,-0.27 -0.756,-0.402"
         style="fill:#5f3635;fill-opacity:1;fill-rule:nonzero;stroke:none"
         id="path126"
         inkscape:connector-curvature="0" /><path
         d="m 345.167,637.711 -0.351,-13.474 c 0,-11.486 -13.604,-16.102 -23.701,-15.01 l -16.093,1.74 1.62,13.946 4.392,26.688 -7.095,19.932 14.612,-6.066 -0.002,-0.022 c -1.104,-15.837 10.243,-28.638 26.102,-27.906 l 0.516,0.172"
         style="fill:#774032;fill-opacity:1;fill-rule:nonzero;stroke:none"
         id="path128"
         inkscape:connector-curvature="0" /><path
         d="m 308.131,672.03 c 1.626,-0.009 2.937,-1.337 2.926,-2.963 l -0.069,-10.027 -0.069,-8.758 -3.443,0.02 c -0.252,0.005 -0.504,0.009 -0.741,0.046 -5.757,0.436 -10.302,5.47 -10.273,11.225 0.01,2.987 1.282,5.527 3.301,7.503 1.808,1.762 4.248,2.766 6.945,2.916 l 0.016,0.001 c 0.312,0.045 0.578,0.057 0.894,0.04 l 0.513,-0.003"
         style="fill:#f9ae9a;fill-opacity:1;fill-rule:nonzero;stroke:none"
         id="path130"
         inkscape:connector-curvature="0" /><path
         d="m 204.75,361.709 92.6012,0 0,17.075 -92.6012,0 0,-17.075 z"
         style="fill:#181d3d;fill-opacity:1;fill-rule:nonzero;stroke:none"
         id="path132"
         inkscape:connector-curvature="0" /><path
         d="m 173.167,219.514 0,-6.549"
         style="fill:#2f396e;fill-opacity:1;fill-rule:nonzero;stroke:none"
         id="path134"
         inkscape:connector-curvature="0" /><path
         d="m 558.828,360.267 84.8238,0 0,17.075 -84.8238,0 0,-17.075 z"
         style="fill:#6b6881;fill-opacity:1;fill-rule:nonzero;stroke:none"
         id="path136"
         inkscape:connector-curvature="0" /><path
         d="m 630,194.946 19.293,0 0,240.462 -19.293,0 0,-240.462 z"
         style="fill:#6b6881;fill-opacity:1;fill-rule:nonzero;stroke:none"
         id="path138"
         inkscape:connector-curvature="0" /><path
         d="m 552.532,194.946 19.293,0 0,241.904 -19.293,0 0,-241.904 z"
         style="fill:#b1aac3;fill-opacity:1;fill-rule:nonzero;stroke:none"
         id="path140"
         inkscape:connector-curvature="0" /><path
         d="m 552.532,343.401 19.293,0 0,103.208 -19.293,0 0,-103.208 z"
         style="fill:#6b6881;fill-opacity:1;fill-rule:nonzero;stroke:none"
         id="path142"
         inkscape:connector-curvature="0" /><path
         d="m 96.1617,360.267 84.8234,0 0,17.075 -84.8234,0 0,-17.075 z"
         style="fill:#6b6881;fill-opacity:1;fill-rule:nonzero;stroke:none"
         id="path144"
         inkscape:connector-curvature="0" /><path
         d="m 167.334,194.946 19.293,0 0,240.462 -19.293,0 0,-240.462 z"
         style="fill:#6b6881;fill-opacity:1;fill-rule:nonzero;stroke:none"
         id="path146"
         inkscape:connector-curvature="0" /><path
         d="m 89.8652,194.946 19.2938,0 0,241.904 -19.2938,0 0,-241.904 z"
         style="fill:#6b6881;fill-opacity:1;fill-rule:nonzero;stroke:none"
         id="path148"
         inkscape:connector-curvature="0" /><path
         d="m 446.811,459.972 63.6723,0 0,136.955 -63.6723,0 0,-136.955 z"
         style="fill:#514e65;fill-opacity:1;fill-rule:nonzero;stroke:none"
         id="path150"
         inkscape:connector-curvature="0" /><path
         d="m 578.203,504.954 -209.306,0 0,127.836 c 0,4.612 3.739,8.351 8.35,8.351 l 192.605,0 c 4.612,0 8.351,-3.739 8.351,-8.351 l 0,-127.836"
         style="fill:#dfdfdd;fill-opacity:1;fill-rule:nonzero;stroke:none"
         id="path152"
         inkscape:connector-curvature="0" /><path
         d="m 558.546,484.474 -173.993,0 c -9.737,0 -17.631,7.894 -17.631,17.631 l 0,6.754 209.255,0 0,-6.754 c 0,-9.737 -7.893,-17.631 -17.631,-17.631"
         style="fill:#dfdfdd;fill-opacity:1;fill-rule:nonzero;stroke:none"
         id="path154"
         inkscape:connector-curvature="0" /><path
         d="m 570.99,632.8 0,-127.85 -209.31,0 0,127.85 c 0,4.61 3.74,8.34 8.35,8.34 l 192.61,0 c 4.61,0 8.35,-3.73 8.35,-8.34"
         style="fill:#6f7083;fill-opacity:1;fill-rule:nonzero;stroke:none"
         id="path156"
         inkscape:connector-curvature="0" /><path
         d="m 563.37,633.06 0,-116.32 c 0,-0.42 -0.35,-0.77 -0.78,-0.77 l -192.52,0 c -0.42,0 -0.77,0.35 -0.77,0.77 l 0,116.32 c 0,0.43 0.35,0.77 0.77,0.77 l 192.52,0 c 0.43,0 0.78,-0.34 0.78,-0.77"
         style="fill:#233366;fill-opacity:1;fill-rule:nonzero;stroke:none"
         id="path158"
         inkscape:connector-curvature="0" /><path
         d="m 570.97,508.86 0,-6.75 c 0,-7.08 -4.17,-13.19 -10.19,-15.99 -2.26,-1.06 -4.79,-1.65 -7.45,-1.65 l -173.99,0 c -9.74,0 -17.63,7.9 -17.63,17.64 l 0,6.75 209.26,0"
         style="fill:#aca4c7;fill-opacity:1;fill-rule:nonzero;stroke:none"
         id="path160"
         inkscape:connector-curvature="0" /><path
         d="m 380.538,617.213 65.0262,0 0,2.25117 -65.0262,0 0,-2.25117 z"
         style="fill:#6f84ca;fill-opacity:1;fill-rule:nonzero;stroke:none"
         id="path162"
         inkscape:connector-curvature="0" /><path
         d="m 473.76,617.213 30.7891,0 0,2.25117 -30.7891,0 0,-2.25117 z"
         style="fill:#dfdfdd;fill-opacity:1;fill-rule:nonzero;stroke:none"
         id="path164"
         inkscape:connector-curvature="0" /><path
         d="m 518.212,617.213 30.7891,0 0,2.25117 -30.7891,0 0,-2.25117 z"
         style="fill:#fbc02c;fill-opacity:1;fill-rule:nonzero;stroke:none"
         id="path166"
         inkscape:connector-curvature="0" /><path
         d="m 507.289,617.213 7.28398,0 0,2.25117 -7.28398,0 0,-2.25117 z"
         style="fill:#6f84ca;fill-opacity:1;fill-rule:nonzero;stroke:none"
         id="path168"
         inkscape:connector-curvature="0" /><path
         d="m 448.613,617.213 21.5813,0 0,2.25117 -21.5813,0 0,-2.25117 z"
         style="fill:#eb3d3c;fill-opacity:1;fill-rule:nonzero;stroke:none"
         id="path170"
         inkscape:connector-curvature="0" /><path
         d="m 380.538,559.589 65.0262,0 0,2.25078 -65.0262,0 0,-2.25078 z"
         style="fill:#6f84ca;fill-opacity:1;fill-rule:nonzero;stroke:none"
         id="path172"
         inkscape:connector-curvature="0" /><path
         d="m 473.76,559.589 30.7891,0 0,2.25078 -30.7891,0 0,-2.25078 z"
         style="fill:#dfdfdd;fill-opacity:1;fill-rule:nonzero;stroke:none"
         id="path174"
         inkscape:connector-curvature="0" /><path
         d="m 518.212,559.589 30.7891,0 0,2.25078 -30.7891,0 0,-2.25078 z"
         style="fill:#fbc02c;fill-opacity:1;fill-rule:nonzero;stroke:none"
         id="path176"
         inkscape:connector-curvature="0" /><path
         d="m 507.29,559.589 7.2832,0 0,2.25078 -7.2832,0 0,-2.25078 z"
         style="fill:#6f84ca;fill-opacity:1;fill-rule:nonzero;stroke:none"
         id="path178"
         inkscape:connector-curvature="0" /><path
         d="m 448.613,559.589 21.5813,0 0,2.25078 -21.5813,0 0,-2.25078 z"
         style="fill:#9f9aaf;fill-opacity:1;fill-rule:nonzero;stroke:none"
         id="path180"
         inkscape:connector-curvature="0" /><path
         d="m 483.975,578.797 65.0262,0 0,2.25117 -65.0262,0 0,-2.25117 z"
         style="fill:#6f84ca;fill-opacity:1;fill-rule:nonzero;stroke:none"
         id="path182"
         inkscape:connector-curvature="0" /><path
         d="m 424.99,578.797 30.7891,0 0,2.25117 -30.7891,0 0,-2.25117 z"
         style="fill:#dfdfdd;fill-opacity:1;fill-rule:nonzero;stroke:none"
         id="path184"
         inkscape:connector-curvature="0" /><path
         d="m 380.538,578.797 30.7891,0 0,2.25117 -30.7891,0 0,-2.25117 z"
         style="fill:#fbc02c;fill-opacity:1;fill-rule:nonzero;stroke:none"
         id="path186"
         inkscape:connector-curvature="0" /><path
         d="m 414.966,578.797 7.28398,0 0,2.25117 -7.28398,0 0,-2.25117 z"
         style="fill:#6f84ca;fill-opacity:1;fill-rule:nonzero;stroke:none"
         id="path188"
         inkscape:connector-curvature="0" /><path
         d="m 459.345,578.797 21.5813,0 0,2.25117 -21.5813,0 0,-2.25117 z"
         style="fill:#9f9aaf;fill-opacity:1;fill-rule:nonzero;stroke:none"
         id="path190"
         inkscape:connector-curvature="0" /><path
         d="m 380.538,607.609 24.3852,0 0,2.25117 -24.3852,0 0,-2.25117 z"
         style="fill:#eb3d3c;fill-opacity:1;fill-rule:nonzero;stroke:none"
         id="path192"
         inkscape:connector-curvature="0" /><path
         d="m 453.439,607.609 10.4691,0 0,2.25117 -10.4691,0 0,-2.25117 z"
         style="fill:#6f84ca;fill-opacity:1;fill-rule:nonzero;stroke:none"
         id="path194"
         inkscape:connector-curvature="0" /><path
         d="m 497.891,607.609 51.1102,0 0,2.25117 -51.1102,0 0,-2.25117 z"
         style="fill:#dfdfdd;fill-opacity:1;fill-rule:nonzero;stroke:none"
         id="path196"
         inkscape:connector-curvature="0" /><path
         d="m 466.647,607.609 27.6051,0 0,2.25117 -27.6051,0 0,-2.25117 z"
         style="fill:#6f84ca;fill-opacity:1;fill-rule:nonzero;stroke:none"
         id="path198"
         inkscape:connector-curvature="0" /><path
         d="m 407.971,607.609 41.902,0 0,2.25117 -41.902,0 0,-2.25117 z"
         style="fill:#6f84ca;fill-opacity:1;fill-rule:nonzero;stroke:none"
         id="path200"
         inkscape:connector-curvature="0" /><path
         d="m 380.538,549.984 24.3852,0 0,2.25195 -24.3852,0 0,-2.25195 z"
         style="fill:#6f84ca;fill-opacity:1;fill-rule:nonzero;stroke:none"
         id="path202"
         inkscape:connector-curvature="0" /><path
         d="m 453.439,549.984 10.4691,0 0,2.25195 -10.4691,0 0,-2.25195 z"
         style="fill:#6f84ca;fill-opacity:1;fill-rule:nonzero;stroke:none"
         id="path204"
         inkscape:connector-curvature="0" /><path
         d="m 497.891,549.984 51.1102,0 0,2.25195 -51.1102,0 0,-2.25195 z"
         style="fill:#6f84ca;fill-opacity:1;fill-rule:nonzero;stroke:none"
         id="path206"
         inkscape:connector-curvature="0" /><path
         d="m 466.647,549.984 27.6051,0 0,2.25195 -27.6051,0 0,-2.25195 z"
         style="fill:#6f84ca;fill-opacity:1;fill-rule:nonzero;stroke:none"
         id="path208"
         inkscape:connector-curvature="0" /><path
         d="m 407.971,549.984 41.902,0 0,2.25195 -41.902,0 0,-2.25195 z"
         style="fill:#6f84ca;fill-opacity:1;fill-rule:nonzero;stroke:none"
         id="path210"
         inkscape:connector-curvature="0" /><path
         d="m 380.538,569.193 24.3852,0 0,2.25117 -24.3852,0 0,-2.25117 z"
         style="fill:#eb3d3c;fill-opacity:1;fill-rule:nonzero;stroke:none"
         id="path212"
         inkscape:connector-curvature="0" /><path
         d="m 453.439,569.193 10.4691,0 0,2.25117 -10.4691,0 0,-2.25117 z"
         style="fill:#6f84ca;fill-opacity:1;fill-rule:nonzero;stroke:none"
         id="path214"
         inkscape:connector-curvature="0" /><path
         d="m 497.891,569.193 51.1102,0 0,2.25117 -51.1102,0 0,-2.25117 z"
         style="fill:#dfdfdd;fill-opacity:1;fill-rule:nonzero;stroke:none"
         id="path216"
         inkscape:connector-curvature="0" /><path
         d="m 466.647,569.193 27.6051,0 0,2.25117 -27.6051,0 0,-2.25117 z"
         style="fill:#6f84ca;fill-opacity:1;fill-rule:nonzero;stroke:none"
         id="path218"
         inkscape:connector-curvature="0" /><path
         d="m 407.971,569.193 41.902,0 0,2.25117 -41.902,0 0,-2.25117 z"
         style="fill:#6f84ca;fill-opacity:1;fill-rule:nonzero;stroke:none"
         id="path220"
         inkscape:connector-curvature="0" /><path
         d="m 380.538,598.005 24.3852,0 0,2.25078 -24.3852,0 0,-2.25078 z"
         style="fill:#dfdfdd;fill-opacity:1;fill-rule:nonzero;stroke:none"
         id="path222"
         inkscape:connector-curvature="0" /><path
         d="m 407.971,598.005 41.902,0 0,2.25078 -41.902,0 0,-2.25078 z"
         style="fill:#6f84ca;fill-opacity:1;fill-rule:nonzero;stroke:none"
         id="path224"
         inkscape:connector-curvature="0" /><path
         d="m 425.488,588.401 24.3852,0 0,2.25078 -24.3852,0 0,-2.25078 z"
         style="fill:#dfdfdd;fill-opacity:1;fill-rule:nonzero;stroke:none"
         id="path226"
         inkscape:connector-curvature="0" /><path
         d="m 380.538,588.401 41.902,0 0,2.25078 -41.902,0 0,-2.25078 z"
         style="fill:#6f84ca;fill-opacity:1;fill-rule:nonzero;stroke:none"
         id="path228"
         inkscape:connector-curvature="0" /><path
         d="m 509.012,456.363 -85.348,0 c -2.619,0 -4.742,2.123 -4.742,4.742 l 0,0 c 0,2.619 2.123,4.742 4.742,4.742 l 85.348,0 c 2.619,0 4.742,-2.123 4.742,-4.742 l 0,0 c 0,-2.619 -2.123,-4.742 -4.742,-4.742"
         style="fill:#43415d;fill-opacity:1;fill-rule:nonzero;stroke:none"
         id="path230"
         inkscape:connector-curvature="0" /><path
         d="m 665.785,435.593 -269.109,0 0,13.911 c 0,4.21 3.413,7.624 7.623,7.624 l 253.862,0 c 4.21,0 7.624,-3.414 7.624,-7.624 l 0,-13.911"
         style="fill:#e88262;fill-opacity:1;fill-rule:nonzero;stroke:none"
         id="path232"
         inkscape:connector-curvature="0" /><path
         d="m 587.34,449.5 0,-13.91 -518.1099,0 0,13.91 c 0,4.21 3.4101,7.63 7.6199,7.63 l 502.87,0 c 4.21,0 7.62,-3.42 7.62,-7.63"
         style="fill:#a43937;fill-opacity:1;fill-rule:nonzero;stroke:none"
         id="path234"
         inkscape:connector-curvature="0" /><path
         d="m 437.43,457.13 c -4.11,-6.7 -9.01,-14.69 -13.2,-21.54 l -126.76,0 1.73,21.54 138.23,0"
         style="fill:#812a2c;fill-opacity:1;fill-rule:nonzero;stroke:none"
         id="path236"
         inkscape:connector-curvature="0" /><path
         d="m 692.711,194.946 133.143,0 0,166.84 -133.143,0 0,-166.84 z"
         style="fill:#7b2c50;fill-opacity:1;fill-rule:nonzero;stroke:none"
         id="path238"
         inkscape:connector-curvature="0" /><path
         d="m 645.529,194.946 130.846,0 0,166.84 -130.846,0 0,-166.84 z"
         style="fill:#672d52;fill-opacity:1;fill-rule:nonzero;stroke:none"
         id="path240"
         inkscape:connector-curvature="0" /><path
         d="m 644.038,304.158 124.122,0 0,45.1348 -124.122,0 0,-45.1348 z"
         style="fill:#df6b45;fill-opacity:1;fill-rule:nonzero;stroke:none"
         id="path242"
         inkscape:connector-curvature="0" /><path
         d="m 644.038,251.194 124.122,0 0,45.1348 -124.122,0 0,-45.1348 z"
         style="fill:#df6b45;fill-opacity:1;fill-rule:nonzero;stroke:none"
         id="path244"
         inkscape:connector-curvature="0" /><path
         d="m 644.038,194.946 124.122,0 0,48.4188 -124.122,0 0,-48.4188 z"
         style="fill:#df6b45;fill-opacity:1;fill-rule:nonzero;stroke:none"
         id="path246"
         inkscape:connector-curvature="0" /><path
         d="m 683.531,324.308 31.031,0 c 1.33,0 2.418,1.088 2.418,2.418 0,1.33 -1.088,2.418 -2.418,2.418 l -31.031,0 c -1.33,0 -2.418,-1.088 -2.418,-2.418 0,-1.33 1.088,-2.418 2.418,-2.418"
         style="fill:#ffffff;fill-opacity:1;fill-rule:nonzero;stroke:none"
         id="path248"
         inkscape:connector-curvature="0" /><path
         d="m 682.322,271.717 31.031,0 c 1.33,0 2.418,1.088 2.418,2.418 0,1.33 -1.088,2.418 -2.418,2.418 l -31.031,0 c -1.33,0 -2.418,-1.088 -2.418,-2.418 0,-1.33 1.088,-2.418 2.418,-2.418"
         style="fill:#ffffff;fill-opacity:1;fill-rule:nonzero;stroke:none"
         id="path250"
         inkscape:connector-curvature="0" /><path
         d="m 682.322,219.126 31.031,0 c 1.33,0 2.418,1.088 2.418,2.418 0,1.33 -1.088,2.418 -2.418,2.418 l -31.031,0 c -1.33,0 -2.418,-1.088 -2.418,-2.418 0,-1.33 1.088,-2.418 2.418,-2.418"
         style="fill:#ffffff;fill-opacity:1;fill-rule:nonzero;stroke:none"
         id="path252"
         inkscape:connector-curvature="0" /><path
         d="m 341.948,184.745 62.192,-0.662 c 3.709,-0.039 6.747,2.935 6.786,6.644 0.031,2.856 -1.749,5.419 -4.435,6.388 l -30.657,11.061 -33.642,-0.462 -0.244,-22.969"
         style="fill:#7b2c50;fill-opacity:1;fill-rule:nonzero;stroke:none"
         id="path254"
         inkscape:connector-curvature="0" /><path
         d="m 405.368,182.343 -62.962,0.203 0.014,4.512 67.474,-0.218 c -0.008,-2.492 -2.035,-4.506 -4.526,-4.497"
         style="fill:#181d3d;fill-opacity:1;fill-rule:nonzero;stroke:none"
         id="path256"
         inkscape:connector-curvature="0" /><path
         d="m 375.044,199.084 7.329,7.782"
         style="fill:none;stroke:#181d3d;stroke-width:1.49330997;stroke-linecap:round;stroke-linejoin:miter;stroke-miterlimit:10;stroke-dasharray:none;stroke-opacity:1"
         id="path258"
         inkscape:connector-curvature="0" /><path
         d="m 380.388,196.809 7.329,7.783"
         style="fill:none;stroke:#181d3d;stroke-width:1.49330997;stroke-linecap:round;stroke-linejoin:miter;stroke-miterlimit:10;stroke-dasharray:none;stroke-opacity:1"
         id="path260"
         inkscape:connector-curvature="0" /><path
         d="m 385.502,193.772 8.251,8.825"
         style="fill:none;stroke:#181d3d;stroke-width:1.49330997;stroke-linecap:round;stroke-linejoin:miter;stroke-miterlimit:10;stroke-dasharray:none;stroke-opacity:1"
         id="path262"
         inkscape:connector-curvature="0" /><path
         d="m 339.829,205.177 c 3.609,60.666 2.635,116.753 -2.091,128.112 -4.846,7.054 -42.628,22.34 -80.389,23.989 l 17.671,38.577 c 49.528,-2.489 84.931,-21.071 97.314,-42.311 5.228,-8.964 9.768,-27.046 7.319,-88.905 -1.283,-32.4 -2.865,-57.782 -2.865,-57.782 l -36.959,-1.68"
         style="fill:#1c1c27;fill-opacity:1;fill-rule:nonzero;stroke:none"
         id="path264"
         inkscape:connector-curvature="0" /><path
         d="m 397.326,183.198 62.194,-0.43 c 3.709,-0.026 6.736,2.96 6.761,6.669 0.02,2.856 -1.769,5.412 -4.459,6.371 l -30.697,10.947 -33.641,-0.587 -0.158,-22.97"
         style="fill:#9d4333;fill-opacity:1;fill-rule:nonzero;stroke:none"
         id="path266"
         inkscape:connector-curvature="0" /><path
         d="m 460.754,181.032 -63.962,-0.031 -0.003,4.512 68.475,0.033 c 10e-4,-2.492 -2.018,-4.513 -4.51,-4.514"
         style="fill:#181d3d;fill-opacity:1;fill-rule:nonzero;stroke:none"
         id="path268"
         inkscape:connector-curvature="0" /><path
         d="m 430.368,197.66 7.3,7.81"
         style="fill:none;stroke:#181d3d;stroke-width:1.49330997;stroke-linecap:round;stroke-linejoin:miter;stroke-miterlimit:10;stroke-dasharray:none;stroke-opacity:1"
         id="path270"
         inkscape:connector-curvature="0" /><path
         d="m 435.721,195.406 7.3,7.81"
         style="fill:none;stroke:#181d3d;stroke-width:1.49330997;stroke-linecap:round;stroke-linejoin:miter;stroke-miterlimit:10;stroke-dasharray:none;stroke-opacity:1"
         id="path272"
         inkscape:connector-curvature="0" /><path
         d="m 440.847,192.387 8.217,8.856"
         style="fill:none;stroke:#181d3d;stroke-width:1.49330997;stroke-linecap:round;stroke-linejoin:miter;stroke-miterlimit:10;stroke-dasharray:none;stroke-opacity:1"
         id="path274"
         inkscape:connector-curvature="0" /><path
         d="m 395.081,205.177 c 3.609,60.666 2.635,116.753 -2.09,128.112 -4.847,7.054 -42.628,22.34 -80.389,23.989 l 17.67,38.577 c 49.528,-2.489 84.932,-21.071 97.314,-42.311 5.228,-8.964 9.768,-27.046 7.319,-88.905 -1.283,-32.4 -2.864,-57.782 -2.864,-57.782 l -36.96,-1.68"
         style="fill:#1c1c27;fill-opacity:1;fill-rule:nonzero;stroke:none"
         id="path276"
         inkscape:connector-curvature="0" /><path
         d="m 341.859,384.755 c 0,-6.794 -2.419,-13.021 -6.435,-17.875 -5.137,-6.226 -12.932,-10.199 -21.653,-10.199 l -47.204,0 c -1.403,0 -2.777,0.104 -4.121,0.314 -3.465,0.493 -6.72,1.642 -9.647,3.3 -0.523,0.283 -1.03,0.597 -1.524,0.926 -7.69,5.002 -12.782,13.679 -12.782,23.534 l 0.866,14.978 101.68,0.881 0.82,-15.859"
         style="fill:#1c1c27;fill-opacity:1;fill-rule:nonzero;stroke:none"
         id="path278"
         inkscape:connector-curvature="0" /><path
         d="m 374.288,464.753 24.331,3.889 c 1.777,0.284 2.998,1.97 2.714,3.747 -0.284,1.777 -1.97,2.998 -3.747,2.714 l -24.331,-3.889 c -1.776,-0.284 -2.998,-1.97 -2.714,-3.747 0.284,-1.777 1.97,-2.998 3.747,-2.714"
         style="fill:#f9ae9a;fill-opacity:1;fill-rule:nonzero;stroke:none"
         id="path280"
         inkscape:connector-curvature="0" /><path
         d="m 382.035,458.175 19.536,3.122 c 1.777,0.284 2.998,1.97 2.714,3.747 -0.284,1.777 -1.97,2.998 -3.747,2.715 l -19.536,-3.123 c -1.776,-0.284 -2.998,-1.97 -2.714,-3.747 0.284,-1.777 1.97,-2.998 3.747,-2.714"
         style="fill:#f9ae9a;fill-opacity:1;fill-rule:nonzero;stroke:none"
         id="path282"
         inkscape:connector-curvature="0" /><path
         d="m 377.519,449.644 23.123,3.696 c 1.776,0.284 2.998,1.97 2.713,3.747 -0.283,1.777 -1.97,2.998 -3.747,2.714 l -23.123,-3.696 c -1.776,-0.284 -2.998,-1.97 -2.714,-3.747 0.285,-1.777 1.971,-2.998 3.748,-2.714"
         style="fill:#f9ae9a;fill-opacity:1;fill-rule:nonzero;stroke:none"
         id="path284"
         inkscape:connector-curvature="0" /><path
         d="m 384.791,471.044 c -0.261,-0.031 -3.246,0.01 -6.479,0.064 -5.584,0.093 -11.111,-1.146 -16.123,-3.61 l -9.596,-4.721 c 0,0 5.496,-16.309 6.254,-16.446 18.501,-3.344 24.848,5.056 24.848,5.056 l 1.096,19.657"
         style="fill:#f9ae9a;fill-opacity:1;fill-rule:nonzero;stroke:none"
         id="path286"
         inkscape:connector-curvature="0" /><path
         d="m 362.253,444.416 8.21289,0 0,26.6922 -8.21289,0 0,-26.6922 z"
         style="fill:#ffffff;fill-opacity:1;fill-rule:nonzero;stroke:none"
         id="path288"
         inkscape:connector-curvature="0" /><path
         d="m 308.432,441.519 c -19.364,0 -37.068,11.303 -45.203,28.906 l -0.402,0.869 -25.345,77.397 31.222,10.224 24.698,-75.423 c 2.931,-5.628 8.825,-9.19 15.197,-9.119 l 53.84,0.533 0.326,-32.852 -53.841,-0.533 c -0.163,-0.001 -0.329,-0.002 -0.492,-0.002"
         style="fill:#1c1c27;fill-opacity:1;fill-rule:nonzero;stroke:none"
         id="path290"
         inkscape:connector-curvature="0" /><path
         d="m 484.105,473.431 c -2.013,3.588 -5.036,6.525 -8.726,8.343 l -0.087,0.043 c -5.018,2.452 -10.549,3.672 -16.132,3.563 l -10.693,-0.207 c 0,0 -2.709,-23.199 -2.57,-22.442 0.276,1.506 26.141,1.119 37.993,0.862 2.567,-0.055 4.218,2.701 2.962,4.941 l -2.747,4.897"
         style="fill:#f9ae9a;fill-opacity:1;fill-rule:nonzero;stroke:none"
         id="path292"
         inkscape:connector-curvature="0" /><path
         d="m 441.996,459.579 10.2039,0 0,27.341 -10.2039,0 0,-27.341 z"
         style="fill:#ffffff;fill-opacity:1;fill-rule:nonzero;stroke:none"
         id="path294"
         inkscape:connector-curvature="0" /><path
         d="m 392.057,456.452 c -19.363,0 -37.067,11.303 -45.203,28.906 l -36.497,78.976 29.823,13.781 36.496,-78.975 c 2.792,-6.04 8.832,-9.915 15.548,-9.835 l 53.84,0.533 0.325,-32.851 -53.84,-0.533 c -0.163,-0.001 -0.328,-0.002 -0.492,-0.002"
         style="fill:#232334;fill-opacity:1;fill-rule:nonzero;stroke:none"
         id="path296"
         inkscape:connector-curvature="0" /><path
         d="m 350.567,548.884 -0.609,-68.961 -0.771,-87.804 c 0,0 -1.895,-2.118 -7.536,-5.084 -4.895,-2.581 -12.594,-5.804 -24.321,-8.847 -13.666,-3.55 -32.912,-4.098 -49.355,-3.695 -18.141,0.445 -32.86,2.04 -32.86,2.04 l 0.377,172.351 c 0,24.253 17.557,44.425 40.662,48.489 2.777,0.48 5.632,0.728 8.555,0.728 l 16.641,0 c 27.176,0 49.217,-22.041 49.217,-49.217"
         style="fill:#232334;fill-opacity:1;fill-rule:nonzero;stroke:none"
         id="path298"
         inkscape:connector-curvature="0" /><path
         d="m 273.792,227.23 16.6137,0 0,95.368 -16.6137,0 0,-95.368 z"
         style="fill:#b1aac3;fill-opacity:1;fill-rule:nonzero;stroke:none"
         id="path300"
         inkscape:connector-curvature="0" /><path
         d="m 273.792,317.221 0,-20.874 16.614,6.06 0,14.132 c -4.158,0.185 -12.16,0.498 -16.614,0.682"
         style="fill:#6b6881;fill-opacity:1;fill-rule:nonzero;stroke:none"
         id="path302"
         inkscape:connector-curvature="0" /><path
         d="m 333.209,314.356 -99.474,0 c -5.098,0 -9.27,4.172 -9.27,9.27 0,5.099 4.172,9.27 9.27,9.27 l 99.474,0 c 5.099,0 9.27,-4.171 9.27,-9.27 0,-5.098 -4.171,-9.27 -9.27,-9.27"
         style="fill:#292935;fill-opacity:1;fill-rule:nonzero;stroke:none"
         id="path304"
         inkscape:connector-curvature="0" /><path
         d="m 352.511,196.436 -10.393,0 c 0,11.704 -10.101,21.226 -22.517,21.226 l -75.721,0 c -12.417,0 -22.518,-9.522 -22.518,-21.226 l -10.393,0 c 0,17.106 14.764,31.022 32.911,31.022 l 75.721,0 c 18.147,0 32.91,-13.916 32.91,-31.022"
         style="fill:#292935;fill-opacity:1;fill-rule:nonzero;stroke:none"
         id="path306"
         inkscape:connector-curvature="0" /><path
         d="m 269.862,227.225 24.2508,0 0,14.9289 -24.2508,0 0,-14.9289 z"
         style="fill:#292935;fill-opacity:1;fill-rule:nonzero;stroke:none"
         id="path308"
         inkscape:connector-curvature="0" /><path
         d="m 224.402,186.963 c 0,-4.494 -3.865,-8.137 -8.633,-8.137 -4.768,0 -8.633,3.643 -8.633,8.137 0,4.495 3.865,8.138 8.633,8.138 4.768,0 8.633,-3.643 8.633,-8.138"
         style="fill:#181d3d;fill-opacity:1;fill-rule:nonzero;stroke:none"
         id="path310"
         inkscape:connector-curvature="0" /><path
         d="m 228.219,187.681 -23.627,0 0,2.152 c 0,6.091 4.938,11.029 11.03,11.029 l 1.567,0 c 6.092,0 11.03,-4.938 11.03,-11.029 l 0,-2.152"
         style="fill:#1c254a;fill-opacity:1;fill-rule:nonzero;stroke:none"
         id="path312"
         inkscape:connector-curvature="0" /><path
         d="m 356.435,186.963 c 0,-4.494 -3.865,-8.137 -8.633,-8.137 -4.767,0 -8.633,3.643 -8.633,8.137 0,4.495 3.866,8.138 8.633,8.138 4.768,0 8.633,-3.643 8.633,-8.138"
         style="fill:#181d3d;fill-opacity:1;fill-rule:nonzero;stroke:none"
         id="path314"
         inkscape:connector-curvature="0" /><path
         d="m 360.252,187.681 -23.627,0 0,2.152 c 0,6.091 4.938,11.029 11.03,11.029 l 1.568,0 c 6.091,0 11.029,-4.938 11.029,-11.029 l 0,-2.152"
         style="fill:#1c254a;fill-opacity:1;fill-rule:nonzero;stroke:none"
         id="path316"
         inkscape:connector-curvature="0" /><path
         d="m 275.598,195.037 13.757,0 0,29.3891 -13.757,0 0,-29.3891 z"
         style="fill:#292935;fill-opacity:1;fill-rule:nonzero;stroke:none"
         id="path318"
         inkscape:connector-curvature="0" /><path
         d="m 291.4,186.963 c 0,-4.494 -3.865,-8.137 -8.633,-8.137 -4.768,0 -8.633,3.643 -8.633,8.137 0,4.495 3.865,8.138 8.633,8.138 4.768,0 8.633,-3.643 8.633,-8.138"
         style="fill:#181d3d;fill-opacity:1;fill-rule:nonzero;stroke:none"
         id="path320"
         inkscape:connector-curvature="0" /><path
         d="m 295.216,187.681 -23.626,0 0,2.152 c 0,6.091 4.938,11.029 11.029,11.029 l 1.568,0 c 6.091,0 11.029,-4.938 11.029,-11.029 l 0,-2.152"
         style="fill:#1c254a;fill-opacity:1;fill-rule:nonzero;stroke:none"
         id="path322"
         inkscape:connector-curvature="0" /><path
         d="m 149.817,502.043 22.249,-160.61 c 1.353,-9.767 9.552,-17.136 19.407,-17.443 l 81.194,-0.93 -45.148,201.956 -57.633,0.032 c -12.288,0.019 -21.755,-10.832 -20.069,-23.005"
         style="fill:#9e1f38;fill-opacity:1;fill-rule:nonzero;stroke:none"
         id="path324"
         inkscape:connector-curvature="0" /><path
         d="m 368.549,323.06 -112.872,0 c -9.623,0 -17.497,7.873 -17.497,17.496 0,9.623 7.874,17.497 17.497,17.497 l 112.872,0 c 9.623,0 17.496,-7.874 17.496,-17.497 0,-9.623 -7.873,-17.496 -17.496,-17.496"
         style="fill:#ef3140;fill-opacity:1;fill-rule:nonzero;stroke:none"
         id="path326"
         inkscape:connector-curvature="0" /><path
         d="m 262.085,554.071 c -2.186,-31.66 3.978,-145.852 5.89,-179.578 -18.141,0.445 -32.86,2.04 -32.86,2.04 l 0.377,172.351 c 0,24.253 17.557,44.425 40.662,48.489 0,0 -11.497,-6.01 -14.069,-43.302"
         style="fill:#1c1c27;fill-opacity:1;fill-rule:nonzero;stroke:none"
         id="path328"
         inkscape:connector-curvature="0" /><path
         d="m 318.674,595.118 -50.773,0 0,14.186 50.773,-6 0,-8.186"
         style="fill:#ffffff;fill-opacity:1;fill-rule:nonzero;stroke:none"
         id="path330"
         inkscape:connector-curvature="0" /><path
         d="m 236.717,345.161 -23.585,164.713 c -1.051,7.338 4.459,14.152 12.243,15.142 7.786,0.991 15.015,-4.203 16.065,-11.541 l 23.585,-164.713 c 1.051,-7.338 -4.459,-14.152 -12.244,-15.142 -7.784,-0.991 -11.813,-6.494 -16.064,11.541"
         style="fill:#ef3140;fill-opacity:1;fill-rule:nonzero;stroke:none"
         id="path332"
         inkscape:connector-curvature="0" /><path
         d="m 349.958,479.923 -0.771,-87.804 c 0,0 -1.895,-2.118 -7.536,-5.084 l -11.693,132.332 c 0,0 10.715,-26.782 20,-39.444"
         style="fill:#1c1c27;fill-opacity:1;fill-rule:nonzero;stroke:none"
         id="path334"
         inkscape:connector-curvature="0" /><g
         transform="scale(0.1,0.1)"
         id="g336"><g
           id="g338"
           clip-path="url(#clipPath340)"><path
             d="m 4983.3,4844.7 14.5195,0 0,15.0313 -14.5195,0 0,-15.0313 z"
             style="fill:#777494;fill-opacity:1;fill-rule:nonzero;stroke:none"
             id="path344"
             inkscape:connector-curvature="0" /></g></g><path
         d="m 548.74,508.86 -27,0 c 2.222,2.335 4.482,4.718 6.741,7.11 l 22.23,0 -1.971,-7.11"
         style="fill:#4e4e60;fill-opacity:1;fill-rule:nonzero;stroke:none"
         id="path346"
         inkscape:connector-curvature="0" /><path
         d="m 550.711,515.97 -22.23,0 c 12.681,13.424 25.374,27.163 31.519,34.7 l 0.265,-0.232 -9.554,-34.468"
         style="fill:#1b2749;fill-opacity:1;fill-rule:nonzero;stroke:none"
         id="path348"
         inkscape:connector-curvature="0" /><path
         d="m 541.98,484.47 -6.205,0 0,15.036 c 0,1.897 -1.545,3.441 -3.442,3.441 l -16.229,0 c 1.835,1.921 3.722,3.899 5.636,5.913 l 27,0 -6.76,-24.39"
         style="fill:#777494;fill-opacity:1;fill-rule:nonzero;stroke:none"
         id="path350"
         inkscape:connector-curvature="0" /><path
         d="m 540.439,457.367 108.86,0 c 0.605,0.87 1.084,1.854 1.374,2.913 l 24.356,87.923 c 1.173,4.188 -1.98,8.338 -6.332,8.338 l -95.781,0 c -2.951,0 -5.537,-1.981 -6.331,-4.819 l -26.146,-94.355"
         style="fill:#dfdfdd;fill-opacity:1;fill-rule:nonzero;stroke:none"
         id="path352"
         inkscape:connector-curvature="0" /><path
         d="M 669.83,551.34 645.49,463.5 c -1.13,-4.09 -4.85,-6.92 -9.1,-6.92 l -102.14,0 27.24,98.28 c 0.79,2.84 3.37,4.81 6.32,4.81 l 95.69,0 c 4.35,0 7.49,-4.14 6.33,-8.33"
         style="fill:#9f9aaf;fill-opacity:1;fill-rule:nonzero;stroke:none"
         id="path354"
         inkscape:connector-curvature="0" /><path
         d="m 664.452,547.473 -19.89,-71.627 -4.173,-15.002 -101.33,0 4.16,15.002 20.805,74.886 c 0.727,2.632 3.134,4.449 5.866,4.449 l 88.696,0 c 4.024,0 6.944,-3.836 5.866,-7.708"
         style="fill:#233366;fill-opacity:1;fill-rule:nonzero;stroke:none"
         id="path356"
         inkscape:connector-curvature="0" /><path
         d="m 604.763,545.438 -31.189,0 0.695,2.194 31.188,0 -0.694,-2.194"
         style="fill:#eff1f2;fill-opacity:1;fill-rule:nonzero;stroke:none"
         id="path358"
         inkscape:connector-curvature="0" /><path
         d="m 633.052,545.438 -14.767,0 0.695,2.194 14.767,0 -0.695,-2.194"
         style="fill:#eb3d3c;fill-opacity:1;fill-rule:nonzero;stroke:none"
         id="path360"
         inkscape:connector-curvature="0" /><path
         d="m 654.373,545.438 -14.768,0 0.695,2.194 14.767,0 -0.694,-2.194"
         style="fill:#9f9aaf;fill-opacity:1;fill-rule:nonzero;stroke:none"
         id="path362"
         inkscape:connector-curvature="0" /><path
         d="m 637.86,545.438 -3.493,0 0.694,2.194 3.493,0 -0.694,-2.194"
         style="fill:#6f84ca;fill-opacity:1;fill-rule:nonzero;stroke:none"
         id="path364"
         inkscape:connector-curvature="0" /><path
         d="m 616.575,545.438 -10.35,0 0.694,2.194 10.35,0 -0.694,-2.194"
         style="fill:#9f9aaf;fill-opacity:1;fill-rule:nonzero;stroke:none"
         id="path366"
         inkscape:connector-curvature="0" /><path
         d="m 583.044,508.016 14.767,0 0.695,2.193 -14.767,0 -0.695,-2.193"
         style="fill:#dfdfdd;fill-opacity:1;fill-rule:nonzero;stroke:none"
         id="path368"
         inkscape:connector-curvature="0" /><path
         d="m 561.725,508.016 14.767,0 0.694,2.193 -14.767,0 -0.694,-2.193"
         style="fill:#fbc02c;fill-opacity:1;fill-rule:nonzero;stroke:none"
         id="path370"
         inkscape:connector-curvature="0" /><path
         d="m 578.237,508.016 3.493,0 0.695,2.193 -3.493,0 -0.695,-2.193"
         style="fill:#6f84ca;fill-opacity:1;fill-rule:nonzero;stroke:none"
         id="path372"
         inkscape:connector-curvature="0" /><path
         d="m 582.308,536.083 -11.696,0 0.694,2.193 11.696,0 -0.694,-2.193"
         style="fill:#eb3d3c;fill-opacity:1;fill-rule:nonzero;stroke:none"
         id="path374"
         inkscape:connector-curvature="0" /><path
         d="m 610.598,536.083 -5.021,0 0.694,2.193 5.021,0 -0.694,-2.193"
         style="fill:#6f84ca;fill-opacity:1;fill-rule:nonzero;stroke:none"
         id="path376"
         inkscape:connector-curvature="0" /><path
         d="m 651.41,536.083 -24.514,0 0.695,2.193 24.513,0 -0.694,-2.193"
         style="fill:#eb3d3c;fill-opacity:1;fill-rule:nonzero;stroke:none"
         id="path378"
         inkscape:connector-curvature="0" /><path
         d="m 625.151,536.083 -13.24,0 0.695,2.193 13.24,0 -0.695,-2.193"
         style="fill:#6f84ca;fill-opacity:1;fill-rule:nonzero;stroke:none"
         id="path380"
         inkscape:connector-curvature="0" /><path
         d="m 603.867,536.083 -20.097,0 0.694,2.193 20.097,0 -0.694,-2.193"
         style="fill:#6f84ca;fill-opacity:1;fill-rule:nonzero;stroke:none"
         id="path382"
         inkscape:connector-curvature="0" /><path
         d="m 564.533,479.949 -11.696,0 0.695,2.193 11.695,0 -0.694,-2.193"
         style="fill:#2f396e;fill-opacity:1;fill-rule:nonzero;stroke:none"
         id="path384"
         inkscape:connector-curvature="0" /><path
         d="m 579.345,526.727 -11.696,0 0.695,2.193 11.696,0 -0.695,-2.193"
         style="fill:#dfdfdd;fill-opacity:1;fill-rule:nonzero;stroke:none"
         id="path386"
         inkscape:connector-curvature="0" /><path
         d="m 598.433,526.727 -11.696,0 0.694,2.193 11.696,0 -0.694,-2.193"
         style="fill:#dfdfdd;fill-opacity:1;fill-rule:nonzero;stroke:none"
         id="path388"
         inkscape:connector-curvature="0" /><path
         d="m 645.201,526.727 -20.097,0 0.694,2.193 20.098,0 -0.695,-2.193"
         style="fill:#6f84ca;fill-opacity:1;fill-rule:nonzero;stroke:none"
         id="path390"
         inkscape:connector-curvature="0" /><path
         d="m 564.687,517.372 20.097,0 0.695,2.193 -20.098,0 -0.694,-2.193"
         style="fill:#6f84ca;fill-opacity:1;fill-rule:nonzero;stroke:none"
         id="path392"
         inkscape:connector-curvature="0" /><path
         d="m 645.887,475.846 -4.279,-15.002 -103.874,0 4.266,15.002 103.887,0"
         style="fill:#9f9aaf;fill-opacity:1;fill-rule:nonzero;stroke:none"
         id="path394"
         inkscape:connector-curvature="0" /><path
         d="m 589.946,456.343 -124.429,0 c -2.908,0 -5.288,2.379 -5.288,5.288 0,2.908 2.38,5.288 5.288,5.288 l 124.429,0 c 2.909,0 5.288,-2.38 5.288,-5.288 0,-2.909 -2.379,-5.288 -5.288,-5.288"
         style="fill:#9f9aaf;fill-opacity:1;fill-rule:nonzero;stroke:none"
         id="path396"
         inkscape:connector-curvature="0" /><path
         d="m 636.82,555.181 -39.13,0 2.05,4.489 39.13,0 -2.05,-4.489"
         style="fill:#c3c1dd;fill-opacity:1;fill-rule:nonzero;stroke:none"
         id="path398"
         inkscape:connector-curvature="0" /><path
         d="m 600.598,475.846 -39.13,0 0.002,0.004 1.871,4.099 1.192,0 0.694,2.193 -0.884,0 11.813,25.874 0.336,0 0.694,2.193 -0.029,0 3.271,7.163 4.356,0 0.695,2.193 -4.05,0 7.542,16.518 14.896,0 0.694,2.193 -14.589,0 3.27,7.162 11.521,0 0.694,2.194 -11.214,0 3.447,7.548 0,0.001 39.13,0 0,-0.001 -3.447,-7.548 -14.393,0 -0.695,-2.194 14.087,0 -3.27,-7.162 -1.511,0 -0.695,-2.193 1.205,0 -27.501,-60.233 -0.002,-0.004 m -16.859,34.363 -0.695,-2.193 14.767,0 0.695,2.193 -14.767,0 m -4.807,0 -0.695,-2.193 3.493,0 0.695,2.193 -3.493,0 m 8.499,18.711 -0.694,-2.193 11.696,0 0.694,2.193 -11.696,0 m 25.175,9.356 -0.695,-2.193 13.24,0 0.695,2.193 -13.24,0 m -6.335,0 -0.694,-2.193 5.021,0 0.694,2.193 -5.021,0 m 0.648,9.356 -0.694,-2.194 10.35,0 0.694,2.194 -10.35,0"
         style="fill:#3044a0;fill-opacity:1;fill-rule:nonzero;stroke:none"
         id="path400"
         inkscape:connector-curvature="0" /><path
         d="m 604.763,545.438 -11.521,0 1.001,2.194 11.214,0 -0.694,-2.194"
         style="fill:#f6f8fb;fill-opacity:1;fill-rule:nonzero;stroke:none"
         id="path402"
         inkscape:connector-curvature="0" /><path
         d="m 632.372,545.438 -14.087,0 0.695,2.194 14.393,0 -1.001,-2.194"
         style="fill:#f2585c;fill-opacity:1;fill-rule:nonzero;stroke:none"
         id="path404"
         inkscape:connector-curvature="0" /><path
         d="m 616.575,545.438 -10.35,0 0.694,2.194 10.35,0 -0.694,-2.194"
         style="fill:#c3c1dd;fill-opacity:1;fill-rule:nonzero;stroke:none"
         id="path406"
         inkscape:connector-curvature="0" /><path
         d="m 597.811,508.016 -14.767,0 0.695,2.193 14.767,0 -0.695,-2.193"
         style="fill:#ececf1;fill-opacity:1;fill-rule:nonzero;stroke:none"
         id="path408"
         inkscape:connector-curvature="0" /><path
         d="m 576.492,508.016 -0.336,0 1.001,2.193 0.029,0 -0.694,-2.193"
         style="fill:#fbda49;fill-opacity:1;fill-rule:nonzero;stroke:none"
         id="path410"
         inkscape:connector-curvature="0" /><path
         d="m 581.73,508.016 -3.493,0 0.695,2.193 3.493,0 -0.695,-2.193"
         style="fill:#98b5e3;fill-opacity:1;fill-rule:nonzero;stroke:none"
         id="path412"
         inkscape:connector-curvature="0" /><path
         d="m 610.598,536.083 -5.021,0 0.694,2.193 5.021,0 -0.694,-2.193"
         style="fill:#98b5e3;fill-opacity:1;fill-rule:nonzero;stroke:none"
         id="path414"
         inkscape:connector-curvature="0" /><path
         d="m 628.101,536.083 -1.205,0 0.695,2.193 1.511,0 -1.001,-2.193"
         style="fill:#f2585c;fill-opacity:1;fill-rule:nonzero;stroke:none"
         id="path416"
         inkscape:connector-curvature="0" /><path
         d="m 625.151,536.083 -13.24,0 0.695,2.193 13.24,0 -0.695,-2.193"
         style="fill:#98b5e3;fill-opacity:1;fill-rule:nonzero;stroke:none"
         id="path418"
         inkscape:connector-curvature="0" /><path
         d="m 603.867,536.083 -14.896,0 1.001,2.193 14.589,0 -0.694,-2.193"
         style="fill:#98b5e3;fill-opacity:1;fill-rule:nonzero;stroke:none"
         id="path420"
         inkscape:connector-curvature="0" /><path
         d="m 564.533,479.949 -1.192,0 1.002,2.193 0.884,0 -0.694,-2.193"
         style="fill:#424ca8;fill-opacity:1;fill-rule:nonzero;stroke:none"
         id="path422"
         inkscape:connector-curvature="0" /><path
         d="m 598.433,526.727 -11.696,0 0.694,2.193 11.696,0 -0.694,-2.193"
         style="fill:#ececf1;fill-opacity:1;fill-rule:nonzero;stroke:none"
         id="path424"
         inkscape:connector-curvature="0" /><path
         d="m 584.784,517.372 -4.356,0 1.001,2.193 4.05,0 -0.695,-2.193"
         style="fill:#98b5e3;fill-opacity:1;fill-rule:nonzero;stroke:none"
         id="path426"
         inkscape:connector-curvature="0" /><path
         d="m 596.86,467.67 -39.13,0 3.738,8.176 39.13,0 -3.738,-8.176"
         style="fill:#c3c1dd;fill-opacity:1;fill-rule:nonzero;stroke:none"
         id="path428"
         inkscape:connector-curvature="0" /><path
         d="m 469.95,515.97 -57.56,0 15.535,34.014 21.948,0 0,2.252 -20.919,0 3.358,7.353 13.252,0 0,2.251 -12.224,0 3.358,7.353 13.175,0 0,2.251 -12.147,0 3.359,7.353 14.694,0 0,2.251 -13.666,0 3.358,7.353 4.402,0 0,2.251 -3.374,0 3.359,7.353 0.015,0 0,0.034 4.371,9.57 9.664,0 0,2.251 -8.636,0 3.358,7.353 11.564,0 0,2.251 -10.535,0 6.561,14.366 57.56,0 -10.947,-23.97 -14.942,0 0,-2.251 13.913,0 -12.131,-26.561 -15.698,0 0,-2.251 14.67,0 -7.745,-16.957 -17.14,0 0,-2.251 16.112,0 -3.358,-7.353 -19.867,0 0,-2.252 18.838,0 -15.535,-34.014 m -16.511,36.266 0,-2.252 10.469,0 0,2.252 -10.469,0 m -4.826,9.604 0,-2.251 21.581,0 0,2.251 -21.581,0 m 18.034,9.604 0,-2.251 27.605,0 0,2.251 -27.605,0 m -13.208,0 0,-2.251 10.469,0 0,2.251 -10.469,0 m 5.906,9.604 0,-2.251 21.581,0 0,2.251 -21.581,0 m 7.302,28.812 0,-2.251 27.605,0 0,2.251 -27.605,0 m 40.642,9.604 0,-2.251 7.284,0 0,2.251 -7.284,0 m -33.529,0 0,-2.251 30.789,0 0,2.251 -30.789,0"
         style="fill:#3044a0;fill-opacity:1;fill-rule:nonzero;stroke:none"
         id="path430"
         inkscape:connector-curvature="0" /><path
         d="m 473.76,617.213 30.7891,0 0,2.25117 -30.7891,0 0,-2.25117 z"
         style="fill:#ececf1;fill-opacity:1;fill-rule:nonzero;stroke:none"
         id="path432"
         inkscape:connector-curvature="0" /><path
         d="m 507.289,617.213 7.28398,0 0,2.25117 -7.28398,0 0,-2.25117 z"
         style="fill:#98b5e3;fill-opacity:1;fill-rule:nonzero;stroke:none"
         id="path434"
         inkscape:connector-curvature="0" /><path
         d="m 470.194,617.213 -11.564,0 1.029,2.251 10.535,0 0,-2.251"
         style="fill:#f2585c;fill-opacity:1;fill-rule:nonzero;stroke:none"
         id="path436"
         inkscape:connector-curvature="0" /><path
         d="m 445.564,559.589 -13.252,0 1.028,2.251 12.224,0 0,-2.251"
         style="fill:#98b5e3;fill-opacity:1;fill-rule:nonzero;stroke:none"
         id="path438"
         inkscape:connector-curvature="0" /><path
         d="m 489.872,559.589 -16.112,0 0,2.251 17.14,0 -1.028,-2.251"
         style="fill:#ececf1;fill-opacity:1;fill-rule:nonzero;stroke:none"
         id="path440"
         inkscape:connector-curvature="0" /><path
         d="m 448.613,559.589 21.5813,0 0,2.25078 -21.5813,0 0,-2.25078 z"
         style="fill:#c3c1dd;fill-opacity:1;fill-rule:nonzero;stroke:none"
         id="path442"
         inkscape:connector-curvature="0" /><path
         d="m 498.645,578.797 -14.67,0 0,2.251 15.698,0 -1.028,-2.251"
         style="fill:#98b5e3;fill-opacity:1;fill-rule:nonzero;stroke:none"
         id="path444"
         inkscape:connector-curvature="0" /><path
         d="m 455.779,578.797 -14.694,0 1.028,2.251 13.666,0 0,-2.251"
         style="fill:#ececf1;fill-opacity:1;fill-rule:nonzero;stroke:none"
         id="path446"
         inkscape:connector-curvature="0" /><path
         d="m 459.345,578.797 21.5813,0 0,2.25117 -21.5813,0 0,-2.25117 z"
         style="fill:#c3c1dd;fill-opacity:1;fill-rule:nonzero;stroke:none"
         id="path448"
         inkscape:connector-curvature="0" /><path
         d="m 463.908,607.609 -9.664,0 1.028,2.251 8.636,0 0,-2.251"
         style="fill:#98b5e3;fill-opacity:1;fill-rule:nonzero;stroke:none"
         id="path450"
         inkscape:connector-curvature="0" /><path
         d="m 511.804,607.609 -13.913,0 0,2.251 14.942,0 -1.029,-2.251"
         style="fill:#ececf1;fill-opacity:1;fill-rule:nonzero;stroke:none"
         id="path452"
         inkscape:connector-curvature="0" /><path
         d="m 466.647,607.609 27.6051,0 0,2.25117 -27.6051,0 0,-2.25117 z"
         style="fill:#98b5e3;fill-opacity:1;fill-rule:nonzero;stroke:none"
         id="path454"
         inkscape:connector-curvature="0" /><path
         d="m 453.439,549.984 10.4691,0 0,2.25195 -10.4691,0 0,-2.25195 z"
         style="fill:#98b5e3;fill-opacity:1;fill-rule:nonzero;stroke:none"
         id="path456"
         inkscape:connector-curvature="0" /><path
         d="m 485.485,549.984 -18.838,0 0,2.252 19.867,0 -1.029,-2.252"
         style="fill:#98b5e3;fill-opacity:1;fill-rule:nonzero;stroke:none"
         id="path458"
         inkscape:connector-curvature="0" /><path
         d="m 449.873,549.984 -21.948,0 1.029,2.252 20.919,0 0,-2.252"
         style="fill:#98b5e3;fill-opacity:1;fill-rule:nonzero;stroke:none"
         id="path460"
         inkscape:connector-curvature="0" /><path
         d="m 453.439,569.193 10.4691,0 0,2.25117 -10.4691,0 0,-2.25117 z"
         style="fill:#98b5e3;fill-opacity:1;fill-rule:nonzero;stroke:none"
         id="path462"
         inkscape:connector-curvature="0" /><path
         d="m 466.647,569.193 27.6051,0 0,2.25117 -27.6051,0 0,-2.25117 z"
         style="fill:#98b5e3;fill-opacity:1;fill-rule:nonzero;stroke:none"
         id="path464"
         inkscape:connector-curvature="0" /><path
         d="m 449.873,569.193 -13.175,0 1.028,2.251 12.147,0 0,-2.251"
         style="fill:#98b5e3;fill-opacity:1;fill-rule:nonzero;stroke:none"
         id="path466"
         inkscape:connector-curvature="0" /><path
         d="m 449.873,598.005 -0.015,0 0.015,0.034 0,-0.034"
         style="fill:#98b5e3;fill-opacity:1;fill-rule:nonzero;stroke:none"
         id="path468"
         inkscape:connector-curvature="0" /><path
         d="m 449.873,588.401 -4.402,0 1.028,2.251 3.374,0 0,-2.251"
         style="fill:#ececf1;fill-opacity:1;fill-rule:nonzero;stroke:none"
         id="path470"
         inkscape:connector-curvature="0" /><path
         d="m 637.117,456.67 -72.018,0 c -2.909,0 -5.288,2.38 -5.288,5.288 0,2.909 2.379,5.288 5.288,5.288 l 72.018,0 c 2.908,0 5.288,-2.379 5.288,-5.288 0,-2.908 -2.38,-5.288 -5.288,-5.288"
         style="fill:#dfdfdd;fill-opacity:1;fill-rule:nonzero;stroke:none"
         id="path472"
         inkscape:connector-curvature="0" /><path
         d="m 600.951,460.656 10.2848,0 0,3.08516 -10.2848,0 0,-3.08516 z"
         style="fill:#181d3d;fill-opacity:1;fill-rule:nonzero;stroke:none"
         id="path474"
         inkscape:connector-curvature="0" /><path
         d="m 590.409,460.656 7.45586,0 0,3.08516 -7.45586,0 0,-3.08516 z"
         style="fill:#181d3d;fill-opacity:1;fill-rule:nonzero;stroke:none"
         id="path476"
         inkscape:connector-curvature="0" /><path
         d="m 535.775,499.506 0,-43.085 -35.993,0 0,43.085 c 0,1.897 1.545,3.441 3.442,3.441 l 29.109,0 c 1.897,0 3.442,-1.544 3.442,-3.441"
         style="fill:#f0393f;fill-opacity:1;fill-rule:nonzero;stroke:none"
         id="path478"
         inkscape:connector-curvature="0" /><path
         d="m 500.226,463.794 c -0.47,0.269 -11.518,6.741 -12.504,18.076 -0.376,4.322 1.259,7 2.697,8.485 3.955,4.084 10.527,3.849 11.263,3.81 l -0.287,-5.259 c -1.335,0.062 -5.264,-0.21 -7.202,-2.226 -0.989,-1.028 -1.389,-2.452 -1.224,-4.354 0.75,-8.625 9.79,-13.913 9.881,-13.965 l -2.624,-4.567"
         style="fill:#eb3d3c;fill-opacity:1;fill-rule:nonzero;stroke:none"
         id="path480"
         inkscape:connector-curvature="0" /><path
         d="m 518.955,456.421 -19.173,0 0,43.085 c 0,1.897 1.545,3.441 3.442,3.441 l 1.159,0 c 0.052,-2.248 0.667,-19.435 5.495,-31.814 4.196,-10.779 7.936,-13.957 9.077,-14.712"
         style="fill:#eb3d3c;fill-opacity:1;fill-rule:nonzero;stroke:none"
         id="path482"
         inkscape:connector-curvature="0" /><path
         d="m 518.955,456.419 -19.173,0 0,0.002 19.17,0 c 10e-4,-10e-4 0.002,-10e-4 0.003,-0.002"
         style="fill:#c73341;fill-opacity:1;fill-rule:nonzero;stroke:none"
         id="path484"
         inkscape:connector-curvature="0" /><path
         d="m 495.279,467.582 c -3.255,3.058 -7.009,7.905 -7.559,14.295 -0.024,0.284 -0.04,0.56 -0.047,0.829 0.008,-0.271 0.024,-0.55 0.049,-0.836 0.555,-6.386 4.305,-11.228 7.557,-14.288 m 4.503,3.031 c -2.726,2.334 -6.35,6.387 -6.813,11.713 -0.069,0.797 -0.039,1.509 0.092,2.144 l 0.001,0 c -0.129,-0.633 -0.158,-1.343 -0.092,-2.136 0.474,-5.338 4.091,-9.393 6.812,-11.711 l 0,-0.01"
         style="fill:#b52933;fill-opacity:1;fill-rule:nonzero;stroke:none"
         id="path486"
         inkscape:connector-curvature="0" /><path
         d="m 493.062,484.47 -0.001,0 c 0.067,0.328 0.162,0.635 0.283,0.922 -0.121,-0.288 -0.215,-0.595 -0.282,-0.922"
         style="fill:#c93445;fill-opacity:1;fill-rule:nonzero;stroke:none"
         id="path488"
         inkscape:connector-curvature="0" /><path
         d="m 487.673,482.712 c 0,0.003 0,0.007 -10e-4,0.01 10e-4,-0.004 10e-4,-0.007 10e-4,-0.01"
         style="fill:#b52933;fill-opacity:1;fill-rule:nonzero;stroke:none"
         id="path490"
         inkscape:connector-curvature="0" /><path
         d="m 494.292,486.78 c 1.414,1.381 3.781,1.906 5.49,2.07 l 0,-0.003 c -1.701,-0.154 -4.073,-0.695 -5.49,-2.067 m 2.044,6.816 c 1.289,0.333 2.498,0.485 3.446,0.554 l 0,-0.011 c -0.947,-0.063 -2.156,-0.212 -3.446,-0.543"
         style="fill:#c93445;fill-opacity:1;fill-rule:nonzero;stroke:none"
         id="path492"
         inkscape:connector-curvature="0" /><path
         d="m 499.782,464.074 c -0.8,0.498 -2.563,1.685 -4.503,3.508 -3.252,3.06 -7.002,7.902 -7.557,14.288 -0.025,0.286 -0.041,0.565 -0.049,0.836 0,0.002 0,0.004 0,0.006 0,0.003 0,0.006 -10e-4,0.01 -0.103,3.826 1.409,6.243 2.752,7.635 1.71,1.763 3.908,2.72 5.912,3.239 1.29,0.331 2.499,0.48 3.446,0.543 l 0,-5.289 c -1.709,-0.164 -4.076,-0.689 -5.49,-2.07 -0.032,-0.03 -0.062,-0.061 -0.093,-0.092 -0.366,-0.379 -0.65,-0.81 -0.855,-1.296 -0.121,-0.287 -0.216,-0.594 -0.283,-0.922 -0.131,-0.635 -0.161,-1.347 -0.092,-2.144 0.463,-5.326 4.087,-9.379 6.813,-11.713 l 0,-6.539"
         style="fill:#d62a2b;fill-opacity:1;fill-rule:nonzero;stroke:none"
         id="path494"
         inkscape:connector-curvature="0" /><path
         d="m 518.952,456.421 -19.17,0 0,43.084 c 0,1.896 1.545,3.441 3.441,3.441 l 1.159,0 c 0.053,-2.248 0.667,-19.436 5.495,-31.814 4.194,-10.773 7.931,-13.954 9.075,-14.711"
         style="fill:#d62a2b;fill-opacity:1;fill-rule:nonzero;stroke:none"
         id="path496"
         inkscape:connector-curvature="0" /><path
         d="m 119.13,480.183 -4.077,0.722 9.958,56.262 4.077,-0.722 -9.958,-56.262"
         style="fill:#5e6eb7;fill-opacity:1;fill-rule:nonzero;stroke:none"
         id="path498"
         inkscape:connector-curvature="0" /><path
         d="m 127.569,520.736 -6.319,1.118 2.994,16.92 6.319,-1.119 -2.994,-16.919"
         style="fill:#5e6eb7;fill-opacity:1;fill-rule:nonzero;stroke:none"
         id="path500"
         inkscape:connector-curvature="0" /><path
         d="m 112.333,473 -4.125,0.346 4.774,56.936 2.497,3.642 1.629,-3.988 L 112.333,473"
         style="fill:#73335e;fill-opacity:1;fill-rule:nonzero;stroke:none"
         id="path502"
         inkscape:connector-curvature="0" /><path
         d="m 106.599,470.091 -4.064,-0.792 -10.9182,56.083 1.409,4.185 2.6551,-3.393 10.9181,-56.083"
         style="fill:#1e2b54;fill-opacity:1;fill-rule:nonzero;stroke:none"
         id="path504"
         inkscape:connector-curvature="0" /><path
         d="m 115.736,457.045 -17.6962,0 -5.8015,46.846 29.2997,0 -5.802,-46.846"
         style="fill:#f3734d;fill-opacity:1;fill-rule:nonzero;stroke:none"
         id="path506"
         inkscape:connector-curvature="0" /><path
         d="m 122.408,457.045 -17.696,0 -2.611,46.846 26.109,0 -5.802,-46.846"
         style="fill:#fab549;fill-opacity:1;fill-rule:nonzero;stroke:none"
         id="path508"
         inkscape:connector-curvature="0" /><path
         d="m 668.693,386.448 0,-25.781 90.033,0 c 5.589,0 10.364,3.57 12.149,8.556 0.479,1.35 0.748,2.812 0.748,4.34 0,3.548 -1.44,6.772 -3.771,9.114 -2.343,2.332 -5.567,3.771 -9.126,3.771 l -90.033,0"
         style="fill:#ef3140;fill-opacity:1;fill-rule:nonzero;stroke:none"
         id="path510"
         inkscape:connector-curvature="0" /><path
         d="m 758.726,360.667 -69.879,0 0,8.556 82.028,0 c -1.785,-4.986 -6.56,-8.556 -12.149,-8.556"
         style="fill:#d7272c;fill-opacity:1;fill-rule:nonzero;stroke:none"
         id="path512"
         inkscape:connector-curvature="0" /><path
         d="m 649.445,386.453 -0.001,-25.789 59.031,0 c 7.118,0 12.894,5.777 12.894,12.895 0,3.551 -1.444,6.778 -3.772,9.121 -2.343,2.329 -5.57,3.773 -9.122,3.773 l -59.03,0"
         style="fill:#9e1f38;fill-opacity:1;fill-rule:nonzero;stroke:none"
         id="path514"
         inkscape:connector-curvature="0" /><path
         d="m 649.445,382.032 -0.001,-16.534 55.554,0 c 4.568,0 8.266,3.699 8.266,8.267 0,2.284 -0.928,4.347 -2.417,5.85 -1.503,1.489 -3.566,2.417 -5.849,2.417 l -55.553,0"
         style="fill:#ffffff;fill-opacity:1;fill-rule:nonzero;stroke:none"
         id="path516"
         inkscape:connector-curvature="0" /><path
         d="m 666.952,437.698 0,-25.789 90.032,0.001 c 7.118,0 12.894,5.776 12.894,12.894 0,3.552 -1.444,6.779 -3.772,9.122 -2.343,2.328 -5.57,3.772 -9.122,3.772 l -90.032,0"
         style="fill:#f9a629;fill-opacity:1;fill-rule:nonzero;stroke:none"
         id="path518"
         inkscape:connector-curvature="0" /><path
         d="m 687.359,429.09 0,8.556 69.88,0 c 5.589,0 10.364,-3.57 12.148,-8.556 l -82.028,0"
         style="fill:#fad61a;fill-opacity:1;fill-rule:nonzero;stroke:none"
         id="path520"
         inkscape:connector-curvature="0" /><path
         d="m 649.445,437.698 0,-25.789 59.03,0.001 c 7.118,0 12.894,5.776 12.894,12.894 0,3.552 -1.444,6.779 -3.772,9.122 -2.343,2.328 -5.57,3.772 -9.122,3.772 l -59.03,0"
         style="fill:#f26c45;fill-opacity:1;fill-rule:nonzero;stroke:none"
         id="path522"
         inkscape:connector-curvature="0" /><path
         d="m 649.445,433.277 0,-16.534 55.553,0.001 c 4.568,0 8.266,3.698 8.266,8.266 0,2.284 -0.928,4.347 -2.417,5.85 -1.503,1.489 -3.566,2.417 -5.849,2.417 l -55.553,0"
         style="fill:#ffffff;fill-opacity:1;fill-rule:nonzero;stroke:none"
         id="path524"
         inkscape:connector-curvature="0" /><path
         d="m 662.301,411.761 0,-25.793 90.033,0 c 7.117,0 12.885,5.779 12.885,12.897 0,2.186 -0.547,4.25 -1.506,6.057 -0.603,1.127 -1.372,2.164 -2.265,3.068 -2.343,2.332 -5.567,3.771 -9.114,3.771 l -90.033,0"
         style="fill:#94d122;fill-opacity:1;fill-rule:nonzero;stroke:none"
         id="path526"
         inkscape:connector-curvature="0" /><path
         d="m 664.683,411.761 0,-6.839 99.03,0 c -0.603,1.127 -1.372,2.164 -2.265,3.068 -2.343,2.332 -5.567,3.771 -9.114,3.771 l -87.651,0"
         style="fill:#639f30;fill-opacity:1;fill-rule:nonzero;stroke:none"
         id="path528"
         inkscape:connector-curvature="0" /><path
         d="m 664.683,385.957 0,6.839 99.03,0 c -0.603,-1.127 -1.372,-2.164 -2.265,-3.068 -2.343,-2.332 -5.567,-3.771 -9.114,-3.771 l -87.651,0"
         style="fill:#639f30;fill-opacity:1;fill-rule:nonzero;stroke:none"
         id="path530"
         inkscape:connector-curvature="0" /><path
         d="m 638.737,411.76 0,-25.788 54.03,0 c 7.117,0 12.894,5.777 12.894,12.894 0,3.552 -1.444,6.779 -3.773,9.122 -2.343,2.329 -5.57,3.773 -9.121,3.773 l -54.03,-0.001"
         style="fill:#448532;fill-opacity:1;fill-rule:nonzero;stroke:none"
         id="path532"
         inkscape:connector-curvature="0" /><path
         d="m 638.737,407.339 0,-16.533 50.552,0 c 4.568,0 8.267,3.698 8.267,8.267 0,2.284 -0.929,4.347 -2.417,5.85 -1.503,1.489 -3.566,2.417 -5.85,2.417 l -50.552,-10e-4"
         style="fill:#ffffff;fill-opacity:1;fill-rule:nonzero;stroke:none"
         id="path534"
         inkscape:connector-curvature="0" /><path
         d="m 676.189,563.169 0,0 c -4.307,4.594 -3.934,11.683 0.834,15.834 l 0.54,0.47 c 4.767,4.15 12.125,3.791 16.432,-0.803 l 0,-10e-4 c 4.308,-4.594 3.935,-11.682 -0.833,-15.833 l -0.54,-0.47 c -4.768,-4.15 -12.125,-3.791 -16.433,0.803"
         style="fill:#181d3d;fill-opacity:1;fill-rule:nonzero;stroke:none"
         id="path536"
         inkscape:connector-curvature="0" /><path
         d="m 685.338,540.874 -11.331,-9.864 -32.174,34.313 11.331,9.864 c 7.851,6.834 19.112,7.742 27.852,2.999 2.208,-1.194 4.249,-2.744 6.041,-4.655 4.438,-4.734 6.469,-10.756 6.166,-16.672 -0.32,-5.915 -2.972,-11.709 -7.885,-15.985"
         style="fill:#df6b45;fill-opacity:1;fill-rule:nonzero;stroke:none"
         id="path538"
         inkscape:connector-curvature="0" /><path
         d="m 675.101,551.792 -11.331,-9.864 -21.937,23.395 11.331,9.864 c 7.851,6.834 19.112,7.742 27.852,2.999 1.501,-3.31 2.155,-6.876 1.969,-10.409 -0.318,-5.915 -2.971,-11.709 -7.884,-15.985"
         style="fill:#fbc02c;fill-opacity:1;fill-rule:nonzero;stroke:none"
         id="path540"
         inkscape:connector-curvature="0" /><path
         d="m 674.594,531.142 c -3.418,-3.052 -13.52,2.047 -22.562,11.41 -9.043,9.364 -13.614,19.432 -10.19,22.493 2.696,2.42 9.578,-0.264 16.817,-6.123 1.906,-1.556 3.85,-3.326 5.736,-5.282 2.205,-2.286 4.148,-4.612 5.769,-6.87 5.035,-6.989 7.013,-13.316 4.43,-15.628"
         style="fill:#9f9aaf;fill-opacity:1;fill-rule:nonzero;stroke:none"
         id="path542"
         inkscape:connector-curvature="0" /><path
         d="m 670.164,546.77 c -2.619,-2.884 -7.072,-3.707 -10.681,-1.743 -4.122,2.244 -5.581,7.299 -3.247,11.279 0.622,1.061 1.455,1.948 2.423,2.616 1.906,-1.556 3.85,-3.326 5.736,-5.282 2.205,-2.286 4.148,-4.612 5.769,-6.87"
         style="fill:#ffffff;fill-opacity:1;fill-rule:nonzero;stroke:none"
         id="path544"
         inkscape:connector-curvature="0" /><path
         d="m 733.414,452.208 29.372,94.809 -59.479,39.621 -12.483,-10.613"
         style="fill:none;stroke:#181d3d;stroke-width:4.59430981;stroke-linecap:butt;stroke-linejoin:miter;stroke-miterlimit:10;stroke-dasharray:none;stroke-opacity:1"
         id="path546"
         inkscape:connector-curvature="0" /><path
         d="m 709.838,586.074 c 0,-3.891 -3.274,-7.046 -7.313,-7.046 -4.039,0 -7.313,3.155 -7.313,7.046 0,3.892 3.274,7.047 7.313,7.047 4.039,0 7.313,-3.155 7.313,-7.047"
         style="fill:#181d3d;fill-opacity:1;fill-rule:nonzero;stroke:none"
         id="path548"
         inkscape:connector-curvature="0" /><path
         d="m 706.182,586.074 c 0,-1.945 -1.638,-3.523 -3.657,-3.523 -2.02,0 -3.656,1.578 -3.656,3.523 0,1.946 1.636,3.524 3.656,3.524 2.019,0 3.657,-1.578 3.657,-3.524"
         style="fill:#2f396e;fill-opacity:1;fill-rule:nonzero;stroke:none"
         id="path550"
         inkscape:connector-curvature="0" /><path
         d="m 762.98,437.384 -75.667,0 c 0,8.303 6.731,15.033 15.033,15.033 l 45.602,0 c 8.302,0 15.032,-6.73 15.032,-15.033"
         style="fill:#2f396e;fill-opacity:1;fill-rule:nonzero;stroke:none"
         id="path552"
         inkscape:connector-curvature="0" /><path
         d="m 702.915,452.041 13.6512,0 0,4.13398 -13.6512,0 0,-4.13398 z"
         style="fill:#181d3d;fill-opacity:1;fill-rule:nonzero;stroke:none"
         id="path554"
         inkscape:connector-curvature="0" /><path
         d="m 772.439,546.05 c 0,-5.448 -4.584,-9.865 -10.239,-9.865 -5.654,0 -10.238,4.417 -10.238,9.865 0,5.449 4.584,9.865 10.238,9.865 5.655,0 10.239,-4.416 10.239,-9.865"
         style="fill:#181d3d;fill-opacity:1;fill-rule:nonzero;stroke:none"
         id="path556"
         inkscape:connector-curvature="0" /><path
         d="m 767.319,546.05 c 0,-2.724 -2.291,-4.933 -5.119,-4.933 -2.827,0 -5.119,2.209 -5.119,4.933 0,2.724 2.292,4.933 5.119,4.933 2.828,0 5.119,-2.209 5.119,-4.933"
         style="fill:#2f396e;fill-opacity:1;fill-rule:nonzero;stroke:none"
         id="path558"
         inkscape:connector-curvature="0" /><path
         d="m 827.902,431.788 c -11.098,-15.113 -33.362,-17.621 -33.362,-17.621 0,0 -4.27,21.994 6.827,37.106 11.098,15.113 33.362,17.622 33.362,17.622 0,0 4.271,-21.995 -6.827,-37.107"
         style="fill:#487e2f;fill-opacity:1;fill-rule:nonzero;stroke:none"
         id="path560"
         inkscape:connector-curvature="0" /><path
         d="m 781.301,440.825 c 10.173,-10.027 9.618,-27.086 9.618,-27.086 0,0 -17.05,-0.803 -27.223,9.223 -10.174,10.027 -9.619,27.087 -9.619,27.087 0,0 17.05,0.803 27.224,-9.224"
         style="fill:#366631;fill-opacity:1;fill-rule:nonzero;stroke:none"
         id="path562"
         inkscape:connector-curvature="0" /><path
         d="m 806.515,448.41 c 2.067,-18.636 -12.618,-35.557 -12.618,-35.557 0,0 -18.035,13.292 -20.102,31.928 -2.067,18.636 12.618,35.557 12.618,35.557 0,0 18.035,-13.293 20.102,-31.928"
         style="fill:#5bb74e;fill-opacity:1;fill-rule:nonzero;stroke:none"
         id="path564"
         inkscape:connector-curvature="0" /><path
         d="m 805.138,361.365 -38.618,0 -12.662,56.345 63.942,0 -12.662,-56.345"
         style="fill:#5c2945;fill-opacity:1;fill-rule:nonzero;stroke:none"
         id="path566"
         inkscape:connector-curvature="0" /><path
         d="m 819.7,361.365 -38.619,0 -5.698,56.345 56.978,0 -12.661,-56.345"
         style="fill:#9d4333;fill-opacity:1;fill-rule:nonzero;stroke:none"
         id="path568"
         inkscape:connector-curvature="0" /></g></g></svg>